<?xml version="1.0" encoding="UTF-8"?>
<svg width="40px" height="60px" viewBox="0 0 40 60" version="1.1" xmlns="http://www.w3.org/2000/svg" xmlns:xlink="http://www.w3.org/1999/xlink">
    <title>D1E74EFB-64DB-4E47-BF0C-3F3EE2B8AB6E@1.00x</title>
    <g id="✅-Final" stroke="none" stroke-width="1" fill="none" fill-rule="evenodd">
        <g id="Prototype" transform="translate(-1110.000000, -896.000000)" fill-rule="nonzero">
            <g id="Logros" transform="translate(1088.000000, 840.000000)">
                <g id="Badges" transform="translate(17.000000, 56.000000)">
                    <g id="002-medal-46" transform="translate(5.000000, 0.000000)">
                        <path d="M36.8589474,11.3515789 L2.9277193,11.3515789 C2.18853801,11.3515789 1.58783626,10.7508772 1.58783626,10.0116959 L1.58783626,1.33988304 C1.58783626,0.600701754 2.18666667,0 2.9277193,0 L36.8589474,0 C37.5981287,0 38.1988304,0.600701754 38.1988304,1.33988304 L38.1988304,10.0116959 C38.1988304,10.7508772 37.5981287,11.3515789 36.8589474,11.3515789 Z M4.26760234,8.67368421 L35.5190643,8.67368421 L35.5190643,2.67976608 L4.26760234,2.67976608 L4.26760234,8.67368421 Z" id="Shape" fill="#F9B444"></path>
                        <rect id="Rectangle" fill="#2B71B8" x="4.27883041" y="7.65005848" width="3.94292398" height="26.8669006"></rect>
                        <rect id="Rectangle" fill="#F3F3F3" x="8.22362573" y="7.65005848" width="3.94292398" height="26.8669006"></rect>
                        <rect id="Rectangle" fill="#2B71B8" x="31.5705263" y="7.65005848" width="3.94292398" height="26.8669006"></rect>
                        <rect id="Rectangle" fill="#F3F3F3" x="27.6219883" y="7.65005848" width="3.94292398" height="26.8669006"></rect>
                        <rect id="Rectangle" fill="#4B9FD8" x="12.157193" y="7.6425731" width="15.4535673" height="26.8781287"></rect>
                        <path d="M19.8933333,59.9036257 C30.8500585,59.9036257 39.7651462,50.9904094 39.7651462,40.0318129 C39.7651462,29.0732164 30.8500585,20.16 19.8933333,20.16 C8.93660819,20.16 0.0215204678,29.0750877 0.0215204678,40.0336842 C0.0215204678,50.9904094 8.93660819,59.9036257 19.8933333,59.9036257 Z" id="Path" fill="#EEB54D"></path>
                        <path d="M17.0133333,42.3653801 L29.9050292,42.3653801 C30.9024561,42.3653801 31.7277193,43.1925146 31.7277193,44.1880702 L31.7071345,44.3153216 L31.7071345,44.3359064 C31.7277193,45.3969591 30.8594152,46.2652632 29.7983626,46.2652632 L20.8720468,46.2652632 C19.6837427,46.2652632 18.6451462,47.1335673 18.5609357,48.3218713 C18.5178947,49.5719298 19.4947368,50.6123977 20.7447953,50.6123977 L30.2025731,50.6123977 C31.2636257,50.6123977 32.0271345,51.4825731 32.0271345,52.5417544 C32.0271345,52.5417544 32.0271345,52.5417544 32.0271345,52.5623392 C32.0271345,52.582924 32.0271345,52.582924 32.0271345,52.582924 C32.0271345,53.6215205 31.2636257,54.5122807 30.2025731,54.5122807 L22.5899415,54.5122807 C21.4240936,54.5122807 20.3854971,55.3805848 20.3218713,56.5483041 C20.2582456,57.8208187 21.2556725,58.8388304 22.4851462,58.8388304 L26.2559064,58.8388304 C34.0987135,56.1777778 39.7651462,48.7616374 39.7651462,40.0299415 C39.7651462,31.300117 34.0987135,23.8821053 26.2559064,21.222924 L21.0423392,21.222924 C19.8540351,21.222924 18.8154386,22.0912281 18.7518129,23.2589474 C18.6881871,24.5108772 19.685614,25.5494737 20.9150877,25.5494737 L28.591345,25.5494737 C29.8432749,25.5494737 30.8388304,26.5880702 30.7752047,27.84 C30.7115789,29.005848 29.6505263,29.8966082 28.4846784,29.8966082 L21.2332164,29.8966082 C20.0673684,29.917193 19.1335673,30.8715789 19.1335673,32.059883 C19.1335673,33.2481871 20.108538,34.2231579 21.2968421,34.2231579 L30.6273684,34.2231579 C31.6453801,34.2231579 32.4725146,35.0502924 32.4500585,36.0477193 L32.4500585,36.2180117 C32.5136842,37.1929825 31.7295906,38.0407018 30.7321637,38.0407018 L17.1405848,38.0407018 C15.9522807,38.0407018 14.9136842,38.9090058 14.8294737,40.0767251 C14.7864327,41.3267836 15.7632749,42.3653801 17.0133333,42.3653801 Z" id="Path" fill="#FCC555"></path>
                        <g id="Group" transform="translate(2.807018, 25.730994)" fill="#FFFFFF">
                            <path d="M7.90736842,25.4802339 C7.95976608,25.0966082 8.1974269,24.7635088 8.31157895,24.4023392 C8.4219883,24.0411696 8.42947368,23.6575439 8.42573099,23.2701754 C8.41263158,22.8809357 8.38643275,22.4916959 8.25169591,22.0594152 C8.21052632,22.0463158 8.17122807,22.031345 8.13192982,22.0182456 C7.80631579,22.2933333 7.61356725,22.6189474 7.46011696,22.9651462 C7.31602339,23.3132164 7.21122807,23.68 7.2374269,24.0898246 C7.26736842,24.5033918 7.44888889,24.9562573 7.47508772,25.3660819 C7.47883041,25.4203509 7.46573099,25.4690058 7.46760234,25.5214035 C6.62923977,24.4977778 5.91251462,23.4123977 5.31929825,22.2839766 C5.33614035,22.0556725 5.37356725,21.8404678 5.46152047,21.6495906 C5.60561404,21.3164912 5.91251462,21.0676023 6.1071345,20.7681871 C6.2980117,20.4650292 6.39345029,20.1207018 6.47578947,19.7670175 C6.55064327,19.411462 6.61052632,19.0484211 6.57309942,18.6236257 C6.53754386,18.6030409 6.5019883,18.5805848 6.46643275,18.56 C6.09403509,18.7415205 5.83766082,18.9978947 5.61309942,19.2804678 C5.39789474,19.5667836 5.21263158,19.8755556 5.14339181,20.2535673 C5.07789474,20.6334503 5.14339181,21.0825731 5.07040936,21.4549708 C5.05730994,21.5279532 5.02175439,21.5897076 5.00304094,21.657076 C4.46409357,20.528655 4.04491228,19.3590643 3.74549708,18.1670175 C3.8128655,17.9106433 3.9045614,17.6692398 4.0580117,17.4802339 C4.26760234,17.2088889 4.61567251,17.0498246 4.86643275,16.8196491 C5.11345029,16.585731 5.27625731,16.2881871 5.42596491,15.9794152 C5.57005848,15.6650292 5.69918129,15.3412865 5.74596491,14.9352047 C5.71602339,14.9071345 5.68608187,14.8790643 5.65614035,14.8509942 C5.26502924,14.937076 4.96935673,15.1185965 4.6980117,15.3300585 C4.43415205,15.5452632 4.19461988,15.7922807 4.05052632,16.1235088 C3.90830409,16.4584795 3.87649123,16.8870175 3.72678363,17.2107602 C3.68748538,17.2968421 3.62947368,17.3660819 3.57894737,17.442807 C3.33380117,16.2638596 3.20842105,15.0643275 3.19906433,13.862924 C3.33005848,13.5784795 3.48725146,13.3221053 3.71181287,13.1518129 C3.96631579,12.9478363 4.32561404,12.8842105 4.60631579,12.7251462 C4.8851462,12.5642105 5.09660819,12.3209357 5.3005848,12.0626901 C5.49707602,11.7969591 5.68233918,11.52 5.80584795,11.140117 C5.78339181,11.1064327 5.76093567,11.0727485 5.73847953,11.0390643 C5.3548538,11.0315789 5.04233918,11.1382456 4.74666667,11.2748538 C4.45660819,11.4208187 4.18339181,11.5967251 3.98128655,11.8755556 C3.78105263,12.16 3.66502924,12.5529825 3.4554386,12.8205848 C3.38619883,12.914152 3.29824561,12.9833918 3.21216374,13.0582456 C3.25707602,11.8849123 3.41239766,10.7134503 3.68561404,9.55695906 C3.69871345,9.53824561 3.70994152,9.52140351 3.72304094,9.50269006 C3.92701754,9.21824561 4.15157895,8.96748538 4.43040936,8.84210526 C4.70736842,8.70736842 5.05356725,8.73356725 5.34549708,8.64561404 C5.6374269,8.55578947 5.8825731,8.37052632 6.12023392,8.16654971 C6.35602339,7.95508772 6.58245614,7.72491228 6.77520468,7.38245614 C6.76210526,7.34502924 6.7471345,7.30573099 6.73403509,7.26830409 C6.38222222,7.17473684 6.07345029,7.20654971 5.77216374,7.27204678 C5.47461988,7.34690058 5.18643275,7.4554386 4.94128655,7.67625731 C4.6980117,7.9045614 4.5071345,8.25637427 4.26011696,8.46035088 C4.15345029,8.55391813 4.03368421,8.61754386 3.91204678,8.67555556 C4.24140351,7.52654971 4.68678363,6.39812865 5.24818713,5.30526316 C5.2594152,5.31836257 5.27064327,5.33146199 5.28187135,5.3445614 C5.33052632,5.29964912 5.37730994,5.25473684 5.42596491,5.20982456 C5.6748538,4.98152047 5.93497076,4.78877193 6.21754386,4.73263158 C6.49824561,4.6671345 6.80701754,4.76818713 7.09146199,4.74947368 C7.37777778,4.72701754 7.64163743,4.59976608 7.90549708,4.45005848 C8.16935673,4.2928655 8.42760234,4.11321637 8.68210526,3.81380117 C8.67836257,3.77263158 8.67461988,3.73146199 8.67087719,3.6902924 C8.37333333,3.52187135 8.08701754,3.48818713 7.79883041,3.48818713 C7.51251462,3.49567251 7.22432749,3.53871345 6.95111111,3.70339181 C6.67602339,3.87368421 6.42339181,4.17497076 6.15204678,4.31906433 C6.01918129,4.39391813 5.88070175,4.43883041 5.73847953,4.46690058 C5.74222222,4.44070175 5.74409357,4.41824561 5.74783626,4.39204678 C6.65730994,2.83508772 7.81192982,1.36046784 9.21730994,0.0187134503 C7.88678363,1.2051462 6.75461988,2.51508772 5.82269006,3.90923977 C5.82643275,3.86619883 5.8451462,3.8194152 5.8451462,3.77824561 C5.86760234,3.47883041 5.8825731,3.18128655 5.85263158,2.89871345 C5.75719298,2.35040936 5.59438596,1.81707602 5.15087719,1.36982456 C5.10222222,1.38666667 5.0554386,1.40163743 5.00865497,1.41847953 C4.53894737,2.18011696 4.4154386,2.84818713 4.41356725,3.45637427 C4.4322807,3.75391813 4.5071345,4.02526316 4.60444444,4.28538012 C4.68304094,4.5548538 4.82900585,4.79251462 5.00865497,5.01146199 C5.0348538,5.04327485 5.05918129,5.07508772 5.08538012,5.10502924 C4.55204678,6.04444444 4.10292398,7.01567251 3.73988304,8.00935673 C3.7380117,8 3.73988304,7.98690058 3.73614035,7.97754386 C3.67251462,7.66315789 3.60140351,7.35251462 3.49473684,7.06432749 C3.24397661,6.50853801 2.94081871,5.98081871 2.38690058,5.58596491 C2.34385965,5.6102924 2.30269006,5.63461988 2.26152047,5.66081871 C2.00888889,6.53660819 2.06877193,7.25333333 2.23719298,7.88584795 C2.33824561,8.19087719 2.48982456,8.46035088 2.66011696,8.7148538 C2.8154386,8.9805848 3.02690058,9.19953216 3.26830409,9.39602339 C3.27578947,9.40163743 3.28140351,9.40725146 3.28888889,9.4128655 C3.01380117,10.3990643 2.81918129,11.4021053 2.70877193,12.4145029 C2.56093567,12.1169591 2.41309942,11.8231579 2.23345029,11.5574269 C1.82923977,11.0278363 1.3819883,10.5319298 0.723274854,10.2138012 C0.687719298,10.245614 0.654035088,10.2792982 0.618479532,10.3111111 C0.601637427,11.259883 0.861754386,11.9897076 1.20608187,12.6109942 C1.39321637,12.908538 1.61964912,13.1592982 1.86292398,13.3894737 C2.07438596,13.6140351 2.33263158,13.7861988 2.60397661,13.9377778 C2.57590643,14.937076 2.62643275,15.9382456 2.75929825,16.9338012 C2.54035088,16.6755556 2.32140351,16.4154386 2.08187135,16.1908772 C1.52421053,15.7192982 0.936608187,15.2870175 0.18619883,15.0643275 C0.16,15.1036257 0.131929825,15.142924 0.105730994,15.1822222 C0.347134503,16.157193 0.809356725,16.8589474 1.33333333,17.4353216 C1.60654971,17.7066667 1.90783626,17.9237427 2.22035088,18.1164912 C2.47111111,18.288655 2.74994152,18.3990643 3.03251462,18.500117 C3.24584795,19.4732164 3.53777778,20.4350877 3.90830409,21.3782456 C3.62573099,21.1705263 3.34877193,20.957193 3.05497076,20.7812865 C2.35134503,20.3995322 1.62900585,20.0608187 0.801871345,19.9578947 C0.78502924,20.0009357 0.768187135,20.045848 0.751345029,20.0907602 C1.26222222,21.0432749 1.93216374,21.6776608 2.63391813,22.1660819 C2.98947368,22.3925146 3.36374269,22.5590643 3.73988304,22.6956725 C4.01309942,22.8098246 4.30128655,22.8603509 4.58573099,22.9108772 C5.03672515,23.8184795 5.56444444,24.7036257 6.16888889,25.5569591 C5.83391813,25.4091228 5.50081871,25.2538012 5.1677193,25.1359064 C4.32935673,24.8814035 3.48538012,24.6624561 2.59836257,24.6980117 C2.59274854,24.7447953 2.5871345,24.7934503 2.58339181,24.8402339 C3.37497076,25.7160234 4.25076023,26.234386 5.12093567,26.5992982 C5.55883041,26.7621053 5.9948538,26.8612865 6.42900585,26.928655 C6.71532164,26.9866667 6.99415205,26.9773099 7.2748538,26.9791813 C7.7445614,27.5312281 8.24982456,28.0664327 8.79064327,28.582924 C9.07508772,28.3190643 9.36140351,28.0552047 9.64584795,27.7932164 C9.0245614,27.2392982 8.44631579,26.6573099 7.9148538,26.0528655 C7.88491228,25.8563743 7.8774269,25.6636257 7.90736842,25.4802339 Z" id="Path"></path>
                            <path d="M31.1195322,20.7831579 C30.8276023,20.9590643 30.5487719,21.1723977 30.2661988,21.380117 C30.6367251,20.4369591 30.928655,19.4750877 31.140117,18.5019883 C31.4226901,18.4009357 31.7033918,18.2905263 31.9522807,18.1183626 C32.2647953,17.9274854 32.5679532,17.7104094 32.8392982,17.437193 C33.3632749,16.8608187 33.8254971,16.1590643 34.0669006,15.1840936 C34.0407018,15.1447953 34.0145029,15.1054971 33.9864327,15.0661988 C33.2360234,15.2888889 32.6484211,15.7211696 32.0907602,16.1927485 C31.8512281,16.4173099 31.6322807,16.6774269 31.4133333,16.9356725 C31.5443275,15.940117 31.5967251,14.9389474 31.568655,13.9396491 C31.84,13.7880702 32.0963743,13.6177778 32.3097076,13.391345 C32.5529825,13.1611696 32.7794152,12.9104094 32.9665497,12.6128655 C33.3108772,11.9897076 33.5709942,11.2617544 33.554152,10.3129825 C33.5185965,10.2811696 33.4849123,10.2474854 33.4493567,10.2156725 C32.7925146,10.5338012 32.3452632,11.0297076 31.9391813,11.5592982 C31.7595322,11.8250292 31.6116959,12.1207018 31.4638596,12.4163743 C31.3534503,11.4039766 31.1588304,10.4009357 30.8837427,9.41473684 C30.8912281,9.40912281 30.8968421,9.40350877 30.9043275,9.39789474 C31.145731,9.20140351 31.357193,8.98245614 31.5125146,8.71672515 C31.682807,8.46409357 31.834386,8.19461988 31.9354386,7.8877193 C32.1038596,7.25520468 32.165614,6.54035088 31.9111111,5.66269006 C31.8699415,5.63836257 31.8269006,5.61216374 31.785731,5.58783626 C31.2318129,5.98081871 30.928655,6.50853801 30.6778947,7.06619883 C30.5712281,7.35438596 30.500117,7.66502924 30.4364912,7.9794152 C30.4346199,7.98877193 30.4346199,8 30.4327485,8.01122807 C30.0697076,7.01754386 29.6205848,6.04444444 29.0872515,5.10690058 C29.1134503,5.07508772 29.1377778,5.0451462 29.1639766,5.01333333 C29.3417544,4.79251462 29.4877193,4.5548538 29.5681871,4.28725146 C29.6654971,4.0271345 29.7403509,3.75391813 29.7590643,3.45824561 C29.757193,2.85005848 29.6336842,2.1819883 29.1639766,1.42035088 C29.117193,1.40350877 29.068538,1.38853801 29.0217544,1.37169591 C28.5782456,1.81894737 28.4154386,2.35415205 28.32,2.90432749 C28.2900585,3.18690058 28.3050292,3.48444444 28.3274854,3.78385965 C28.3274854,3.82502924 28.3461988,3.87181287 28.3499415,3.9148538 C27.4180117,2.51883041 26.285848,1.21076023 24.9553216,0.0243274854 C26.3588304,1.36608187 27.5153216,2.83883041 28.4247953,4.39766082 C28.4304094,4.4219883 28.4304094,4.44631579 28.434152,4.47251462 C28.2938012,4.44444444 28.1553216,4.39953216 28.0224561,4.32467836 C27.7511111,4.1805848 27.4984795,3.8774269 27.2233918,3.70900585 C26.9483041,3.54432749 26.6619883,3.50128655 26.3756725,3.49380117 C26.0874854,3.49567251 25.7992982,3.52748538 25.5036257,3.69590643 C25.499883,3.73707602 25.4961404,3.77824561 25.4923977,3.8194152 C25.7469006,4.11883041 26.0070175,4.29660819 26.2690058,4.45567251 C26.5328655,4.60538012 26.7967251,4.73263158 27.0830409,4.75508772 C27.3674854,4.77380117 27.6762573,4.67274854 27.9569591,4.73824561 C28.2395322,4.79625731 28.4996491,4.9871345 28.748538,5.2154386 C28.797193,5.26035088 28.845848,5.30526316 28.8926316,5.35017544 C28.9038596,5.33707602 28.9150877,5.32397661 28.9244444,5.31087719 C29.485848,6.40374269 29.9312281,7.53403509 30.2605848,8.68116959 C30.1389474,8.62315789 30.0191813,8.55953216 29.9125146,8.46596491 C29.6654971,8.2619883 29.4764912,7.90830409 29.231345,7.68187135 C28.9861988,7.45918129 28.6980117,7.35064327 28.4004678,7.27766082 C28.0991813,7.21216374 27.7904094,7.17847953 27.4385965,7.27391813 C27.4254971,7.31134503 27.4105263,7.35064327 27.3974269,7.38807018 C27.5901754,7.73052632 27.8166082,7.96070175 28.0523977,8.17216374 C28.2919298,8.37614035 28.537076,8.55953216 28.8290058,8.65122807 C29.1209357,8.73918129 29.4671345,8.7148538 29.7440936,8.8477193 C30.0247953,8.97309942 30.2493567,9.22385965 30.451462,9.50830409 C30.4645614,9.52701754 30.4757895,9.54385965 30.4888889,9.5625731 C30.7602339,10.7190643 30.9174269,11.8923977 30.9604678,13.0638596 C30.874386,12.9890058 30.7864327,12.9197661 30.717193,12.8261988 C30.5094737,12.5604678 30.3934503,12.165614 30.191345,11.8811696 C29.9873684,11.6004678 29.7160234,11.4245614 29.4240936,11.2804678 C29.1284211,11.1438596 28.8159064,11.037193 28.4322807,11.0446784 C28.4098246,11.0783626 28.3873684,11.1120468 28.3649123,11.145731 C28.4884211,11.525614 28.6718129,11.8025731 28.8701754,12.0683041 C29.0722807,12.3246784 29.2837427,12.5698246 29.5644444,12.7307602 C29.8470175,12.8898246 30.2063158,12.9553216 30.4589474,13.1574269 C30.6835088,13.3277193 30.8407018,13.5859649 30.9716959,13.868538 C30.9642105,15.0699415 30.8369591,16.2694737 30.5918129,17.4484211 C30.5412865,17.3716959 30.4832749,17.3024561 30.4439766,17.2163743 C30.294269,16.8926316 30.2624561,16.4659649 30.1202339,16.1291228 C29.9761404,15.7978947 29.7366082,15.5508772 29.4727485,15.3356725 C29.2014035,15.1242105 28.905731,14.9426901 28.5146199,14.8566082 C28.4846784,14.8846784 28.4547368,14.9127485 28.4247953,14.9408187 C28.4715789,15.3469006 28.6025731,15.6706433 28.7447953,15.9850292 C28.8945029,16.2938012 29.0573099,16.5894737 29.3043275,16.8252632 C29.5532164,17.0554386 29.9012865,17.2145029 30.1127485,17.485848 C30.2661988,17.6748538 30.3578947,17.914386 30.4252632,18.1726316 C30.1277193,19.3646784 29.708538,20.5323977 29.1677193,21.6626901 C29.1490058,21.5934503 29.1134503,21.5316959 29.1003509,21.4605848 C29.0273684,21.0881871 29.0928655,20.6409357 29.0273684,20.2591813 C28.9581287,19.8811696 28.7747368,19.5723977 28.5576608,19.2860819 C28.3330994,19.0035088 28.0767251,18.7490058 27.7043275,18.565614 C27.6687719,18.5861988 27.6332164,18.608655 27.5976608,18.6292398 C27.5602339,19.0540351 27.620117,19.417076 27.6949708,19.7726316 C27.7773099,20.1263158 27.8727485,20.4706433 28.0636257,20.7738012 C28.2582456,21.0732164 28.5651462,21.3221053 28.7092398,21.6552047 C28.797193,21.8460819 28.8346199,22.0631579 28.851462,22.2895906 C28.2582456,23.4180117 27.5415205,24.5033918 26.7031579,25.5270175 C26.7031579,25.4746199 26.6900585,25.4259649 26.6956725,25.3716959 C26.7218713,24.9637427 26.9033918,24.5090058 26.9333333,24.0954386 C26.9595322,23.685614 26.8547368,23.3188304 26.7106433,22.9707602 C26.557193,22.6245614 26.3644444,22.2989474 26.0388304,22.0238596 C25.9995322,22.0369591 25.9583626,22.0519298 25.9190643,22.0650292 C25.7843275,22.4973099 25.7581287,22.8865497 25.7450292,23.2757895 C25.7394152,23.6631579 25.7487719,24.0467836 25.8591813,24.4079532 C25.9733333,24.7672515 26.2109942,25.1022222 26.2633918,25.485848 C26.2933333,25.6673684 26.2839766,25.860117 26.2559064,26.0584795 C25.7225731,26.662924 25.1461988,27.2449123 24.5249123,27.7988304 C24.8112281,28.0626901 25.0956725,28.3246784 25.380117,28.588538 C25.9209357,28.0720468 26.4261988,27.5368421 26.8959064,26.9847953 C27.1766082,26.982924 27.4573099,26.9904094 27.7417544,26.934269 C28.1759064,26.8669006 28.6138012,26.7695906 29.0498246,26.6049123 C29.92,26.24 30.7957895,25.7197661 31.5873684,24.845848 C31.5817544,24.7990643 31.5761404,24.7504094 31.5723977,24.7036257 C30.6853801,24.6680702 29.8414035,24.8870175 29.0030409,25.1415205 C28.6699415,25.2594152 28.3368421,25.4147368 28.0018713,25.5625731 C28.6063158,24.7092398 29.1340351,23.8240936 29.5850292,22.9164912 C29.871345,22.8659649 30.1576608,22.8173099 30.4327485,22.7012865 C30.8088889,22.562807 31.1831579,22.3981287 31.5387135,22.1716959 C32.2404678,21.6832749 32.908538,21.0488889 33.4194152,20.0963743 C33.4025731,20.051462 33.385731,20.0084211 33.3688889,19.9635088 C32.5454971,20.0626901 31.8231579,20.4014035 31.1195322,20.7831579 Z" id="Path"></path>
                        </g>
                        <circle id="Oval" fill="#ED6362" cx="19.8933333" cy="40.0336842" r="10.2680702"></circle>
                        <path d="M27.4909942,37.6065497 L22.1239766,37.6065497 L20.4659649,32.5015205 C20.2863158,31.9494737 19.5059649,31.9494737 19.3263158,32.5015205 L17.6683041,37.6065497 L12.2956725,37.6065497 C11.7155556,37.6065497 11.474152,38.3494737 11.9438596,38.6900585 L16.2872515,41.8451462 L14.6292398,46.9501754 C14.4495906,47.5022222 15.0821053,47.9625731 15.5518129,47.620117 L19.8933333,44.4669006 L24.2367251,47.6219883 C24.7064327,47.9625731 25.3389474,47.5040936 25.1592982,46.9520468 L23.5012865,41.8470175 L27.8446784,38.6919298 C28.3125146,38.3494737 28.0711111,37.6065497 27.4909942,37.6065497 Z" id="Path" fill="#FFFFFF"></path>
                    </g>
                </g>
            </g>
        </g>
    </g>
</svg>