<?xml version="1.0" encoding="UTF-8"?>
<svg width="80px" height="77px" viewBox="0 0 80 77" version="1.1" xmlns="http://www.w3.org/2000/svg" xmlns:xlink="http://www.w3.org/1999/xlink">
    <title>2524fb84-af49-48e4-9247-1e45427561aa@1.00x</title>
    <g id="⚛️-Symbols" stroke="none" stroke-width="1" fill="none" fill-rule="evenodd">
        <g id="Ilustraciones-/-Logros-/-Categoria-/-Cursos" fill-rule="nonzero">
            <g id="005-online-learning" transform="translate(3.000000, 7.000000)">
                <path d="M66.019418,55.9893828 L7.98173828,55.9911172 C6.32887891,55.9911172 4.98907422,54.6513125 4.98892969,52.9984531 L4.98777344,13.8695078 C4.98777344,12.2166484 6.32757813,10.8768437 7.98029297,10.8766992 L66.0179727,10.8749648 C67.670832,10.8749648 69.0106367,12.2147695 69.0107813,13.8676289 L69.0119375,52.9965742 C69.0119375,54.6494336 67.6722773,55.9893828 66.019418,55.9893828 L66.019418,55.9893828 Z" id="Path" fill="#4380A0"></path>
                <path d="M69.012082,52.9819766 C69.012082,54.642207 67.6795039,55.9896719 66.0341602,55.9896719 L61.5674219,55.9896719 C63.2126211,55.9896719 64.5453438,54.642207 64.5453438,52.9819766 L64.5438984,13.8828047 C64.5438984,12.2240195 63.2158008,10.8795898 61.5734922,10.8751094 L66.0328594,10.8751094 C67.6780586,10.8751094 69.0107813,12.2211289 69.0107813,13.8828047 L69.012082,52.9819766 Z" id="Path" fill="#3B7191"></path>
                <path d="M64.5451992,50.5178633 C64.5451992,50.8372773 64.2863438,51.0962773 63.9670742,51.0962773 L60.0784609,51.0962773 L10.0343711,51.0977227 C9.71510156,51.0977227 9.45624609,50.8387227 9.45624609,50.5193086 L9.45480078,15.9241641 C9.45480078,15.60475 9.71365625,15.34575 10.0329258,15.34575 L60.0770156,15.3443047 L63.9657734,15.3443047 C64.285043,15.3443047 64.5438984,15.6033047 64.5438984,15.9227188 L64.5451992,50.5178633 Z" id="Path" fill="#BBF7FF"></path>
                <path d="M63.9670742,51.0962773 L60.0784609,51.0962773 L60.0770156,15.3441602 L63.9657734,15.3441602 C64.285043,15.3441602 64.5438984,15.6031602 64.5438984,15.9225742 L64.5453438,50.5177188 C64.5451992,50.8372773 64.2864883,51.0962773 63.9670742,51.0962773 Z" id="Path" fill="#8BF0FF"></path>
                <path d="M71.9149922,63.015625 L2.08500781,63.015625 C0.933527344,63.015625 0,62.0820977 0,60.9306172 L0,57.6520703 C0,56.5005898 0.933527344,55.5670625 2.08500781,55.5670625 L71.9148477,55.5670625 C73.0663281,55.5670625 73.9998555,56.5005898 73.9998555,57.6520703 L73.9998555,60.9306172 C73.9998555,62.0820977 73.0664727,63.015625 71.9149922,63.015625 Z" id="Path" fill="#A9DBF5"></path>
                <path d="M71.9154258,55.566918 L67.4486875,55.566918 C68.5998789,55.566918 69.5332617,56.5007344 69.5332617,57.6525039 L69.5332617,60.9298945 C69.5332617,62.0818086 68.6000234,63.0154805 67.4486875,63.0154805 L71.9154258,63.0154805 C73.0666172,63.0154805 74,62.0816641 74,60.9298945 L74,57.6525039 C74,56.5007344 73.0667617,55.566918 71.9154258,55.566918 Z" id="Path" fill="#88C3E0"></path>
                <path d="M37,35.1576602 L15.947,35.1576602 C15.4862344,35.1576602 15.1126211,34.7840469 15.1126211,34.3232812 L15.1126211,8.39278516 C15.1126211,7.93201953 15.4862344,7.55840625 15.947,7.55840625 L37,7.55840625 L37,35.1576602 Z" id="Path" fill="#F75632"></path>
                <path d="M58.053,35.1576602 L37,35.1576602 L37,7.55840625 L58.053,7.55840625 C58.5137656,7.55840625 58.8873789,7.93201953 58.8873789,8.39278516 L58.8873789,34.3232813 C58.8873789,34.7840469 58.5137656,35.1576602 58.053,35.1576602 L58.053,35.1576602 Z" id="Path" fill="#E33629"></path>
                <path d="M37,35.1576602 L19.4729844,29.093418 C19.1369492,28.9770703 18.9114805,28.6605469 18.9114805,28.3048555 L18.9114805,0.835101562 C18.9114805,0.261601562 19.4765977,-0.1410625 20.0184453,0.0463945312 L37,5.92216797 L37,35.1576602 Z" id="Path" fill="#F3F3F3"></path>
                <path d="M37,35.1576602 L54.5270156,29.093418 C54.8630508,28.9770703 55.0885195,28.6605469 55.0885195,28.3048555 L55.0885195,0.835101562 C55.0885195,0.261601562 54.5234023,-0.1410625 53.9815547,0.0463945312 L37,5.92216797 L37,35.1576602 Z" id="Path" fill="#E4E4E4"></path>
                <path d="M41.7297852,59.142332 L32.2702148,59.142332 C31.3465156,59.142332 30.5975547,58.3935156 30.5975547,57.4696719 L30.5975547,55.566918 L43.4024453,55.566918 L43.4024453,57.4696719 C43.4024453,58.3935156 42.6534844,59.142332 41.7297852,59.142332 Z" id="Path" fill="#88C3E0"></path>
                <g id="Group" transform="translate(21.246094, 39.457031)" fill="#4380A0">
                    <path d="M30.4215156,0.0371445313 L1.08629687,0.0371445313 C0.487648437,0.0371445313 0.0023125,0.522625 0.0023125,1.12170703 C0.0023125,1.72078906 0.487648437,2.20626953 1.08629687,2.20626953 L30.4216602,2.20626953 C31.0204531,2.20626953 31.5056445,1.72078906 31.5056445,1.12170703 C31.5056445,0.522625 31.0203086,0.0371445313 30.4215156,0.0371445313 L30.4215156,0.0371445313 Z" id="Path"></path>
                    <path d="M20.1109453,4.77661328 L1.08629688,4.77661328 C0.487648438,4.77661328 0.0023125,5.26209375 0.0023125,5.86117578 C0.0023125,6.46025781 0.487648438,6.94573828 1.08629688,6.94573828 L20.1109453,6.94573828 C20.7097383,6.94573828 21.1949297,6.46025781 21.1949297,5.86117578 C21.1949297,5.26209375 20.7095938,4.77661328 20.1109453,4.77661328 Z" id="Path"></path>
                </g>
            </g>
        </g>
    </g>
</svg>