<?xml version="1.0" encoding="UTF-8"?>
<svg width="80px" height="77px" viewBox="0 0 80 77" version="1.1" xmlns="http://www.w3.org/2000/svg" xmlns:xlink="http://www.w3.org/1999/xlink">
    <title>49281d52-9e42-4047-be22-ca18e54518fa@1.00x</title>
    <g id="⚛️-Symbols" stroke="none" stroke-width="1" fill="none" fill-rule="evenodd">
        <g id="Ilustraciones-/-Logros-/-Categoria-/-Eventos" fill-rule="nonzero">
            <g id="008-event" transform="translate(2.000000, 5.000000)">
                <g id="Group" transform="translate(0.000000, 4.353093)">
                    <path d="M71.7116136,7.20872234 L6.07132127,7.20872234 L3.31399152e-15,11.2171438 L3.31399152e-15,56.9712627 C3.31399152e-15,59.6064388 2.13612502,61.7410091 4.77130108,61.7410091 L72.2286989,61.7410091 C74.863875,61.7410091 77,59.6064388 77,56.9712627 L77,11.2171438 L71.7116136,7.20872234 Z" id="Path" fill="#F9F7F8"></path>
                    <path d="M9.08257349,56.9712627 L9.08257349,7.20872234 L6.07132127,7.20872234 L0,11.2171438 L0,56.9712627 C0,59.6064388 2.13612502,61.7410091 4.77130108,61.7410091 L13.8538746,61.7410091 C11.2186985,61.7410091 9.08257349,59.6064388 9.08257349,56.9712627 Z" id="Path" fill="#EFEDEF"></path>
                    <path d="M77,4.81965151 L77,11.2171438 L0,11.2171438 L0,4.81965151 C0,2.18447545 2.13612502,0.048350428 4.77130108,0.048350428 L72.2286989,0.048350428 C74.863875,0.048350428 77,2.18447545 77,4.81965151 Z" id="Path" fill="#FD8087"></path>
                </g>
                <path d="M72.2286989,4.40144363 L4.77130108,4.40144363 C2.13612502,4.40144363 0,6.53756865 0,9.17274471 L0,15.570237 L9.08257349,15.570237 L9.08257349,13.9564832 C9.08257349,13.0964364 9.56141375,12.320653 10.3084356,11.8946717 C10.9051203,11.5543531 11.4316891,11.1045853 11.859847,10.5721087 C12.3309138,9.9864622 13.2158355,9.98988249 13.6855031,10.5767727 C14.5592311,11.6683109 15.8412171,12.4154882 17.317693,12.5756199 C17.5152924,12.5970744 17.7158456,12.6079571 17.9136004,12.6079571 C19.6203239,12.6079571 21.1453057,11.8177152 22.1432523,10.5840797 C22.619916,9.99501292 23.5051486,9.98506299 23.978703,10.5767727 C24.8524309,11.6684663 26.1344169,12.4154882 27.6108928,12.5756199 C27.8084922,12.5970744 28.0090454,12.6079571 28.2068002,12.6079571 C29.9135237,12.6079571 31.4385055,11.8177152 32.4364521,10.5840797 C32.9131158,9.99501292 33.7983484,9.98506299 34.2719028,10.5767727 C35.1456308,11.6684663 36.4276167,12.4154882 37.9040926,12.5756199 C38.101692,12.5970744 38.3022452,12.6079571 38.5,12.6079571 C40.2053243,12.6079571 41.7292178,11.8191144 42.7271644,10.5871891 C43.2055383,9.99687853 44.0876615,9.99687853 44.5660354,10.5871891 C45.563982,11.818959 47.0877201,12.6078016 48.7930443,12.6079571 L48.7933553,12.6079571 C48.9909546,12.6079571 49.1916633,12.5970744 49.3891072,12.5756199 C50.8655831,12.4154882 52.1477245,11.6683109 53.0214525,10.5766173 C53.4950069,9.98506299 54.3802395,9.99485745 54.8567477,10.5840797 C55.8546943,11.8175598 57.3795207,12.6078016 59.0860887,12.6079571 L59.0865551,12.6079571 C59.2841544,12.6079571 59.4848631,12.5970744 59.682307,12.5756199 C61.1587829,12.4154882 62.4407689,11.6684663 63.3144969,10.5767727 C63.7880512,9.98521846 64.6732838,9.99501292 65.1499475,10.5840797 C66.1478941,11.8175598 67.6727205,12.6076462 69.379444,12.6078016 L69.3799104,12.6078016 C69.5775097,12.6078016 69.7782184,12.5969189 69.9756623,12.5754644 C72.7380108,12.2758783 74.8209659,9.92225408 74.8209659,7.10051688 L74.8209659,5.1677435 C74.0744104,4.68361735 73.1846693,4.40144363 72.2286989,4.40144363 Z" id="Path" fill="#FE646F"></path>
                <path d="M38.2392808,9.48430181 C37.0465333,9.35495275 36.1679858,8.30026046 36.1679858,7.10051688 L36.1679858,2.42109716 C36.1679858,1.22135358 37.0465333,0.166661283 38.2392808,0.0373122274 C39.6439307,-0.115046035 40.8320142,0.981311581 40.8320142,2.35517889 L40.8320142,7.16627968 C40.8320142,8.54030246 39.6440862,9.63666007 38.2392808,9.48430181 Z" id="Path" fill="#F9F7F8"></path>
                <path d="M27.946081,9.48430181 C26.7533335,9.35495275 25.874786,8.30026046 25.874786,7.10051688 L25.874786,2.42109716 C25.874786,1.22135358 26.7533335,0.166661283 27.946081,0.0373122274 C29.3507309,-0.115046035 30.5388144,0.981311581 30.5388144,2.35517889 L30.5388144,7.16627968 C30.5388144,8.54030246 29.3508864,9.63666007 27.946081,9.48430181 Z" id="Path" fill="#F9F7F8"></path>
                <path d="M17.6530367,9.48430181 C16.4602891,9.35495275 15.5817416,8.30026046 15.5817416,7.10051688 L15.5817416,2.42109716 C15.5817416,1.22135358 16.4602891,0.166661283 17.6530367,0.0373122274 C19.0576866,-0.115046035 20.2457701,0.981311581 20.2457701,2.35517889 L20.2457701,7.16627968 C20.2456146,8.54030246 19.0576866,9.63666007 17.6530367,9.48430181 Z" id="Path" fill="#F9F7F8"></path>
                <path d="M7.35983686,9.48430181 C6.16708932,9.35495275 5.28854183,8.30026046 5.28854183,7.10051688 L5.28854183,2.42109716 C5.28854183,1.22135358 6.16708932,0.166661283 7.35983686,0.0373122274 C8.76448675,-0.115046035 9.95257026,0.981311581 9.95257026,2.35517889 L9.95257026,7.16627968 C9.95257026,8.54030246 8.76448675,9.63666007 7.35983686,9.48430181 L7.35983686,9.48430181 Z" id="Path" fill="#F9F7F8"></path>
                <path d="M49.053919,9.48430181 C50.2466665,9.35495275 51.125214,8.30026046 51.125214,7.10051688 L51.125214,2.42109716 C51.125214,1.22135358 50.2466665,0.166661283 49.053919,0.0373122274 C47.6492691,-0.115046035 46.4611856,0.981311581 46.4611856,2.35517889 L46.4611856,7.16627968 C46.4611856,8.54030246 47.6491136,9.63666007 49.053919,9.48430181 Z" id="Path" fill="#F9F7F8"></path>
                <path d="M59.3471188,9.48430181 C60.5398663,9.35495275 61.4184138,8.30026046 61.4184138,7.10051688 L61.4184138,2.42109716 C61.4184138,1.22135358 60.5398663,0.166661283 59.3471188,0.0373122274 C57.9424689,-0.115046035 56.7543854,0.981311581 56.7543854,2.35517889 L56.7543854,7.16627968 C56.7543854,8.54030246 57.9423134,9.63666007 59.3471188,9.48430181 Z" id="Path" fill="#F9F7F8"></path>
                <path d="M69.6401631,9.48430181 C70.8329107,9.35495275 71.7114582,8.30026046 71.7114582,7.10051688 L71.7114582,2.42607212 C71.7114582,1.16756178 70.7444496,0.0823978356 69.4873385,0.0256521564 C68.150317,-0.034669278 67.0474297,1.03152762 67.0474297,2.35517889 L67.0474297,7.16627968 C67.0475852,8.54030246 68.2355132,9.63666007 69.6401631,9.48430181 Z" id="Path" fill="#F9F7F8"></path>
                <g id="Group" transform="translate(6.996043, 22.076401)" fill="#FE9738">
                    <path d="M6.68417461,7.68880633 L1.03090575,7.68880633 C0.4867691,7.68880633 0.045552011,7.24774471 0.045552011,6.70345259 L0.045552011,1.05002827 C0.045552011,0.505891617 0.486613633,0.0646745275 1.03090575,0.0646745275 L6.68433008,0.0646745275 C7.22846673,0.0646745275 7.66968382,0.505736149 7.66968382,1.05002827 L7.66968382,6.70345259 C7.66952835,7.24758924 7.22831126,7.68880633 6.68417461,7.68880633 Z" id="Path"></path>
                    <path d="M25.125743,7.68880633 L19.4723187,7.68880633 C18.928182,7.68880633 18.4869649,7.24774471 18.4869649,6.70345259 L18.4869649,1.05002827 C18.4869649,0.505891617 18.9280266,0.0646745275 19.4723187,0.0646745275 L25.125743,0.0646745275 C25.6698797,0.0646745275 26.1110968,0.505736149 26.1110968,1.05002827 L26.1110968,6.70345259 C26.1110968,7.24758924 25.6698797,7.68880633 25.125743,7.68880633 Z" id="Path"></path>
                    <path d="M43.5673114,7.68880633 L37.9138871,7.68880633 C37.3697504,7.68880633 36.9285334,7.24774471 36.9285334,6.70345259 L36.9285334,1.05002827 C36.9285334,0.505891617 37.369595,0.0646745275 37.9138871,0.0646745275 L43.5673114,0.0646745275 C44.1114481,0.0646745275 44.5526652,0.505736149 44.5526652,1.05002827 L44.5526652,6.70345259 C44.5525097,7.24758924 44.1114481,7.68880633 43.5673114,7.68880633 Z" id="Path"></path>
                    <path d="M62.0088798,7.68880633 L56.3554555,7.68880633 C55.8113188,7.68880633 55.3701018,7.24774471 55.3701018,6.70345259 L55.3701018,1.05002827 C55.3701018,0.505891617 55.8111634,0.0646745275 56.3554555,0.0646745275 L62.0088798,0.0646745275 C62.5530165,0.0646745275 62.9942336,0.505736149 62.9942336,1.05002827 L62.9942336,6.70345259 C62.9940781,7.24758924 62.5530165,7.68880633 62.0088798,7.68880633 Z" id="Path"></path>
                    <path d="M6.68417461,22.1755896 L1.03090575,22.1755896 C0.4867691,22.1755896 0.045552011,21.7345279 0.045552011,21.1902358 L0.045552011,15.5368115 C0.045552011,14.9926749 0.486613633,14.5514578 1.03090575,14.5514578 L6.68433008,14.5514578 C7.22846673,14.5514578 7.66968382,14.9925194 7.66968382,15.5368115 L7.66968382,21.1902358 C7.66952835,21.7345279 7.22831126,22.1755896 6.68417461,22.1755896 Z" id="Path"></path>
                    <path d="M25.125743,22.1755896 L19.4723187,22.1755896 C18.928182,22.1755896 18.4869649,21.7345279 18.4869649,21.1902358 L18.4869649,15.5368115 C18.4869649,14.9926749 18.9280266,14.5514578 19.4723187,14.5514578 L25.125743,14.5514578 C25.6698797,14.5514578 26.1110968,14.9925194 26.1110968,15.5368115 L26.1110968,21.1902358 C26.1110968,21.7345279 25.6698797,22.1755896 25.125743,22.1755896 Z" id="Path"></path>
                    <path d="M62.0088798,22.1755896 L56.3554555,22.1755896 C55.8113188,22.1755896 55.3701018,21.7345279 55.3701018,21.1902358 L55.3701018,15.5368115 C55.3701018,14.9926749 55.8111634,14.5514578 56.3554555,14.5514578 L62.0088798,14.5514578 C62.5530165,14.5514578 62.9942336,14.9925194 62.9942336,15.5368115 L62.9942336,21.1902358 C62.9940781,21.7345279 62.5530165,22.1755896 62.0088798,22.1755896 Z" id="Path"></path>
                    <path d="M6.68417461,36.6625283 L1.03090575,36.6625283 C0.4867691,36.6625283 0.045552011,36.2214666 0.045552011,35.6771745 L0.045552011,30.0237502 C0.045552011,29.4796136 0.486613633,29.0383965 1.03090575,29.0383965 L6.68433008,29.0383965 C7.22846673,29.0383965 7.66968382,29.4794581 7.66968382,30.0237502 L7.66968382,35.6771745 C7.66952835,36.2213112 7.22831126,36.6625283 6.68417461,36.6625283 Z" id="Path"></path>
                    <path d="M25.125743,36.6625283 L19.4723187,36.6625283 C18.928182,36.6625283 18.4869649,36.2214666 18.4869649,35.6771745 L18.4869649,30.0237502 C18.4869649,29.4796136 18.9280266,29.0383965 19.4723187,29.0383965 L25.125743,29.0383965 C25.6698797,29.0383965 26.1110968,29.4794581 26.1110968,30.0237502 L26.1110968,35.6771745 C26.1110968,36.2213112 25.6698797,36.6625283 25.125743,36.6625283 Z" id="Path"></path>
                    <path d="M43.5673114,36.6625283 L37.9138871,36.6625283 C37.3697504,36.6625283 36.9285334,36.2214666 36.9285334,35.6771745 L36.9285334,30.0237502 C36.9285334,29.4796136 37.369595,29.0383965 37.9138871,29.0383965 L43.5673114,29.0383965 C44.1114481,29.0383965 44.5526652,29.4794581 44.5526652,30.0237502 L44.5526652,35.6771745 C44.5525097,36.2213112 44.1114481,36.6625283 43.5673114,36.6625283 Z" id="Path"></path>
                </g>
                <path d="M48.3833872,36.3259409 L48.9789836,38.159215 C49.1002483,38.5323373 49.4478739,38.7849721 49.8402742,38.7849721 L51.7679171,38.7849721 C52.6452209,38.7849721 53.0099479,39.9076038 52.3002382,40.4232899 L50.7407426,41.5563378 C50.4232777,41.7868963 50.2905084,42.1957761 50.4117731,42.5688984 L51.0073696,44.4021725 C51.2785051,45.2365672 50.3234675,45.9304192 49.6137579,45.4147331 L48.0542622,44.2816851 C47.7367974,44.0511266 47.3070849,44.0511266 46.98962,44.2816851 L45.4301244,45.4147331 C44.7204147,45.9304192 43.7653772,45.2365672 44.0365127,44.4021725 L44.6321091,42.5688984 C44.7533738,42.1957761 44.6206045,41.7870518 44.3031396,41.5563378 L42.743644,40.4232899 C42.0339343,39.9076038 42.3986614,38.7849721 43.2759651,38.7849721 L45.2036081,38.7849721 C45.5960083,38.7849721 45.9436339,38.5323373 46.0648986,38.159215 L46.6604951,36.3259409 C46.9319415,35.4915462 48.1124071,35.4915462 48.3833872,36.3259409 L48.3833872,36.3259409 Z" id="Path" fill="#FEF056"></path>
                <path d="M60.6420086,66.0014436 L76.9993781,49.6440741 L63.8247416,49.6440741 C62.0670247,49.6440741 60.6420086,51.0689347 60.6420086,52.8268071 L60.6420086,66.0014436 Z" id="Path" fill="#E5E1E5"></path>
            </g>
        </g>
    </g>
</svg>