<?xml version="1.0" encoding="UTF-8"?>
<svg width="74px" height="70px" viewBox="0 0 74 70" version="1.1" xmlns="http://www.w3.org/2000/svg" xmlns:xlink="http://www.w3.org/1999/xlink">
    <title>006-chart</title>
    <g id="âš›ï¸-Symbols" stroke="none" stroke-width="1" fill="none" fill-rule="evenodd">
        <g id="Ilustraciones-/-Logros-/-Categoria-/-Path-de-carrera" transform="translate(-3.000000, -4.000000)" fill-rule="nonzero">
            <g id="006-chart" transform="translate(3.000000, 4.000000)">
                <path d="M60.0106758,8.99287891 L70.6610391,8.99287891 C71.2150273,8.99287891 71.5168086,8.3458125 71.1605391,7.92146875 L69.1317539,5.50461719 C68.9282539,5.26209375 68.9282539,4.90842578 69.1317539,4.66604688 L71.1605391,2.24919531 C71.5168086,1.82485156 71.2150273,1.17778516 70.6610391,1.17778516 L60.0106758,1.17778516 L60.0106758,8.99287891 Z" id="Path" fill="#E28086"></path>
                <path d="M60.0106758,0.0609921875 C59.3939609,0.0609921875 58.8940273,0.560925781 58.8940273,1.17764062 L58.8940273,21.0186016 C58.8940273,21.6353164 59.3939609,22.13525 60.0106758,22.13525 C60.6273906,22.13525 61.1273243,21.6353164 61.1273243,21.0186016 L61.1273243,1.17764062 C61.1274687,0.560925781 60.6273906,0.0609921875 60.0106758,0.0609921875 Z" id="Path" fill="#407093"></path>
                <g id="Group" transform="translate(0.000000, 5.925781)">
                    <g transform="translate(0.000000, 11.128906)" id="Path">
                        <g transform="translate(6.648438, 0.000000)">
                            <path d="M1.70648047,29.3691836 C0.839871094,29.3691836 0.137449219,30.0716055 0.137449219,30.9382148 L0.137449219,47.2777617 L6.405625,47.2777617 L6.405625,30.6839844 L5.11525,29.3691836 L1.70648047,29.3691836 Z" fill="#FFE07D"></path>
                            <path d="M12.975293,29.3691836 L5.11525,29.3691836 L5.11525,47.2777617 L14.5441797,47.2777617 L14.5441797,30.9382148 C14.5441797,30.07175 13.8417578,29.3691836 12.975293,29.3691836 Z" fill="#FFD064"></path>
                            <path d="M24.7171563,15.6583711 C23.8506914,15.6583711 23.148125,16.360793 23.148125,17.2274023 L23.148125,47.2779063 L29.4163008,47.2779063 L29.4163008,17.202832 L28.1259258,15.6583711 L24.7171563,15.6583711 Z" fill="#CBE2FF"></path>
                            <path d="M35.9859687,15.6583711 L28.1259258,15.6583711 L28.1259258,47.2779063 L37.5548555,47.2779063 L37.5548555,17.2274023 C37.555,16.360793 36.8524336,15.6583711 35.9859687,15.6583711 L35.9859687,15.6583711 Z" fill="#BED8FB"></path>
                            <path d="M47.7279766,0.035265625 C46.8613672,0.035265625 46.1589453,0.7376875 46.1589453,1.60429687 L46.1589453,47.2779062 L52.4271211,47.2779062 L52.4271211,1.79247656 L51.1367461,0.035265625 L47.7279766,0.035265625 Z" fill="#8FDDC1"></path>
                            <path d="M58.9966445,0.035265625 L51.1366016,0.035265625 L51.1366016,47.2777617 L60.5655313,47.2777617 L60.5655313,1.60429687 C60.5656758,0.7376875 59.8632539,0.035265625 58.9966445,0.035265625 Z" fill="#77CEAF"></path>
                        </g>
                        <path d="M62.4996484,46.192332 L2.88903516,46.192332 C1.29341016,46.192332 4.62130334e-15,47.4857422 4.62130334e-15,49.0812227 C4.62130334e-15,50.6767031 1.29341016,51.9702578 2.88903516,51.9702578 L64.5710703,51.9702578 L65.3886836,51.0513281 L65.3886836,49.0812227 C65.3886836,47.4857422 64.0951289,46.192332 62.4996484,46.192332 L62.4996484,46.192332 Z" fill="#4A80AA"></path>
                        <path d="M71.1109648,46.192332 L61.6820352,46.192332 C63.2775156,46.192332 64.5710703,47.4857422 64.5710703,49.0813672 L64.5710703,51.9704023 L71.1111094,51.9704023 C72.7065898,51.9704023 74.0001445,50.6769922 74.0001445,49.0813672 C74,47.4857422 72.7065898,46.192332 71.1109648,46.192332 L71.1109648,46.192332 Z" fill="#407093"></path>
                    </g>
                    <path d="M48.9593828,1.58767578 L43.0015156,0.134414062 C42.4021445,-0.012140625 41.7981484,0.355402344 41.6520273,0.954628906 C41.5057617,1.55371094 41.8731602,2.15799609 42.4722422,2.30411719 L45.6017773,3.06753125 L4.58525391,25.1173633 C4.04196094,25.4094609 3.83831641,26.0864453 4.13041406,26.6297383 C4.33203516,27.0047969 4.71706641,27.2178359 5.11496094,27.2178359 C5.29345703,27.2178359 5.47455469,27.1749102 5.64278906,27.0844336 L47.0160156,4.84280859 L46.1566328,8.36575781 C46.0103672,8.96483984 46.3777656,9.569125 46.9768477,9.71524609 C47.0657344,9.73692578 47.1547656,9.74733203 47.2423516,9.74733203 C47.7451758,9.74733203 48.2018945,9.40522656 48.3263359,8.89503125 L49.7795977,2.93701953 C49.9258633,2.33808203 49.5586094,1.73379687 48.9593828,1.58767578 Z" id="Path" fill="#FFFBF4"></path>
                </g>
            </g>
        </g>
    </g>
</svg>