<?xml version="1.0" encoding="UTF-8"?>
<svg width="80px" height="77px" viewBox="0 0 80 77" version="1.1" xmlns="http://www.w3.org/2000/svg" xmlns:xlink="http://www.w3.org/1999/xlink">
    <title>001-businessman</title>
    <g id="âš›ï¸-Symbols" stroke="none" stroke-width="1" fill="none" fill-rule="evenodd">
        <g id="Ilustraciones-/-Logros-/-Categoria-/-General" fill-rule="nonzero">
            <g id="001-businessman">
                <path d="M50,64.7569307 L50,74.6140513 C50,75.3793239 49.3714584,76 48.5961365,76 L1.40213115,76 C0.626966653,76 0,75.3794793 0,74.6140513 L0,64.7569307 C0,58.2634642 5.33150015,53 11.9073267,53 L38.0910984,53 C44.6684998,53 50,58.2634642 50,64.7569307 L50,64.7569307 Z" id="Path" fill="#8AC9FE"></path>
                <polygon id="Path" fill="#FFCEBF" points="32 44 32 55.6562187 19.9088339 55.9329626 17 56 17 44"></polygon>
                <polygon id="Path" fill="#FFB09E" points="22 44 22 55.8865522 19.9266148 55.9329626 17 56 17 44"></polygon>
                <circle id="Oval" fill="#FFE177" cx="60" cy="53" r="20"></circle>
                <path d="M59.8982441,43.2473286 L62.7987934,49.1200776 C62.8635633,49.2511001 62.9885105,49.3417714 63.1332529,49.3628173 L69.6192652,50.3045016 C69.9834967,50.3573536 70.1290309,50.8046972 69.865359,51.0615202 L65.1721574,55.6327479 C65.0674804,55.7346542 65.0196552,55.8816589 65.0443596,56.0254987 L66.1522567,62.4802532 C66.2144928,62.8427803 65.8336334,63.119225 65.5078837,62.9480097 L59.7066266,59.9004718 C59.5772453,59.8324288 59.4226845,59.8324288 59.2933031,59.9004718 L53.492046,62.9480097 C53.1662964,63.119225 52.785437,62.8427803 52.847673,62.4802532 L53.9555701,56.0254987 C53.9802745,55.8815006 53.9324494,55.7346542 53.8277724,55.6327479 L49.1345708,51.0615202 C48.8710572,50.8048554 49.0164331,50.3575119 49.3806646,50.3045016 L55.8666768,49.3628173 C56.0112609,49.3417714 56.1363665,49.2511001 56.2011363,49.1200776 L59.1016857,43.2473286 C59.2646397,42.9175571 59.7352901,42.9175571 59.8982441,43.2473286 L59.8982441,43.2473286 Z" id="Path" fill="#FFC344"></path>
                <path d="M37.962032,25.3767218 L37.962032,35.585564 C37.962032,40.7854743 33.8056398,45 28.6799555,45 L19.2820765,45 C14.1562339,45 10,40.7854743 10,35.585564 L10,24.0832037 C10,23.9491978 10.0036386,23.8171178 10.0090174,23.6850377 L10.0090174,16 L38,16 L37.962032,25.3767218 Z" id="Path" fill="#FFCEBF"></path>
                <path d="M29,77 L21,77 L22.2529113,63.3947672 C22.274261,63.1692311 22.4316214,63 22.6195879,63 L27.3620484,63 C27.5515079,63 27.7088683,63.1692311 27.730218,63.3947672 L29,77 Z" id="Path" fill="#FE646F"></path>
                <path d="M31,55 L18,55.1912019 L20.0262108,60.0354328 L21.729017,63.6625253 C21.8272041,63.8716313 22.0065412,64 22.2003748,64 L27.0252911,64 C27.1962592,64 27.3575132,63.8998386 27.4607815,63.7295811 L31,55 Z" id="Path" fill="#FE646F"></path>
                <path d="M22,45 L19.220735,45 C14.1286639,45 10,40.7855415 10,35.5856766 L10,24.0838641 C10,23.9492133 10.0031433,23.8177723 10.0095869,23.6847264 L10.0095869,16 L14.8346387,16 L14.8346387,23.7471568 C14.828195,23.8802028 14.8250517,35.7448823 14.8250517,35.7448823 C14.8252089,40.2617033 17.8922388,44.0425187 22,45 Z" id="Path" fill="#FFB09E"></path>
                <path d="M38.1749754,24.4353072 C38.0257426,24.7198126 37.746533,24.920547 37.4239977,24.9632228 C37.3100673,24.9774481 37.1816951,24.9900928 37.0420902,24.9948346 C36.0520192,25.0438327 34.5452499,24.7751331 34.0734818,22.8420768 C33.3513879,19.876898 35.2865996,18.3342464 31.1064781,18.0276127 C27.4623106,17.7620743 16.5025293,16.0661059 13.288409,19.3205319 C13.0990599,19.5102021 12.9385946,19.7172589 12.807013,19.9432826 C12.7331989,20.0697295 12.6674082,20.2040793 12.61285,20.3431708 C12.5197801,20.5770975 12.4523846,20.8284106 12.4186869,21.1002714 C12.4186869,21.1002714 12.1378726,23.6418532 9.78705568,23.3462837 C9.64103224,23.3273166 9.49019484,23.2972855 9.32812486,23.2561903 L9.32812486,23.2546097 C9.29121784,23.2467068 9.25110151,23.2372232 9.21258983,23.2261591 C8.90610107,23.1376463 8.65737983,22.9147838 8.54826341,22.6223754 C7.36884331,19.4232699 3.29783815,1.06634744 8.84031029,0.571624114 C9.82877666,0.4846919 11.2039645,0.356664457 12.811827,0.246023457 C12.8920596,0.239701114 12.9722923,0.234959357 13.0541296,0.228637014 C20.9763024,-0.308762128 34.2371564,-0.427306057 35.4534836,6.10209353 C35.5112511,6.4150495 35.7214606,6.67426556 36.0135075,6.80703475 C37.9695798,7.69690451 44.7925652,11.8506838 38.1749754,24.4353072 Z" id="Path" fill="#BC7C63"></path>
                <g id="Group" transform="translate(0.000000, 49.000000)" fill="#26A6FE">
                    <path d="M4.79079129,16.3445533 L4.79079129,26.6971956 C4.79079129,27.2548127 5.08946477,27.7393023 5.5301408,27.9831686 L1.38928422,27.9831686 C0.621222114,27.9831686 -2.77194713e-16,27.3360474 -2.77194713e-16,26.5378069 L-2.77194713e-16,16.2582921 C-2.77194713e-16,9.48646294 5.28265065,3.99736387 11.7982267,3.99736387 L16.589018,3.99736387 C10.0734419,3.99736387 4.79079129,9.5261885 4.79079129,16.3445533 Z" id="Path"></path>
                    <path d="M24.3081826,5.83819753 L17.9519303,0.443791219 C17.4678733,0.0329154613 16.7758059,0.0205924314 16.2783289,0.41379437 L14.216015,2.0440015 C13.8631933,2.32289112 13.6643898,2.76392588 13.6840517,3.2242559 L14.0442076,11.6519111 C14.0935183,12.8062223 15.3885503,13.4084293 16.2497723,12.6774791 L24.3081826,5.83819753 Z" id="Path"></path>
                    <path d="M24.3081826,5.83819753 L30.6644349,0.443791219 C31.1484919,0.0329154613 31.8405592,0.0205924314 32.3380363,0.41379437 L34.4003501,2.0440015 C34.7531718,2.32289112 34.9519754,2.76392588 34.9323135,3.2242559 L34.5721576,11.6519111 C34.5228468,12.8062223 33.2278148,13.4084293 32.3665928,12.6774791 L24.3081826,5.83819753 Z" id="Path"></path>
                </g>
                <path d="M23.5,33 L17.5576684,33 C17.2276095,33 16.9712855,33.306282 17.002591,33.6587533 C17.3162821,37.1948868 20.1266295,40 23.5,40 C26.8733705,40 29.6837179,37.1948868 29.997409,33.6587533 C30.0287145,33.306282 29.7723905,33 29.4423316,33 L23.5,33 Z" id="Path" fill="#F2F2F2"></path>
                <path d="M13.7547796,20.5940456 C13.681532,20.719719 13.6162461,20.8532469 13.5621065,20.9914876 C13.4697508,21.2239833 13.4028725,21.4737591 13.3694334,21.7439568 C13.3694334,21.7439568 13.0907739,24.269991 10.7579959,23.9762296 C10.6130929,23.9573786 10.463413,23.9275312 10.3025866,23.8866873 L10.3025866,23.8851164 C10.2659628,23.8772618 10.2261543,23.8678363 10.1879382,23.8568399 C9.88380122,23.7688686 9.63698853,23.5473693 9.52870941,23.2567497 C8.35833955,20.077214 4.31857308,1.83258592 9.81851528,1.34088895 C10.7993967,1.25448853 12.164032,1.12724426 13.7595567,1.01728009 C13.8391737,1.01099642 13.9187907,1.00628367 14,1 C10.4745593,2.96364604 12.3264507,14.6308453 13.7547796,20.5940456 Z" id="Path" fill="#AA6A51"></path>
                <path d="M62,72.8547857 C61.2210158,72.9500185 60.429345,73 59.6249877,73 C48.7857354,73 40,64.0463787 40,53 C40,41.9536213 48.7857354,33 59.6249877,33 C60.429345,33 61.2210158,33.0499815 62,33.1452143 C52.2801024,34.3392512 44.7500246,42.773349 44.7500246,53 C44.7500246,63.226651 52.2801024,71.6607488 62,72.8547857 Z" id="Path" fill="#FFD064"></path>
                <path d="M18,28 C17.4477333,28 17,27.4481739 17,26.7675116 L17,25.2324884 C17,24.5518261 17.4477333,24 18,24 C18.5522667,24 19,24.5518261 19,25.2324884 L19,26.7675116 C19,27.4481739 18.5522667,28 18,28 Z" id="Path" fill="#433F43"></path>
                <path d="M30,28 C29.4477333,28 29,27.4481739 29,26.7675116 L29,25.2324884 C29,24.5518261 29.4477333,24 30,24 C30.5522667,24 31,24.5518261 31,25.2324884 L31,26.7675116 C31,27.4481739 30.5522667,28 30,28 Z" id="Path" fill="#433F43"></path>
            </g>
        </g>
    </g>
</svg>