<?xml version="1.0" encoding="UTF-8"?>
<svg width="70px" height="80px" viewBox="0 0 70 80" version="1.1" xmlns="http://www.w3.org/2000/svg" xmlns:xlink="http://www.w3.org/1999/xlink">
    <title>Precision</title>
    <g id="Symbols" stroke="none" stroke-width="1" fill="none" fill-rule="evenodd">
        <g id="Branding-/-Imagotipos-/-Precision" transform="translate(-5.000000, -5.000000)">
            <g id="Precision" transform="translate(5.000000, 5.000000)">
                <path d="M34.5786056,-4.28775789e-15 C34.249184,-4.28775789e-15 33.9197623,0.0837876873 33.6232828,0.25279533 L3.95886081,17.0855269 L7.58751219,19.1436962 L34.5786056,3.82773666 L61.568983,19.1436962 L65.1969182,17.0855269 L35.5339285,0.25279533 C35.237449,0.0837876873 34.9080273,-4.28775789e-15 34.5786056,-4.28775789e-15" id="Fill-27" fill="#00A79E"></path>
                <path d="M56.9822874,51.1469405 L56.9822874,29.9815978 L53.401617,32.0132701 L53.401617,51.1469405 C53.401617,51.8437389 53.0270789,52.4868273 52.4212295,52.8305717 L38.1594193,60.9236029 L38.1594193,65.0406578 L54.1893645,55.9443227 C55.911667,54.9667997 56.9822874,53.1284835 56.9822874,51.1469405" id="Fill-29" fill="#255755"></path>
                <path d="M69.1565668,60.3217639 L69.1565668,23.0727658 L65.5758964,25.1051544 L65.5758964,59.3635765 L38.1594193,74.9215893 L38.1594193,79.0386442 L68.1761792,62.0053951 C68.7820286,61.6609346 69.1565668,61.0185623 69.1565668,60.3217639" id="Fill-31" fill="#00A79E"></path>
                <path d="M3.5806704,59.3636481 L3.5806704,25.105226 L-3.21581842e-14,23.0728375 L-3.21581842e-14,60.3218355 C-3.21581842e-14,61.0186339 0.374538124,61.6610062 0.980387555,62.0047506 L30.9978636,79.0387158 L30.9978636,74.9216609 L3.5806704,59.3636481 Z" id="Fill-33" fill="#00A79E"></path>
                <path d="M34.5786056,14.5345857 C33.6261473,14.5345857 32.6851471,14.7830842 31.8558639,15.2528681 L16.2935542,24.0849498 L19.9207733,26.1431191 L33.6232828,18.3673353 C33.9197623,18.1990438 34.249184,18.1152561 34.5786056,18.1152561 C34.9080273,18.1152561 35.237449,18.1990438 35.5339285,18.3673353 L49.236438,26.1431191 L52.8636571,24.0849498 L37.2999151,15.252152 C36.4720642,14.7830842 35.5303478,14.5345857 34.5786056,14.5345857" id="Fill-35" fill="#255755"></path>
                <polygon id="Fill-37" fill="#84C3BE" points="34.5786056 50.2014287 27.1121917 45.9647794 27.1121917 37.7313859 34.5786056 41.967319 47.2505982 34.7766167 47.2505982 32.6726148 34.5786056 25.4811964 21.905897 32.6726148 21.905897 48.1074526 34.5786056 55.298871 47.2505982 48.1074526 47.2505982 43.0107264"></polygon>
                <path d="M14.9681332,55.9445375 L30.9980785,65.0408726 L30.9980785,60.9238178 L16.7355521,52.8300704 C16.1297027,52.4870422 15.7551646,51.8432376 15.7551646,51.1471553 L15.7551646,32.013485 L12.1744942,29.9818126 L12.1744942,51.1471553 C12.1744942,53.1279822 13.2451146,54.9670145 14.9681332,55.9445375" id="Fill-25" fill="#255755"></path>
            </g>
        </g>
    </g>
</svg>