<?xml version="1.0" encoding="UTF-8"?>
<svg width="70px" height="81px" viewBox="0 0 70 81" version="1.1" xmlns="http://www.w3.org/2000/svg" xmlns:xlink="http://www.w3.org/1999/xlink">
    <title>Prototype</title>
    <g id="Symbols" stroke="none" stroke-width="1" fill="none" fill-rule="evenodd">
        <g id="Branding-/-Imagotipos-/-Prototype" transform="translate(-5.000000, -5.000000)">
            <g id="Prototype" transform="translate(5.000000, 5.000000)">
                <path d="M35.0003446,77.3328331 L4.10098365,59.959886 L10.4006459,56.1554564 C10.7314816,55.9574158 10.8348677,55.5271895 10.6349878,55.2000809 C10.435108,54.8716066 10.0008862,54.7691718 9.67073975,54.9672124 L3.43931233,58.7306681 L3.43931233,21.4163913 L34.2966296,4.07076013 L34.2966296,11.4119229 C34.2966296,11.7936634 34.6143697,12.1077969 35.0003446,12.1077969 C35.3863196,12.1077969 35.7033704,11.7936634 35.7033704,11.4119229 L35.7033704,4.07076013 L66.5613769,21.4163913 L66.5613769,58.7306681 L60.3299495,54.9672124 C59.9991138,54.7623428 59.564892,54.8716066 59.3650122,55.2000809 C59.1651323,55.5271895 59.2685184,55.9574158 59.5993541,56.1554564 L65.8990164,59.959886 L35.0003446,77.3328331 Z M69.1322456,18.9367855 L35.8550034,0.225356625 C35.3311803,-0.075118875 34.6832938,-0.075118875 34.1525783,0.225356625 L0.875336005,18.9367855 C0.337728065,19.2379439 0,19.8047499 0,20.4193589 L0,60.581324 C0,61.1952501 0.330835655,61.7620561 0.875336005,62.0632145 L34.1525783,80.7746434 C34.4144898,80.9248811 34.7108634,81 35.0003446,81 C35.2898258,81 35.5861994,80.9248811 35.848111,80.7746434 L69.124664,62.0632145 C69.6629612,61.7620561 70,61.1952501 70,60.581324 L70,20.4193589 C70,19.8047499 69.6691643,19.2379439 69.1322456,18.9367855 L69.1322456,18.9367855 Z" id="Fill-1" fill="#EF4237"></path>
                <path d="M35.7005154,68.1950424 L35.7005154,60.4533103 C35.7005154,60.0703271 35.3813108,59.7557338 34.9927138,59.7557338 C34.6041168,59.7557338 34.2849122,60.0703271 34.2849122,60.4533103 L34.2849122,68.1950424 L11.2466627,55.309709 L11.2466627,27.5912991 L17.8666898,31.5647499 C17.9846568,31.6331398 18.1095629,31.6673347 18.2344691,31.6673347 C18.470403,31.6673347 18.7063369,31.551072 18.8381823,31.3329083 C19.03942,31.0039531 18.9353315,30.573097 18.6022484,30.3747664 L11.9197682,26.3602817 L34.9927138,13.4551152 L58.0656594,26.3602817 L51.3838731,30.3747664 C51.05079,30.573097 50.9467015,31.0039531 51.1479393,31.3329083 C51.2797847,31.551072 51.5157185,31.6673347 51.7509585,31.6673347 C51.8765586,31.6673347 52.0014648,31.6331398 52.1194317,31.5647499 L58.7394588,27.5912991 L58.7394588,55.309709 L35.7005154,68.1950424 Z M60.8073499,24.75312 L35.6796978,10.6990039 C35.2564046,10.4596394 34.7359622,10.4596394 34.3126691,10.6990039 L9.18571089,24.75312 C8.74853929,24.9993235 8.48484848,25.4506965 8.48484848,25.9431035 L8.48484848,56.1105543 C8.48484848,56.6029613 8.75547852,57.0543343 9.18571089,57.2998539 L34.3126691,71.3546539 C34.5277853,71.4709167 34.7637192,71.5324675 34.999653,71.5324675 C35.2355869,71.5324675 35.4715208,71.4709167 35.686637,71.3546539 L60.8142891,57.2998539 C61.2514607,57.0543343 61.5151515,56.6029613 61.5151515,56.1105543 L61.5151515,25.9431035 C61.5082123,25.4506965 61.2445215,24.9924845 60.8073499,24.75312 Z" id="Fill-3" fill="#F15B2B"></path>
                <polygon id="Fill-5" fill="#F89521" points="18.030303 30.4015428 35 21.038961 35 41.1309248 18.030303 50.4935065"></polygon>
                <polygon id="Fill-7" fill="#F89521" points="35.5299625 59.961039 51.969697 50.4935065 35.5299625 41.025974 19.0909091 50.4935065"></polygon>
                <polygon id="Fill-9" fill="#F89521" points="51.969697 30.4015428 35 21.038961 35 41.1309248 51.969697 50.4935065"></polygon>
                <path d="M35.5442195,59.5513517 L20.1518736,51.0194805 L35.5442195,42.4869295 L50.9358696,51.0194805 L35.5442195,59.5513517 Z M34.8483945,22.8813014 L34.8483945,41.3115028 L19.4421321,49.8569706 L19.4421321,31.4267691 L34.8483945,22.8813014 Z M51.6456112,49.8494924 L45.612808,46.5054068 L36.2330863,41.3047045 L36.2330863,22.8813014 L51.6386529,31.419291 L51.6386529,49.8494924 L51.6456112,49.8494924 Z M52.9676788,51.3050093 C52.9815953,51.2710178 53.00247,51.2370262 53.0094283,51.2030347 C53.0233448,51.1486483 53.030303,51.0874636 53.030303,51.0262788 L53.030303,31.0324675 C53.030303,30.7870488 52.8980963,30.5627047 52.6754323,30.4410151 L35.8782156,21.1266592 C35.8434243,21.1062642 35.8086331,21.0994659 35.7738418,21.0858693 C35.752967,21.079071 35.7320923,21.0661543 35.7112175,21.0586761 C35.6764263,21.0518778 35.641635,21.0450795 35.6068438,21.0450795 C35.5790108,21.0450795 35.558136,21.038961 35.530303,21.038961 C35.50247,21.038961 35.4815953,21.0450795 35.4537623,21.0450795 C35.418971,21.0518778 35.3841798,21.0518778 35.3493885,21.0586761 C35.3285138,21.0661543 35.307639,21.0722727 35.2867643,21.0858693 C35.251973,21.0994659 35.2171818,21.1062642 35.1823905,21.1266592 L18.384478,30.4410151 C18.1687722,30.5627047 18.030303,30.7870488 18.030303,31.0324675 L18.030303,51.0262788 C18.030303,51.0874636 18.0365655,51.1486483 18.050482,51.2030347 C18.058136,51.2370262 18.078315,51.2710178 18.0922315,51.3050093 C18.0998855,51.3254042 18.106148,51.3457991 18.1200645,51.3593957 C18.1409392,51.3933872 18.1687722,51.4205804 18.1903428,51.454572 C18.2042593,51.4681686 18.2105217,51.4885635 18.2244382,51.5021601 C18.2460088,51.522555 18.2801042,51.5429499 18.3079372,51.5633448 C18.328812,51.5769414 18.3503826,51.5973363 18.3705615,51.6109329 L18.3782156,51.6109329 L35.1754323,60.9252889 C35.279806,60.9857938 35.3980963,61.012987 35.5163865,61.012987 C35.6346768,61.012987 35.752967,60.9857938 35.8573408,60.9252889 L52.6545575,51.6109329 L52.6615158,51.6109329 C52.6823905,51.5973363 52.7032653,51.5776213 52.72414,51.5633448 C52.751973,51.5429499 52.779806,51.522555 52.807639,51.5021601 C52.8215555,51.4885635 52.835472,51.4681686 52.8424303,51.454572 C52.8702633,51.4273787 52.891138,51.3933872 52.9120128,51.3593957 C52.9537623,51.3457991 52.9607205,51.3254042 52.9676788,51.3050093 L52.9676788,51.3050093 Z" id="Fill-11" fill="#EF4237"></path>
            </g>
        </g>
    </g>
</svg>