<?xml version="1.0" encoding="UTF-8"?>
<svg width="20px" height="25px" viewBox="0 0 20 25" version="1.1" xmlns="http://www.w3.org/2000/svg" xmlns:xlink="http://www.w3.org/1999/xlink">
    <title>Combined Shape</title>
    <g id="Symbols" stroke="none" stroke-width="1" fill="none" fill-rule="evenodd">
        <g id="Iconos-/-Basicos-/-Pin" transform="translate(-5.000000, -3.000000)" fill="#F89521">
            <path d="M15.0002909,3 C18.3274902,3 21.3184497,4.58452148 23.20567,7.34672852 C25.0836201,10.0949707 25.5172457,13.5743164 24.3656102,16.6538574 C24.0607541,17.4865723 23.572714,18.3012695 22.9169403,19.0699219 L22.9169403,19.0699219 L15.6583339,27.6922852 C15.4941249,27.8875488 15.2535329,28 15.0002909,28 C14.7470489,28 14.5064569,27.8875 14.342248,27.6922852 L14.342248,27.6922852 L7.08161367,19.0675781 C6.42873694,18.3033203 5.94006918,17.4877441 5.63265415,16.648291 C4.48333617,13.5743164 4.91696181,10.0949707 6.79491185,7.34672852 C8.68213214,4.58452148 11.6730917,3 15.0002909,3 Z M15.0002909,4.74824219 C12.2492957,4.74824219 9.77664941,6.05771484 8.21678486,8.34091797 C6.66179684,10.6168457 6.30107786,13.4936035 7.25156827,16.0358398 C7.4889736,16.6844727 7.87277164,17.3196289 8.39369215,17.9300781 L8.39369215,17.9300781 L15.0002909,25.7776855 L21.602834,17.9350098 C21.6039928,17.933252 21.6054412,17.9317871 21.6068897,17.9303223 C22.1280999,17.3193359 22.511898,16.6841309 22.7469857,16.0416504 C23.6997937,13.4936035 23.338785,10.6168457 21.7835073,8.34091797 C20.2235945,6.05766602 17.7512379,4.74824219 15.0002909,4.74824219 Z M15.0002909,8.18647461 C17.6691575,8.18647461 19.8407138,10.3825684 19.8407138,13.0815918 C19.8407138,15.7809082 17.6694472,17.976709 15.0002909,17.976709 C12.3311346,17.976709 10.1598681,15.7809082 10.1598681,13.0815918 C10.1598681,10.3822754 12.3314243,8.18647461 15.0002909,8.18647461 Z M15.0002909,9.93466797 C13.284522,9.93466797 11.8885767,11.3463867 11.8885767,13.081543 C11.8885767,14.8166992 13.284522,16.228418 15.0002909,16.228418 C16.7160599,16.228418 18.1120051,14.8166992 18.1120051,13.081543 C18.1120051,11.3463867 16.7160599,9.93466797 15.0002909,9.93466797 Z" id="Combined-Shape"></path>
        </g>
    </g>
</svg>