<?xml version="1.0" encoding="UTF-8"?>
<svg width="25px" height="25px" viewBox="0 0 25 25" version="1.1" xmlns="http://www.w3.org/2000/svg" xmlns:xlink="http://www.w3.org/1999/xlink">
    <title>Combined Shape</title>
    <g id="Symbols" stroke="none" stroke-width="1" fill="none" fill-rule="evenodd">
        <g id="Iconos-/-Basicos-/-Calendar" transform="translate(-3.000000, -3.000000)" fill="#F89521">
            <path d="M21.8476562,3 C22.3870117,3 22.8242188,3.43720703 22.8242188,3.9765625 L22.8242188,3.9765625 L22.8242188,4.953125 L24.09375,4.953125 C26.2476563,4.953125 28,6.70546875 28,8.859375 L28,8.859375 L28,14.4257812 C28,14.9651367 27.562793,15.4023438 27.0234375,15.4023438 C26.484082,15.4023438 26.046875,14.9651367 26.046875,14.4257812 L26.046875,14.4257812 L26.046875,8.859375 C26.046875,7.78242187 25.1707031,6.90625 24.09375,6.90625 L24.09375,6.90625 L22.8242188,6.90625 L22.8242188,7.8828125 C22.8242188,8.42216797 22.3870117,8.859375 21.8476562,8.859375 C21.3083008,8.859375 20.8710938,8.42216797 20.8710938,7.8828125 L20.8710938,7.8828125 L20.8710938,6.90625 L16.4277344,6.90625 L16.4277344,7.8828125 C16.4277344,8.42216797 15.9905273,8.859375 15.4511719,8.859375 C14.9118164,8.859375 14.4746094,8.42216797 14.4746094,7.8828125 L14.4746094,7.8828125 L14.4746094,6.90625 L10.0800781,6.90625 L10.0800781,7.8828125 C10.0800781,8.42216797 9.64287109,8.859375 9.10351562,8.859375 C8.56416016,8.859375 8.12695312,8.42216797 8.12695312,7.8828125 L8.12695312,7.8828125 L8.12695312,6.90625 L6.90625,6.90625 C5.82929688,6.90625 4.953125,7.78242187 4.953125,8.859375 L4.953125,8.859375 L4.953125,24.09375 C4.953125,25.1707031 5.82929688,26.046875 6.90625,26.046875 L6.90625,26.046875 L14.3769531,26.046875 C14.9163086,26.046875 15.3535156,26.484082 15.3535156,27.0234375 C15.3535156,27.562793 14.9163086,28 14.3769531,28 L14.3769531,28 L6.90625,28 C4.75234375,28 3,26.2476563 3,24.09375 L3,24.09375 L3,8.859375 C3,6.70546875 4.75234375,4.953125 6.90625,4.953125 L6.90625,4.953125 L8.12695312,4.953125 L8.12695312,3.9765625 C8.12695312,3.43720703 8.56416016,3 9.10351562,3 C9.64287109,3 10.0800781,3.43720703 10.0800781,3.9765625 L10.0800781,3.9765625 L10.0800781,4.953125 L14.4746094,4.953125 L14.4746094,3.9765625 C14.4746094,3.43720703 14.9118164,3 15.4511719,3 C15.9905273,3 16.4277344,3.43720703 16.4277344,3.9765625 L16.4277344,3.9765625 L16.4277344,4.953125 L20.8710938,4.953125 L20.8710938,3.9765625 C20.8710938,3.43720703 21.3083008,3 21.8476562,3 Z M22.0917969,16.1835938 C25.3496094,16.1835938 28,18.8339844 28,22.0917969 C28,25.3496094 25.3496094,28 22.0917969,28 C18.8339844,28 16.1835938,25.3496094 16.1835938,22.0917969 C16.1835938,18.8339844 18.8339844,16.1835938 22.0917969,16.1835938 Z M22.0917969,18.1367188 C19.9109863,18.1367188 18.1367188,19.9109375 18.1367188,22.0917969 C18.1367188,24.2726562 19.9109863,26.046875 22.0917969,26.046875 C24.2726074,26.046875 26.046875,24.2726562 26.046875,22.0917969 C26.046875,19.9109375 24.2726074,18.1367188 22.0917969,18.1367188 Z M22.0917969,19.1132812 C22.6311523,19.1132812 23.0683594,19.5504883 23.0683594,20.0898438 L23.0683594,20.0898438 L23.0683594,21.1152344 L23.5078125,21.1152344 C24.047168,21.1152344 24.484375,21.5524414 24.484375,22.0917969 C24.484375,22.6311523 24.047168,23.0683594 23.5078125,23.0683594 L23.5078125,23.0683594 L22.0917969,23.0683594 C21.5524414,23.0683594 21.1152344,22.6311523 21.1152344,22.0917969 L21.1152344,22.0917969 L21.1152344,20.0898438 C21.1152344,19.5504883 21.5524414,19.1132812 22.0917969,19.1132812 Z M9.10351562,20.7734375 C9.6428562,20.7734375 10.0800781,21.2106594 10.0800781,21.75 C10.0800781,22.2893406 9.6428562,22.7265625 9.10351562,22.7265625 C8.56417505,22.7265625 8.12695312,22.2893406 8.12695312,21.75 C8.12695312,21.2106594 8.56417505,20.7734375 9.10351562,20.7734375 Z M13.3515625,20.7734375 C13.8909031,20.7734375 14.328125,21.2106594 14.328125,21.75 C14.328125,22.2893406 13.8909031,22.7265625 13.3515625,22.7265625 C12.8122219,22.7265625 12.375,22.2893406 12.375,21.75 C12.375,21.2106594 12.8122219,20.7734375 13.3515625,20.7734375 Z M13.3515625,16.5253906 C13.8909031,16.5253906 14.328125,16.9626125 14.328125,17.5019531 C14.328125,18.0412937 13.8909031,18.4785156 13.3515625,18.4785156 C12.8122219,18.4785156 12.375,18.0412937 12.375,17.5019531 C12.375,16.9626125 12.8122219,16.5253906 13.3515625,16.5253906 Z M9.10351562,16.5253906 C9.6428562,16.5253906 10.0800781,16.9626125 10.0800781,17.5019531 C10.0800781,18.0412937 9.6428562,18.4785156 9.10351562,18.4785156 C8.56417505,18.4785156 8.12695312,18.0412937 8.12695312,17.5019531 C8.12695312,16.9626125 8.56417505,16.5253906 9.10351562,16.5253906 Z M21.8476562,12.2773438 C22.3869968,12.2773438 22.8242188,12.7145657 22.8242188,13.2539062 C22.8242188,13.7932468 22.3869968,14.2304688 21.8476562,14.2304688 C21.3083157,14.2304688 20.8710938,13.7932468 20.8710938,13.2539062 C20.8710938,12.7145657 21.3083157,12.2773438 21.8476562,12.2773438 Z M17.5996094,12.2773438 C18.13895,12.2773438 18.5761719,12.7145657 18.5761719,13.2539062 C18.5761719,13.7932468 18.13895,14.2304688 17.5996094,14.2304688 C17.0602688,14.2304688 16.6230469,13.7932468 16.6230469,13.2539062 C16.6230469,12.7145657 17.0602688,12.2773438 17.5996094,12.2773438 Z M9.10351562,12.2773438 C9.6428562,12.2773438 10.0800781,12.7145657 10.0800781,13.2539062 C10.0800781,13.7932468 9.6428562,14.2304688 9.10351562,14.2304688 C8.56417505,14.2304688 8.12695312,13.7932468 8.12695312,13.2539062 C8.12695312,12.7145657 8.56417505,12.2773438 9.10351562,12.2773438 Z M13.3515625,12.2773438 C13.8909031,12.2773438 14.328125,12.7145657 14.328125,13.2539062 C14.328125,13.7932468 13.8909031,14.2304688 13.3515625,14.2304688 C12.8122219,14.2304688 12.375,13.7932468 12.375,13.2539062 C12.375,12.7145657 12.8122219,12.2773438 13.3515625,12.2773438 Z" id="Combined-Shape"></path>
        </g>
    </g>
</svg>