<?xml version="1.0" encoding="UTF-8"?>
<svg width="68px" height="74px" viewBox="0 0 68 74" version="1.1" xmlns="http://www.w3.org/2000/svg" xmlns:xlink="http://www.w3.org/1999/xlink">
    <title>009-volunteer</title>
    <g id="⚛️-Symbols" stroke="none" stroke-width="1" fill="none" fill-rule="evenodd">
        <g id="Ilustraciones-/-Logros-/-Categoria-/-Voluntariados" transform="translate(-6.000000, -2.000000)">
            <g id="009-volunteer" transform="translate(6.000000, 2.000000)">
                <path d="M3.74161118,51.0250646 L13.3921103,59.0114766 L22.283804,51.0250646 C23.3695965,49.6918419 24.3422287,48.0191385 24.6985111,46.0026463 C26.320953,36.8046445 29.6159546,34.6413886 26.7694293,33.5471235 C24.0696677,32.5115926 20.8247839,35.0941731 20.8247839,38.9216597 L20.8247839,20.0101165 C20.8247839,18.5302737 19.6131941,17.3186839 18.1333513,17.3186839 C16.6535085,17.3186839 15.4419187,18.5302737 15.4419187,20.0101165 L15.4419187,16.61014 C15.4419187,15.1259891 14.2303288,13.9143993 12.7504861,13.9143993 C11.2706433,13.9143993 10.0590535,15.1259891 10.0590535,16.61014 L10.0590535,18.5846998 C10.0590535,17.104857 8.84746362,15.8932671 7.36762086,15.8932671 C5.88361357,15.8932671 4.67202372,17.104857 4.67202372,18.5846998 L4.67202372,24.7599737 C4.67202372,23.5232531 3.66593169,22.512853 2.42921108,22.512853 C1.196655,22.512853 0.0815672672,23.5232531 0.0815672672,24.7599737 L0.0857317932,35.4840589 C0.123786944,41.2862488 0.312339448,47.381966 3.74161118,51.0250646 Z" id="Path" fill="#D19A6E"></path>
                <path d="M4.67231093,24.7599737 C4.67231093,23.5232531 3.6662189,22.512853 2.42949829,22.512853 C2.39173035,22.512853 2.35410601,22.5170175 2.31217354,22.5170175 L2.31217354,31.7569518 C2.31217354,33.3081659 4.67245453,33.3081659 4.67245453,31.7569518 L4.67245453,31.5933864 L4.67245453,24.7599737 L4.67231093,24.7599737 Z" id="Path" fill="#C38C66"></path>
                <path d="M10.0593407,30.9017879 L10.0593407,18.5846998 C10.0593407,17.2180172 9.02380975,16.0776551 7.69905968,15.9142334 L7.69905968,30.9019315 C7.69905968,31.5517412 8.22723646,32.079918 8.87704611,32.079918 C9.52685577,32.079918 10.0593407,31.5515976 10.0593407,30.9017879 L10.0593407,30.9017879 Z" id="Path" fill="#C38C66"></path>
                <path d="M15.4422059,30.2268475 L15.4422059,20.0101165 L15.4422059,16.61014 L15.4422059,16.5933383 C15.4338768,15.2308203 14.4025104,14.0989309 13.0819249,13.9353655 L13.0819249,30.2268475 C13.0819249,30.8766572 13.6144098,31.4091421 14.2640759,31.4091421 C14.909721,31.4091421 15.4422059,30.8766572 15.4422059,30.2268475 L15.4422059,30.2268475 Z" id="Path" fill="#C38C66"></path>
                <path d="M26.7695729,33.5471235 C25.9017719,33.2118074 24.9795448,33.2535963 24.1242373,33.589056 C26.777902,34.6958147 23.5456554,36.9261337 21.9443234,46.0026463 C21.4537709,48.7737793 19.8020338,50.9035753 18.2845667,52.3792536 L21.038898,52.3792536 C22.5565087,50.9035753 24.2082459,48.7737793 24.6986547,46.0026463 C26.320953,36.8046445 29.6160982,34.6413886 26.7695729,33.5471235 L26.7695729,33.5471235 Z" id="Path" fill="#C38C66"></path>
                <path d="M40.7088158,40.5735405 L51.8685965,45.6671865 L60.9824462,40.5735405 C62.1689053,39.1146639 63.2337315,37.2825597 63.6193092,35.0815359 C65.3968437,25.0240621 68.9980099,22.6554521 65.8872526,21.4606639 C62.9358961,20.3287745 59.3892996,23.1543336 59.3892996,27.3383897 L59.3892996,6.6616619 C59.3892996,5.04338455 58.0645495,3.71863448 56.4464158,3.71863448 C54.828282,3.71863448 53.503532,5.04338455 53.503532,6.6616619 L53.503532,2.94302742 C53.503532,1.32475007 52.1787819,-1.22444428e-14 50.5605046,-1.22444428e-14 C48.9380627,-1.22444428e-14 47.6133126,1.32475007 47.6133126,2.94302742 L47.6133126,5.10211873 C47.6133126,3.48384138 46.2885625,2.15909131 44.6704288,2.15909131 C43.052295,2.15909131 41.727545,3.48384138 41.727545,5.10211873 L41.727545,11.8518101 C41.727545,10.5060938 40.6249508,9.39933511 39.27507,9.39933511 C37.9251892,9.39933511 36.7052703,10.5060938 36.7052703,11.8518101 L36.7135993,23.5778228 C36.7513673,29.9249912 36.960886,36.5908176 40.7088158,40.5735405 L40.7088158,40.5735405 Z" id="Path" fill="#FFE4C1"></path>
                <path d="M41.727545,11.8518101 C41.727545,10.5060938 40.6249508,9.39933511 39.27507,9.39933511 C39.2331375,9.39933511 39.1912051,9.40349964 39.1492726,9.40349964 L39.1492726,19.5070705 C39.1492726,21.2007401 41.727545,21.2007401 41.727545,19.5070705 L41.727545,19.326847 L41.727545,11.8518101 Z" id="Path" fill="#F1D0A5"></path>
                <path d="M47.6134562,18.567898 L47.6134562,5.10211873 C47.6134562,3.60547426 46.4857313,2.36028099 45.0351838,2.18005754 L45.0351838,18.567898 C45.0351838,19.2806064 45.6137657,19.8591883 46.3263305,19.8591883 C47.0348743,19.8591883 47.6134562,19.2806064 47.6134562,18.567898 Z" id="Path" fill="#F1D0A5"></path>
                <path d="M53.503532,17.8342235 L53.503532,6.6616619 L53.503532,2.94302742 L53.503532,2.92622571 C53.4952029,1.43791029 52.367478,0.201189686 50.9210951,0.0209662342 L50.9210951,17.8342235 C50.9210951,18.5427673 51.5038415,19.1255137 52.2122417,19.1255137 C52.9207856,19.1255137 53.503532,18.5427673 53.503532,17.8342235 L53.503532,17.8342235 Z" id="Path" fill="#F1D0A5"></path>
                <path d="M65.8873962,21.4606639 C64.9398947,21.1000734 63.9296381,21.1420059 62.9947739,21.5109255 C65.8958688,22.7183508 62.3617659,25.1540241 60.6093621,35.0815359 C60.0768772,38.1084283 58.2700474,40.439414 56.6099811,42.0533832 L59.6242363,42.0533832 C61.280138,40.4392704 63.0869679,38.1084283 63.6194528,35.0815359 C65.3968437,25.0240621 68.9980099,22.6554521 65.8873962,21.4606639 Z" id="Path" fill="#F1D0A5"></path>
                <path d="M1.66222028,51.0250646 L23.4702631,51.0250646 C23.868478,51.0250646 24.1913005,51.3520517 24.1913005,51.7504101 L24.1913005,72.7792558 C24.1913005,73.1774707 23.868478,73.5046014 23.4702631,73.5046014 L1.66222028,73.5046014 C1.26400543,73.5046014 0.937018343,73.1776143 0.937018343,72.7792558 L0.937018343,51.7504101 C0.937018343,51.3520517 1.26400543,51.0250646 1.66222028,51.0250646 L1.66222028,51.0250646 Z" id="Path" fill="#C3DDFF"></path>
                <path d="M18.6995832,73.5044578 L23.4704067,73.5044578 C23.8686216,73.5044578 24.1914441,73.1774707 24.1914441,72.7791122 L24.1914441,51.7504101 C24.1914441,51.3521953 23.8686216,51.0250646 23.4704067,51.0250646 L22.2839476,51.0250646 L19.538089,51.0250646 L19.5297599,51.0250646 L18.6912542,51.0250646 C18.9302118,51.0250646 19.1440387,51.1466975 19.2781651,51.3269209 C19.3620301,51.4485538 19.4122916,51.5951739 19.4122916,51.7504101 L19.4122916,52.3792536 L19.4122916,72.7792558 C19.412148,73.1733061 19.0936335,73.5002932 18.6995832,73.5044578 Z" id="Path" fill="#9DC6FB"></path>
                <path d="M27.3732856,13.3987161 L32.1692399,8.64038615 L32.823214,7.99474103 C34.4371833,6.32203763 34.4371833,3.58852895 32.823214,1.91999008 C31.360173,0.402379371 28.9915629,0.779627982 27.4278552,2.19255112 C27.1386361,2.45247498 27.0379694,2.58243691 26.958269,2.58243691 C26.8828768,2.58243691 26.7780456,2.45247498 26.4886828,2.19255112 C24.9249751,0.779771587 22.5605296,0.402379371 21.093324,1.91999008 C19.4835193,3.58852895 19.4835193,6.32189402 21.093324,7.99474103 L21.7472982,8.64038615 L26.547417,13.3987161 C26.7527712,13.5622814 26.8576024,13.6503109 26.958269,13.6544754 C27.0631002,13.6503109 27.1677878,13.5622814 27.3732856,13.3987161 L27.3732856,13.3987161 Z" id="Path" fill="#FF8086"></path>
                <path d="M27.3732856,13.3987161 L32.1692399,8.64038615 L32.823214,7.99474103 C34.4371833,6.32203763 34.4371833,3.58852895 32.823214,1.91999008 C32.6596487,1.74809568 32.4835898,1.60133204 32.2992018,1.47984276 C31.4272362,0.897096335 30.3582455,0.817395925 29.3436808,1.1109232 C29.4358748,1.22824795 29.5239042,1.35404536 29.6036047,1.47984276 C30.6433001,3.14005258 30.4630766,5.40383146 29.0586262,6.85868706 L28.404652,7.50849672 L24.5016295,11.3738948 L26.547417,13.3988597 C26.7527712,13.562425 26.8576024,13.6504545 26.958269,13.654619 C27.0631002,13.6503109 27.1677878,13.5622814 27.3732856,13.3987161 L27.3732856,13.3987161 Z" id="Path" fill="#E5646E"></path>
                <path d="M38.461695,40.5735405 L62.2526266,40.5735405 C62.7012466,40.5735405 63.0701661,40.94246 63.0701661,41.3952445 L63.0701661,72.7037199 C63.0701661,73.1565044 62.7012466,73.525424 62.2526266,73.525424 L38.461695,73.525424 C38.0089105,73.525424 37.6441555,73.1565044 37.6441555,72.7037199 L37.6441555,41.3952445 C37.6441555,40.94246 38.0089105,40.5735405 38.461695,40.5735405 Z" id="Path" fill="#ECEAED"></path>
                <path d="M55.7421801,73.525424 L62.2527702,73.525424 C62.7013902,73.525424 63.0703098,73.1565044 63.0703098,72.7037199 L63.0703098,41.3952445 C63.0703098,40.94246 62.7013902,40.5735405 62.2527702,40.5735405 L60.9825898,40.5735405 L57.9809718,40.5735405 L57.9726428,40.5735405 L55.7298301,40.5735405 C56.1826146,40.5735405 56.5515342,40.94246 56.5515342,41.3952445 L56.5515342,72.7037199 C56.551247,73.1523399 56.1864919,73.5170949 55.7421801,73.525424 L55.7421801,73.525424 Z" id="Path" fill="#DAD8DB"></path>
                <path d="M58.3622413,68.6454612 L65.0866583,61.9796348 L66.0047209,61.0740658 C68.2643353,58.7305865 68.2643353,54.8987918 66.0047209,52.5593334 C63.9504608,50.4338455 60.6344929,50.9661868 58.4419418,52.9408902 C58.0352543,53.3056452 57.8927987,53.4900332 57.783803,53.4858686 C57.6748073,53.4900332 57.5322082,53.3056452 57.1256643,52.9408902 C54.9331132,50.9663304 51.6170017,50.4338455 49.5670497,52.5593334 C47.3074354,54.8986482 47.3074354,58.7304429 49.5670497,61.0740658 L50.4809477,61.9796348 L57.2053648,68.6454612 C57.4945839,68.8760898 57.6413475,69.0017436 57.7839467,69.0060517 C57.9304231,69.0018872 58.0730222,68.8760898 58.3622413,68.6454612 L58.3622413,68.6454612 Z" id="Path" fill="#FF8086"></path>
                <path d="M66.0047209,61.0742094 C68.2643353,58.7307301 68.2643353,54.8989354 66.0047209,52.559477 C65.1788523,51.7041695 64.1476295,51.2808239 63.0701661,51.2052881 C62.4454873,51.1633556 61.8041503,51.2388915 61.1753068,51.4149504 C61.187944,51.4232795 61.1962731,51.4359166 61.2089102,51.4442457 C63.4685246,53.787725 63.4685246,57.6195197 61.2089102,59.958978 L54.8241175,66.2851802 L57.2053648,68.6454612 C57.4945839,68.8760898 57.6413475,69.0017436 57.7839467,69.0060517 C57.9307103,69.0018872 58.0731658,68.8760898 58.3625286,68.6454612 L65.0869456,61.9796348 L66.0047209,61.0742094 Z" id="Path" fill="#E5646E"></path>
                <path d="M59.3892996,26.2296206 L59.3892996,6.6616619 C59.3892996,5.16501743 58.2574102,3.91982417 56.8068627,3.73960072 L56.8068627,27.3383897 C56.8068627,27.4100483 56.8143301,27.4799836 56.8256749,27.5486265 C54.859157,28.9240689 53.2457622,30.7491365 52.7733039,32.2582745 C52.5915008,32.8391541 52.8746886,33.4832196 53.4493931,33.6841221 C53.5718876,33.7269162 53.696249,33.747308 53.8183127,33.747308 C54.2986692,33.747308 54.741545,33.4328145 54.8828517,32.948437 C55.1882981,31.9019922 57.2224537,29.5835 59.171021,28.4743001 C59.3074451,28.3966101 59.389156,28.2491285 59.389156,28.0921689 L59.389156,26.2296206 L59.3892996,26.2296206 Z" id="Path" fill="#F1D0A5" fill-rule="nonzero"></path>
                <path d="M20.8249275,37.8131778 L20.8249275,20.0101165 C20.8249275,18.6434339 19.7937047,17.5030718 18.4646465,17.3396501 L18.4646465,38.6995038 C18.4646465,38.8377948 18.399881,38.9668951 18.2905981,39.051478 C17.1627295,39.9235872 15.0596439,42.1105378 14.6663116,43.4571157 C14.4945608,44.0453191 14.8321746,44.6613817 15.420378,44.8331325 C15.524204,44.863433 15.6288915,44.8779371 15.7318559,44.8779371 C16.2122124,44.8779371 16.6549446,44.5634436 16.7963949,44.0790661 C17.0695303,43.1436274 18.3112771,41.3701138 20.5759176,40.2221406 C20.727133,40.1454559 20.8247839,39.9930917 20.8247839,39.823495 L20.8247839,37.8131778 L20.8249275,37.8131778 Z" id="Path" fill="#C38C66" fill-rule="nonzero"></path>
            </g>
        </g>
    </g>
</svg>