<?xml version="1.0" encoding="UTF-8"?>
<svg width="41px" height="48px" viewBox="0 0 41 48" version="1.1" xmlns="http://www.w3.org/2000/svg" xmlns:xlink="http://www.w3.org/1999/xlink">
    <title>Rewards / Medallas / Tercero</title>
    <g id="📌-Módulos---Mockups" stroke="none" stroke-width="1" fill="none" fill-rule="evenodd">
        <g id="Dashboard-/-07_Rebooters-/-01_General" transform="translate(-567.000000, -456.000000)" fill-rule="nonzero">
            <g id="Rebooters" transform="translate(184.000000, 96.000000)">
                <g id="Primeros" transform="translate(33.000000, 169.000000)">
                    <g id="Segundo" transform="translate(258.500000, 0.000000)">
                        <g id="003-silver-medal" transform="translate(92.000000, 191.000000)">
                            <path d="M22.3499065,27.9107788 L12.0760125,21.7121495 C11.7310903,21.5028037 11.3123988,21.4449844 10.9196262,21.5466667 C10.5268536,21.6503427 10.1938941,21.9095327 9.9965109,22.2644237 L0.280872274,39.7398131 C0.0137071651,40.2203115 0.0316510903,40.8104673 0.328722741,41.2730218 C0.625794393,41.7355763 1.15214953,41.9987539 1.70242991,41.9568847 L7.84124611,41.4843614 L10.5647352,47.0150779 C10.8099688,47.5135202 11.310405,47.8345171 11.8646729,47.8484735 L11.9065421,47.8484735 C12.4448598,47.8484735 12.945296,47.5593769 13.2084735,47.0868536 L22.8802492,29.9224922 C23.2770093,29.2186916 23.0437383,28.3274766 22.3499065,27.9107788 Z" id="Path" fill="#388E3C"></path>
                            <path d="M11.3044237,21.4968224 C11.1748287,21.4968224 11.0452336,21.5127726 10.9196262,21.5466667 C10.5268536,21.6503427 10.1938941,21.9095327 9.9965109,22.2644237 L0.280872274,39.7398131 C0.0137071651,40.2203115 0.0316510903,40.8104673 0.328722741,41.2730218 C0.605856698,41.703676 1.08037383,41.9608723 1.58679128,41.9608723 C1.6246729,41.9608723 1.66255452,41.9588785 1.70043614,41.9568847 L7.83925234,41.4843614 L17.2917134,24.8603115 L12.0760125,21.7121495 C11.8407477,21.5705919 11.5735826,21.4968224 11.3044237,21.4968224 Z" id="Path" fill="#317C34"></path>
                            <path d="M28.0161994,47.8504673 C27.4758879,47.8504673 26.9794393,47.5593769 26.7142679,47.0888474 L15.1165109,26.543053 C14.8832399,26.1323364 14.8593146,25.6358879 15.0487227,25.2032399 C15.2401246,24.7705919 15.6229283,24.4535826 16.0834891,24.3479128 L28.2893458,21.552648 C28.9373209,21.4090966 29.6012461,21.7001869 29.9262305,22.2743925 L39.7754517,39.7398131 C40.0466044,40.2203115 40.0306542,40.8124611 39.7355763,41.2770093 C39.4385047,41.7415576 38.9101558,42.0127103 38.3598754,41.9648598 L32.0994393,41.4823676 L29.3580062,47.0170717 C29.1127726,47.5135202 28.6123364,47.8325234 28.0580685,47.8464798 L28.0161994,47.8504673 Z" id="Path" fill="#4CAF50"></path>
                            <path d="M22.6449844,22.8446106 L16.0834891,24.3479128 C15.6229283,24.4535826 15.2401246,24.7705919 15.0487227,25.2032399 C14.8593146,25.6358879 14.8832399,26.1323364 15.1165109,26.543053 L26.7122741,47.0908411 C26.9794393,47.5593769 27.4758879,47.8504673 28.0161994,47.8504673 L28.0560748,47.8504673 C28.6103427,47.8365109 29.1107788,47.5175078 29.3560125,47.0210592 L32.0974455,41.4863551 L22.6449844,22.8446106 Z" id="Path" fill="#429846"></path>
                            <path d="M15.8641745,27.9127726 C15.3557632,27.9127726 14.847352,27.8150779 14.3728349,27.6176947 C13.3799377,27.2069782 12.5923988,26.3935202 12.2155763,25.3866667 L11.3742056,23.1456698 C11.2824922,22.9004361 11.0890966,22.7070405 10.8438629,22.6153271 L8.60286604,21.7719626 C7.59800623,21.3951402 6.78454829,20.609595 6.37383178,19.614704 C5.96311526,18.6198131 5.98105919,17.4913396 6.42566978,16.5123988 L7.41457944,14.3332087 C7.52423676,14.0939564 7.52423676,13.8228037 7.41457944,13.5855452 L6.42566978,11.4023676 C5.98105919,10.4234268 5.9611215,9.2929595 6.37183801,8.30006231 C6.78255452,7.30716511 7.59800623,6.51962617 8.60485981,6.14280374 L10.8458567,5.30143302 C11.0910903,5.20971963 11.284486,5.01632399 11.3761994,4.77109034 L12.2155763,2.53009346 C12.5943925,1.52323988 13.3799377,0.709781931 14.3728349,0.299065421 C15.3617445,-0.115638629 16.4961994,-0.0957009346 17.477134,0.350903427 L19.6583178,1.33981308 C19.8955763,1.4494704 20.1687227,1.44747664 20.4059813,1.34180685 L20.4059813,1.33981308 L22.5871651,0.348909657 C23.5641121,-0.097694704 24.698567,-0.115638629 25.6914642,0.297071651 C26.6843614,0.707788162 27.4719003,1.52124611 27.8487227,2.52809969 L28.6900935,4.76909657 C28.7818069,5.01433022 28.9752025,5.20772586 29.2204361,5.29943925 L31.4634268,6.14080997 C32.4682866,6.5176324 33.2817445,7.30517134 33.6924611,8.29806854 C34.1031776,9.29096573 34.0832399,10.421433 33.6406231,11.4023676 L32.6517134,13.5815576 C32.5420561,13.82081 32.5420561,14.0919626 32.6517134,14.331215 L33.6406231,16.5123988 C34.0852336,17.4913396 34.1031776,18.6218069 33.6924611,19.614704 C33.2817445,20.6076012 32.4682866,21.3951402 31.461433,21.7719626 L29.2204361,22.6133333 C28.9752025,22.7050467 28.7818069,22.8984424 28.6900935,23.143676 L27.8487227,25.3866667 C27.4719003,26.3915265 26.6843614,27.2069782 25.6914642,27.6176947 C24.7005607,28.0284112 23.5661059,28.0104673 22.5871651,27.5658567 L20.4059813,26.576947 C20.1687227,26.4672897 19.8955763,26.4692835 19.6583178,26.576947 L17.477134,27.5678505 C16.966729,27.7951402 16.4144548,27.9127726 15.8641745,27.9127726 L15.8641745,27.9127726 Z" id="Path" fill="#FFC107"></path>
                            <path d="M22.5233645,21.9314642 L17.5389408,21.9314642 C16.7135202,21.9314642 16.0436137,21.2635514 16.0436137,20.4361371 L16.0436137,17.6966978 C16.0436137,15.36 17.8320249,13.4599377 20.0311526,13.4599377 C20.5734579,13.4599377 21.0280374,12.8897196 21.0280374,12.2138318 C21.0280374,11.5379439 20.5734579,10.9677259 20.0311526,10.9677259 L17.5389408,10.9677259 C16.7135202,10.9677259 16.0436137,10.2978193 16.0436137,9.47239875 C16.0436137,8.64697819 16.7135202,7.97507788 17.5389408,7.97507788 L20.0311526,7.97507788 C22.2302804,7.97507788 24.0186916,9.87514019 24.0186916,12.211838 C24.0186916,14.5485358 22.2302804,16.4485981 20.0311526,16.4485981 C19.4908411,16.4485981 19.0342679,17.0188162 19.0342679,17.694704 L19.0342679,18.94081 L22.5233645,18.94081 C23.348785,18.94081 24.0186916,19.6107165 24.0186916,20.4361371 C24.0186916,21.2635514 23.348785,21.9314642 22.5233645,21.9314642 Z" id="Path" fill="#FF8F00"></path>
                            <path d="M20.0311526,16.4485981 C19.4908411,16.4485981 19.0342679,17.0188162 19.0342679,17.694704 L19.0342679,18.94081 L20.0311526,18.94081 L20.0311526,16.4485981 Z M15.8621807,0.00199376947 C15.3537695,0.00199376947 14.847352,0.101682243 14.3728349,0.299065421 C13.3799377,0.709781931 12.5943925,1.52323988 12.2155763,2.53009346 L11.3742056,4.77308411 C11.2824922,5.01632399 11.0910903,5.20971963 10.8458567,5.30143302 L8.60485981,6.14280374 C7.59800623,6.51962617 6.78255452,7.30716511 6.37183801,8.30006231 C5.9611215,9.2929595 5.98105919,10.4234268 6.42566978,11.4023676 L7.41457944,13.5835514 C7.52423676,13.82081 7.52423676,14.0939564 7.41457944,14.331215 L6.42566978,16.5123988 C5.98105919,17.4913396 5.9611215,18.6218069 6.37183801,19.614704 C6.78255452,20.6076012 7.59601246,21.3951402 8.60087227,21.7719626 L10.8438629,22.6133333 C11.0890966,22.7050467 11.2824922,22.8984424 11.3742056,23.143676 L12.2155763,25.3846729 C12.5923988,26.3915265 13.3799377,27.2049844 14.3728349,27.6157009 C14.847352,27.8130841 15.3557632,27.9127726 15.8641745,27.9127726 C16.4124611,27.9127726 16.966729,27.797134 17.477134,27.5658567 L19.6583178,26.5749533 C19.7779439,26.5211215 19.9055452,26.4952025 20.0311526,26.4952025 L20.0311526,21.9314642 L17.5389408,21.9314642 C16.7135202,21.9314642 16.0436137,21.2635514 16.0436137,20.4361371 L16.0436137,17.6966978 C16.0436137,15.36 17.8320249,13.4599377 20.0311526,13.4599377 L20.0311526,10.9677259 L17.5389408,10.9677259 C16.7135202,10.9677259 16.0436137,10.2978193 16.0436137,9.47239875 C16.0436137,8.64697819 16.7135202,7.97507788 17.5389408,7.97507788 L20.0311526,7.97507788 L20.0311526,1.42155763 C19.9035514,1.42155763 19.7759502,1.39364486 19.6583178,1.33981308 L17.477134,0.350903427 C16.966729,0.119626168 16.4144548,0.00199376947 15.8621807,0.00199376947 L15.8621807,0.00199376947 Z" id="Shape" fill="#DEA806"></path>
                            <path d="M20.0311526,13.4579439 C17.8320249,13.4579439 16.0436137,15.3580062 16.0436137,17.694704 L16.0436137,20.4361371 C16.0436137,21.2615576 16.7135202,21.9314642 17.5389408,21.9314642 L20.0311526,21.9314642 L20.0311526,18.94081 L19.0342679,18.94081 L19.0342679,17.6966978 C19.0342679,17.02081 19.4908411,16.4505919 20.0311526,16.4505919 L20.0311526,13.4579439 Z M20.0311526,7.97507788 L17.5389408,7.97507788 C16.7135202,7.97507788 16.0436137,8.64498442 16.0436137,9.47239875 C16.0436137,10.2998131 16.7135202,10.9677259 17.5389408,10.9677259 L20.0311526,10.9677259 L20.0311526,7.97507788 Z" id="Shape" fill="#DE7C00"></path>
                        </g>
                    </g>
                </g>
            </g>
        </g>
    </g>
</svg>