<?xml version="1.0" encoding="UTF-8"?>
<svg width="25px" height="21px" viewBox="0 0 25 21" version="1.1" xmlns="http://www.w3.org/2000/svg" xmlns:xlink="http://www.w3.org/1999/xlink">
    <title>Path</title>
    <g id="Symbols" stroke="none" stroke-width="1" fill="none" fill-rule="evenodd">
        <g id="Iconos-/-Basicos-/-Back" transform="translate(-3.000000, -5.000000)" fill="#282d30">
            <path d="M26.9583333,14.3752539 L6.17760417,14.3752539 L14.1348958,6.79608726 C14.5515625,6.39921226 14.5677083,5.73983726 14.1708333,5.32317059 C13.7744792,4.90702476 13.1151042,4.89035809 12.6979167,5.28723309 L3.61041667,13.9434831 C3.2171875,14.3372331 3,14.8601498 3,15.4169206 C3,15.9731706 3.2171875,16.4966081 3.62864583,16.9075456 L12.6984375,25.5460873 C12.9,25.7382748 13.1583333,25.8335873 13.4166667,25.8335873 C13.6916667,25.8335873 13.9666667,25.7252539 14.1713542,25.5101498 C14.5682292,25.0934831 14.5520833,24.4346289 14.1354167,24.0377539 L6.14479167,16.4585873 L26.9583333,16.4585873 C27.5333333,16.4585873 28,15.9919206 28,15.4169206 C28,14.8419206 27.5333333,14.3752539 26.9583333,14.3752539 L26.9583333,14.3752539 Z" id="Path"></path>
        </g>
    </g>
</svg>