<?xml version="1.0" encoding="UTF-8"?>
<svg width="19px" height="25px" viewBox="0 0 19 25" version="1.1" xmlns="http://www.w3.org/2000/svg" xmlns:xlink="http://www.w3.org/1999/xlink">
    <title>Combined Shape</title>
    <g id="âš›ï¸-Symbols" stroke="none" stroke-width="1" fill="none" fill-rule="evenodd">
        <g id="Iconos-/-Basicos-/-Bloqueado" transform="translate(-6.000000, -3.000000)" fill="#949396">
            <path d="M15.5,3 C18.9978034,3 21.8333333,5.79822031 21.8333333,9.25 L21.8333333,15.5 C23.582235,15.5 25,16.8991102 25,18.625 L25,24.875 C25,26.6008898 23.582235,28 21.8333333,28 L9.16666667,28 C7.41776496,28 6,26.6008898 6,24.875 L6,18.625 C6,16.8991102 7.41776496,15.5 9.16666667,15.5 L9.16666667,9.25 C9.16666667,5.79822031 12.0021966,3 15.5,3 Z M21.8333333,17.5833333 L9.16666667,17.5833333 C8.58369943,17.5833333 8.11111111,18.0497034 8.11111111,18.625 L8.11111111,24.875 C8.11111111,25.4502966 8.58369943,25.9166667 9.16666667,25.9166667 L21.8333333,25.9166667 C22.4163006,25.9166667 22.8888889,25.4502966 22.8888889,24.875 L22.8888889,18.625 C22.8888889,18.0497034 22.4163006,17.5833333 21.8333333,17.5833333 Z M15.5,18.625 C16.6659345,18.625 17.6111111,19.5577401 17.6111111,20.7083333 C17.6111111,21.4792953 17.1867503,22.1524467 16.5559617,22.5127219 L16.5555556,23.8333333 C16.5555556,24.4086299 16.0829672,24.875 15.5,24.875 C14.9170328,24.875 14.4444444,24.4086299 14.4444444,23.8333333 L14.4440383,22.5127219 C13.8132497,22.1524467 13.3888889,21.4792953 13.3888889,20.7083333 C13.3888889,19.5577401 14.3340655,18.625 15.5,18.625 Z M15.5,5.08333333 C13.1681311,5.08333333 11.2777778,6.94881354 11.2777778,9.25 L11.277,15.5 L19.722,15.5 L19.7222222,9.25 C19.7222222,6.94881354 17.8318689,5.08333333 15.5,5.08333333 Z" id="Combined-Shape"></path>
        </g>
    </g>
</svg>