<?xml version="1.0" encoding="UTF-8"?>
<svg width="70px" height="80px" viewBox="0 0 70 80" version="1.1" xmlns="http://www.w3.org/2000/svg" xmlns:xlink="http://www.w3.org/1999/xlink">
    <title>Nova</title>
    <g id="Symbols" stroke="none" stroke-width="1" fill="none" fill-rule="evenodd">
        <g id="Branding-/-Imagotipos-/-Nova" transform="translate(-5.000000, -5.000000)">
            <g id="Nova" transform="translate(5.000000, 5.000000)">
                <path d="M67.3245309,19.2197843 L42.1370517,33.6242125 L45.7043438,35.6640309 L66.4327079,23.8092012 L66.4327079,55.6823242 L2.67476408,19.2197843 C2.1234553,18.9041397 1.4431318,18.9041397 0.891823025,19.2197843 C0.339104249,19.5354289 0,20.1185335 0,20.7491244 L0,58.742401 C0,59.3729919 0.339104249,59.9560965 0.891823025,60.2717411 C1.4431318,60.5873857 2.1234553,60.5873857 2.67476408,60.2717411 L27.8460283,45.8770896 L24.2787362,43.8372711 L3.5665871,55.6823242 L3.5665871,23.8092012 L67.3245309,60.2717411 C67.8765447,60.5873857 68.5561632,60.5873857 69.108177,60.2717411 C69.6601908,59.9560965 70,59.3729919 70,58.742401 L70,20.7491244 C70,20.1185335 69.6601908,19.5354289 69.108177,19.2197843 C68.5561632,18.9041397 67.8765447,18.9041397 67.3245309,19.2197843" id="Fill-11" fill="#49C0E0"></path>
                <path d="M58.1244936,62.7803741 L37.3773725,74.8538168 L37.3773725,50.7218694 L33.8062451,48.6440678 L33.8062451,74.8538168 L13.0619471,62.7817968 L9.49152542,64.8603097 L33.8062451,79.0087086 C34.9107539,79.6524644 36.272158,79.6524644 37.3773725,79.0087086 L61.6949153,64.8581757 L58.1244936,62.7803741 Z" id="Fill-13" fill="#0070B9"></path>
                <path d="M33.8127414,0.481991525 L9.49152542,14.6268077 L13.0623632,16.7033523 L33.8127414,4.63508075 L33.8127414,28.770913 L37.3835791,30.8474576 L37.3835791,4.63508075 L58.1247832,16.698376 L61.6949153,14.6218314 L37.3835791,0.481991525 C36.2784542,-0.160663842 34.9171605,-0.160663842 33.8127414,0.481991525" id="Fill-15" fill="#0070B9"></path>
            </g>
        </g>
    </g>
</svg>