<?xml version="1.0" encoding="UTF-8"?>
<svg width="40px" height="40px" viewBox="0 0 40 40" version="1.1" xmlns="http://www.w3.org/2000/svg" xmlns:xlink="http://www.w3.org/1999/xlink">
    <title>76CB0396-7340-409D-A649-49280A1EEED6@1.00x</title>
    <g id="✅-Final" stroke="none" stroke-width="1" fill="none" fill-rule="evenodd">
        <g id="Prototype" transform="translate(-856.000000, -688.000000)" fill-rule="nonzero">
            <g id="Path-de-carrera" transform="translate(840.000000, 672.000000)">
                <g id="008-promotion" transform="translate(16.000000, 16.000000)">
                    <path d="M16.0650781,7.41980507 C14.5867187,9.23212476 12.6160156,10.5320078 10.3659375,11.1789474 C9.6303125,11.3904094 9.20578125,12.1569591 9.41765625,12.8910721 C9.6175,13.5834698 10.3119531,13.9996101 11.0073437,13.8674464 C11.0492969,13.8594932 11.0914062,13.8495127 11.1332031,13.8375049 C12.278125,13.5083041 13.3646875,13.042963 14.375,12.4536452 L16.0650781,7.41980507 Z" id="XMLID_2497_" fill="#00CCF2"></path>
                    <path d="M20.0096094,15.9270175 L21.5186719,11.6247173 C21.9739062,11.6953606 22.43125,11.73154 22.886875,11.73154 C24.94125,11.73154 26.9592187,11.0216764 28.58125,9.67703704 L28.7673437,9.52272904 C29.3453125,9.0434308 29.4642969,8.18666667 29.005,7.59298246 C28.5228125,6.96974659 27.6232812,6.87446394 27.0214844,7.37348928 L26.8099219,7.54892788 C26.4489062,7.84826511 26.059375,8.10191033 25.6497656,8.30814815 C24.0521875,9.11251462 22.1323437,8.69606238 20.9150781,7.3871345 C20.3194531,6.74666667 19.4679687,6.33996101 18.5085156,6.33996101 L18.5085156,6.33996101 C17.0126562,6.33996101 15.7057031,7.34846004 15.3291406,8.79329435 L13.4697656,15.9270175 L20.0096094,15.9270175 Z" id="XMLID_2465_" fill="#00CCF2"></path>
                    <path d="M13.4696094,15.9270175 L8.00679688,30.2237037 C7.65195313,31.1522807 8.25671875,32.168499 9.24351563,32.3018324 L9.28,32.3067446 C9.95539063,32.3979727 10.6060156,32.0561404 10.9090625,31.4563743 C12.4539844,28.3992203 17.0146875,19.3995322 17.0146875,19.3995322 L18.866875,19.3995322 L17.9223438,25.3263938 C17.7825,26.2036647 18.4617188,26.9978947 19.3517188,26.9978947 L19.3517188,26.9978947 C20.0016406,26.9978947 20.571875,26.5655361 20.7460938,25.9406628 L22.52125,19.5745029 C23.0324219,17.7414425 21.6513281,15.9270175 19.7448438,15.9270175 L18.8992969,15.9270175 L13.4696094,15.9270175 Z" id="XMLID_1201_" fill="#FFBE52"></path>
                    <g id="XMLID_2445_" transform="translate(10.468750, 17.309942)" fill="#FF6371">
                        <polygon id="XMLID_2448_" points="28.7496875 0.0335282651 22.0165625 1.38596491 23.4799219 2.84647173 18.7999219 7.51734893 15.4799219 4.20374269 0.0546875 19.5990643 2.29546875 21.8353996 15.4799219 8.67672515 18.7999219 11.9903314 25.7208594 5.08296296 27.3946094 6.75352827"></polygon>
                        <polygon id="XMLID_2446_" points="28.7496875 0.0335282651 22.0165625 1.38596491 23.4799219 2.84647173 18.7999219 7.51734893 15.4799219 4.20374269 0.0546875 19.5990643 2.29546875 21.8353996 15.4799219 8.67672515 18.7999219 11.9903314 25.7208594 5.08296296 27.3946094 6.75352827"></polygon>
                    </g>
                    <ellipse id="XMLID_2427_" fill="#FED2A4" cx="20.535625" cy="3.55984405" rx="2.78554687" ry="2.78011696"></ellipse>
                    <g id="XMLID_1020_" transform="translate(0.781250, 10.058480)">
                        <path d="M6.0746875,11.719922 L0.30078125,5.95727096 C-0.095859375,5.56140351 -0.095859375,4.91961014 0.30078125,4.52374269 L4.49195313,0.340740741 C4.88859375,-0.0551267057 5.53164063,-0.0551267057 5.92828125,0.340740741 L11.7021875,6.10339181 C12.0988281,6.49925926 12.0988281,7.14105263 11.7021875,7.53692008 L7.51101563,11.719922 C7.114375,12.1157115 6.47132812,12.1157115 6.0746875,11.719922 Z" id="XMLID_1033_" fill="#FF9357"></path>
                        <path d="M5.14640625,6.93208577 L4.9075,6.69364522 C4.4878125,6.27477583 4.4878125,5.5957115 4.9075,5.17692008 L5.90625,4.18011696 L7.66484375,5.93528265 L6.66609375,6.93208577 C6.24640625,7.35087719 5.56601563,7.35087719 5.14640625,6.93208577 Z" id="XMLID_1031_" fill="#FFFFFF"></path>
                    </g>
                    <g id="XMLID_1850_" fill="#000000">
                        <path d="M39.7708594,16.7920468 C39.5859375,16.6075634 39.3203906,16.5276413 39.0642969,16.5790253 L32.3311719,17.931462 C32.0489063,17.9882261 31.8207031,18.1953216 31.7374219,18.4703314 C31.6541406,18.7454191 31.7292188,19.0439766 31.9328125,19.2472515 L32.84375,20.1564133 L29.2685938,23.7246004 L26.5009375,20.9623392 C26.354375,20.8161404 26.1557031,20.7339571 25.9485156,20.7339571 C25.7413281,20.7339571 25.5426563,20.8161404 25.3960937,20.9623392 L22,24.3518908 L23.2739062,19.7834698 C23.5835937,18.6729045 23.3604687,17.5095517 22.6617969,16.5915789 C22.2338281,16.0293957 21.6688281,15.6148928 21.0300781,15.3773879 L22.0484375,12.4739961 C22.3294531,12.4986355 22.6097656,12.5111891 22.886875,12.5111891 C25.1428125,12.5111891 27.3423437,11.7175828 29.0803906,10.2767251 L29.2665625,10.1224172 C30.1828906,9.3625731 30.3394531,8.04210526 29.6232031,7.11641326 C29.26,6.64693957 28.7351562,6.35251462 28.1453125,6.28748538 C27.5552344,6.22237817 26.9786719,6.39516569 26.5221094,6.7737232 L26.310625,6.94908382 C25.9989844,7.20740741 25.6582031,7.43048733 25.2977344,7.61192982 C24.0930469,8.21840156 22.5886719,7.94830409 21.5890625,6.96093567 C23.043125,6.511423 24.1023438,5.15672515 24.1023438,3.55968811 C24.1024219,1.59688109 22.5023437,0 20.535625,0 C18.5688281,0 16.9688281,1.59688109 16.9688281,3.55976608 C16.9688281,4.34089669 17.2228125,5.06354776 17.6517969,5.6511501 C16.8403906,5.82549708 16.1101562,6.24304094 15.5514062,6.83337232 C15.5188281,6.86191033 15.4875781,6.89278752 15.4592969,6.92756335 C14.0820312,8.61598441 12.2459375,9.82705653 10.1496094,10.4297076 C9.58203125,10.5929825 9.1328125,10.9691228 8.86320312,11.4460039 L7.26195312,9.84787524 C6.56132812,9.14869396 5.42148437,9.14877193 4.72078125,9.84787524 L2.62523437,11.9394152 L2.62523437,11.9394152 L2.62523437,11.9394152 L0.5296875,14.0308772 C0.190234375,14.3695906 0.003359375,14.819883 0.003359375,15.2990253 C0.003359375,15.7780897 0.1903125,16.2283821 0.529609375,16.5671735 L6.3034375,22.3297466 C6.64289062,22.66846 7.0940625,22.8549708 7.5740625,22.8549708 C8.05414062,22.8549708 8.5053125,22.6683821 8.8446875,22.3297466 L11.0144531,20.1642105 L9.985625,22.8567641 C9.831875,23.2591033 10.0340625,23.7097076 10.4371875,23.8631579 C10.5288281,23.8980117 10.6228906,23.9145419 10.7154687,23.9145419 C11.0301562,23.9145419 11.3267969,23.7233528 11.445625,23.4124756 L14.0079687,16.7067446 L18.899375,16.7067446 L19.7449219,16.7067446 C20.4073437,16.7067446 21.0169531,17.008655 21.4176562,17.5350487 C21.8183594,18.0614425 21.9463281,18.728577 21.7686719,19.3653801 L19.9934375,25.73154 C19.9135937,26.0180117 19.6496875,26.2180897 19.3517187,26.2180897 C19.084375,26.2180897 18.9195312,26.0719688 18.8450781,25.9848733 C18.770625,25.8977778 18.651875,25.7122807 18.6938281,25.4488889 L19.6384375,19.5220273 C19.674375,19.2966082 19.6095312,19.0669006 19.4610937,18.8933333 C19.3126562,18.7197661 19.0954687,18.6198051 18.866875,18.6198051 L17.0146875,18.6198051 C16.7200781,18.6198051 16.4504687,18.7851852 16.3175,19.0475634 C16.271875,19.1375439 11.7389844,28.0826511 10.2114844,31.1051852 C10.0585937,31.4078752 9.72617187,31.5805848 9.3853125,31.5340351 L9.34828125,31.5290448 C9.11570312,31.4976998 8.91367187,31.3642105 8.79375,31.162807 C8.67382812,30.9614035 8.653125,30.7203899 8.73679687,30.5015984 L9.21820312,29.2417934 C9.37195312,28.8394542 9.16976562,28.3889279 8.76664062,28.2353996 C8.36359375,28.0819493 7.91210937,28.2838207 7.75828125,28.6860819 L7.276875,29.9458869 C7.02226562,30.6122417 7.08554687,31.3460429 7.45046875,31.9592203 C7.81539062,32.5723197 8.43078125,32.9788694 9.13828125,33.0744639 L9.1753125,33.0793762 C9.28242187,33.0939571 9.38914062,33.1008967 9.49515625,33.1008967 C10.3796875,33.1008967 11.2023437,32.6076413 11.6066406,31.8074854 C12.9408594,29.1673294 16.5694531,22.005848 17.4950781,20.1792593 L17.9515625,20.1792593 L17.1507812,25.2038986 C17.0482031,25.8477193 17.2325781,26.5014425 17.6567187,26.997271 C17.9295312,27.3162573 18.2828125,27.5471345 18.6739062,27.6716569 L9.97101562,36.3575828 C9.82453125,36.5038596 9.7421875,36.7021442 9.7421875,36.9089279 C9.7421875,37.1157115 9.82453125,37.3140741 9.97101562,37.4602729 L12.211875,39.6966862 C12.3644531,39.8488889 12.564375,39.9250682 12.7642969,39.9250682 C12.9642188,39.9250682 13.1641406,39.8488889 13.3167188,39.6966862 L17.6246094,35.397193 C17.9296875,35.0927096 17.9296875,34.5989864 17.6246094,34.294425 C17.3194531,33.9900195 16.8249219,33.9900195 16.5196875,34.294425 L12.7642969,38.0425731 L11.6283594,36.9088499 L25.9486719,22.6162963 L28.7163281,25.3785575 C28.8628906,25.5247563 29.0615625,25.6069396 29.26875,25.6069396 C29.4759375,25.6069396 29.6746094,25.5247563 29.8211719,25.3785575 L34.5010938,20.7076803 C34.8061719,20.4031969 34.8061719,19.9094737 34.5010938,19.6049123 L34.0684375,19.1730994 L38.2207031,18.3391033 L37.3850781,22.4832749 L36.7420313,21.8414815 C36.436875,21.537076 35.9423438,21.537076 35.6371094,21.8414815 L29.2686719,28.1975049 L26.5010156,25.4352437 C26.1958594,25.1308382 25.7013281,25.1308382 25.3960938,25.4352437 L20.9389844,29.8836647 C20.6339063,30.1881481 20.6339063,30.6818713 20.9389844,30.9864327 C21.2441406,31.2908382 21.7386719,31.2908382 22.0439062,30.9864327 L25.9485156,27.0894347 L28.7161719,29.8516959 C29.0213281,30.1561014 29.5158594,30.1561014 29.8210937,29.8516959 L36.1895313,23.4956725 L37.3109375,24.6148928 C37.5145313,24.8180897 37.8138281,24.8931774 38.0892969,24.8099025 C38.3649219,24.7268616 38.5725,24.4991033 38.6292969,24.2173099 L39.984375,17.497232 C40.0359375,17.2414035 39.9557813,16.9766862 39.7708594,16.7920468 Z M20.535625,1.55945419 C21.6407812,1.55945419 22.5398437,2.45684211 22.5398437,3.55976608 C22.5398437,4.66276803 21.6407031,5.56015595 20.535625,5.56015595 C19.4304687,5.56015595 18.5313281,4.66276803 18.5313281,3.55976608 C18.5313281,2.45684211 19.4304687,1.55945419 20.535625,1.55945419 Z M12.805,15.380117 L11.8542188,14.4311891 C12.3057813,14.2841326 12.7492969,14.1159454 13.1835156,13.9277973 L12.805,15.380117 Z M10.1683594,12.6753996 C10.0760156,12.3555556 10.2617188,12.0204288 10.5821875,11.9282651 C11.8664844,11.5589864 13.064375,10.9888499 14.1435938,10.2442885 L13.7024219,11.937076 C12.8241406,12.4214425 11.8890625,12.8088109 10.9167188,13.0883431 C10.8986719,13.0934893 10.8797656,13.0980117 10.8610938,13.1015984 C10.7169531,13.1289669 10.5727344,13.1003509 10.4516406,13.031423 L10.2228125,12.8030409 C10.2002344,12.7631969 10.1814844,12.7207797 10.1683594,12.6753996 Z M5.82554687,10.9505653 C5.87125,10.9049513 5.93132812,10.8821832 5.99132812,10.8821832 C6.05132812,10.8821832 6.11140625,10.9049513 6.15703125,10.9505653 L9.00484375,13.7928265 C9.13695312,13.9728655 9.29445312,14.1298246 9.471875,14.2589474 L11.9309375,16.7132164 C12.0223437,16.8043665 12.0223437,16.9528265 11.9309375,17.0439766 L10.3878125,18.5840936 L8.67164062,16.8712671 L8.99851562,16.5450292 C9.30359375,16.2405458 9.30359375,15.7468226 8.99851562,15.4422612 L7.23992187,13.6870955 C6.93476562,13.3826901 6.44023437,13.3826901 6.135,13.6870955 L5.808125,14.0133333 L4.28242187,12.4906043 L5.82554687,10.9505653 Z M6.89492187,16.4391423 C6.82015625,16.5137622 6.73289062,16.5249903 6.6875,16.5249903 C6.6421875,16.5249903 6.55492187,16.5137622 6.48015625,16.4392203 L6.48015625,16.4391423 L6.24117187,16.2007018 C6.16648437,16.1260819 6.15523437,16.0389864 6.15523437,15.9937622 C6.15523437,15.94846 6.16648437,15.8613645 6.24125,15.7867446 L6.6875,15.3413645 L7.34117187,15.9937622 L6.89492187,16.4391423 Z M7.73976562,21.2270565 C7.68296875,21.2836647 7.61835937,21.2955166 7.5740625,21.2955166 C7.52984375,21.2955166 7.46507812,21.2836647 7.40835937,21.2269786 L1.63453125,15.4644055 C1.57773438,15.4077193 1.56585938,15.3431579 1.56585938,15.2990253 C1.56585938,15.2548148 1.57773438,15.1902534 1.63453125,15.1336452 L3.17757813,13.5935283 L4.77632812,15.1890838 C4.65640625,15.4368811 4.59273437,15.7104094 4.59273437,15.9937622 C4.59273437,16.488577 4.78585937,16.9536842 5.13632812,17.3034698 L5.37523437,17.5418324 L5.37523437,17.5419103 C5.72570312,17.8916959 6.19179687,18.0844444 6.6875,18.0844444 C6.97140625,18.0844444 7.24546875,18.0209747 7.49375,17.9012086 L9.28296875,19.6869396 L7.73976562,21.2270565 Z M18.8992969,15.1472904 L14.4802344,15.1472904 L16.0851562,8.98955166 C16.3721875,7.888577 17.3686719,7.11968811 18.5085156,7.11968811 C19.2126562,7.11968811 19.8639844,7.40304094 20.3425,7.91758285 C21.8103125,9.49606238 24.1375781,9.94292398 26.0015625,9.00436647 C26.4670313,8.77005848 26.9070312,8.48226121 27.3092187,8.14869396 L27.5207031,7.97333333 C27.6482031,7.86760234 27.8090625,7.81910331 27.9739062,7.83766082 C28.1383594,7.85575049 28.2849219,7.93808967 28.3866406,8.06962963 C28.5829687,8.32327485 28.5297656,8.70612086 28.2682031,8.92296296 L28.0821094,9.07727096 C26.6239844,10.2861598 24.7789844,10.9518908 22.8869531,10.9518908 C22.4760937,10.9518908 22.0561719,10.9190643 21.63875,10.854269 C21.2661719,10.7959454 20.9057813,11.0120858 20.78125,11.3670955 L19.4553125,15.1472904 L18.8992969,15.1472904 Z" id="XMLID_1911_"></path>
                        <path d="M19.2965625,31.8752437 C19.0910938,31.8752437 18.8895313,31.9585965 18.7442188,32.1037037 C18.5989062,32.248655 18.5153125,32.4498246 18.5153125,32.6549708 C18.5153125,32.8608187 18.5988281,33.0612086 18.7442188,33.2061598 C18.8895313,33.3519688 19.0910938,33.4346979 19.2965625,33.4346979 C19.5020313,33.4346979 19.7035938,33.3519688 19.8488281,33.2061598 C19.9941406,33.0612086 20.0778125,32.8607407 20.0778125,32.6549708 C20.0778125,32.4498246 19.9942188,32.248655 19.8488281,32.1037037 C19.7035937,31.9585965 19.5020313,31.8752437 19.2965625,31.8752437 Z" id="XMLID_1920_"></path>
                        <path d="M9.60046875,26.8335283 C9.8059375,26.8335283 10.0075,26.7500975 10.1528125,26.6049903 C10.2980469,26.460039 10.3817187,26.2588694 10.3817187,26.0538012 C10.3817187,25.8487329 10.298125,25.6475634 10.1528125,25.5025341 C10.0067187,25.3575049 9.8059375,25.2740741 9.60046875,25.2740741 C9.395,25.2740741 9.1934375,25.3574269 9.04734375,25.5025341 C8.90210938,25.6475634 8.81921875,25.8487329 8.81921875,26.0538012 C8.81921875,26.2588694 8.90210938,26.460039 9.04734375,26.6049903 C9.1934375,26.7500195 9.39421875,26.8335283 9.60046875,26.8335283 Z" id="XMLID_1921_"></path>
                    </g>
                </g>
            </g>
        </g>
    </g>
</svg>