<?xml version="1.0" encoding="UTF-8"?>
<svg width="40px" height="40px" viewBox="0 0 40 40" version="1.1" xmlns="http://www.w3.org/2000/svg" xmlns:xlink="http://www.w3.org/1999/xlink">
    <title>875806cd-477a-4cea-9772-afa5bea71fd0@1.00x</title>
    <g id="âš›ï¸-Symbols" stroke="none" stroke-width="1" fill="none" fill-rule="evenodd">
        <g id="Iconos-/-Widgets-/-Drag&amp;Drop" fill-rule="nonzero">
            <g id="001-folder">
                <rect id="Rectangle" fill="#F7CC38" x="4.13793103" y="11.0344828" width="35.862069" height="28.9655172" rx="14.4827586"></rect>
                <path d="M35.862069,6.89655172 L35.862069,33.1034483 C35.862069,34.6269924 34.6269924,35.862069 33.1034483,35.862069 L11.0344828,35.862069 C9.51093862,35.862069 8.27586207,34.6269924 8.27586207,33.1034483 L8.27586207,2.75862069 C8.27586207,1.23507655 9.51093862,0 11.0344828,0 L28.9655172,0 L35.862069,6.89655172 Z" id="Path" fill="#E9EEF2"></path>
                <path d="M34.4827586,40 L2.75862069,40 C1.23507655,40 0,38.7649234 0,37.2413793 L0,9.65517241 C0,8.13162828 1.23507655,6.89655172 2.75862069,6.89655172 L11.0344828,6.89655172 C12.5580269,6.89655172 13.7931034,8.13162828 13.7931034,9.65517241 L13.7931034,15.1724138 L28.9655172,15.1724138 C30.4890614,15.1724138 31.7241379,16.4074903 31.7241379,17.9310345 L31.7241379,37.2413793 C31.7241379,38.7649234 32.9592145,40 34.4827586,40" id="Path" fill="#FBE36A"></path>
                <g id="Group" transform="translate(16.551724, 0.000000)" fill="#C3C6C7">
                    <path d="M15.1724138,11.7241379 L5.51724138,11.7241379 C5.13635534,11.7241379 4.82758621,11.4153688 4.82758621,11.0344828 C4.82758621,10.6535967 5.13635534,10.3448276 5.51724138,10.3448276 L15.1724138,10.3448276 C15.5532998,10.3448276 15.862069,10.6535967 15.862069,11.0344828 C15.862069,11.4153688 15.5532998,11.7241379 15.1724138,11.7241379 Z" id="Path"></path>
                    <path d="M5.51724138,7.5862069 L0.689655172,7.5862069 C0.308769138,7.5862069 0,7.27743776 0,6.89655172 C0,6.51566569 0.308769138,6.20689655 0.689655172,6.20689655 L5.51724138,6.20689655 C5.89812741,6.20689655 6.20689655,6.51566569 6.20689655,6.89655172 C6.20689655,7.27743776 5.89812741,7.5862069 5.51724138,7.5862069 Z" id="Path"></path>
                    <path d="M19.3103448,6.89655172 L15.1724138,6.89655172 C13.6488697,6.89655172 12.4137931,5.66147517 12.4137931,4.13793103 L12.4137931,0 L19.3103448,6.89655172 Z" id="Path"></path>
                    <path d="M2.75862069,11.7241379 L1.37931034,11.7241379 C0.99842431,11.7241379 0.689655172,11.4153688 0.689655172,11.0344828 C0.689655172,10.6535967 0.99842431,10.3448276 1.37931034,10.3448276 L2.75862069,10.3448276 C3.13950672,10.3448276 3.44827586,10.6535967 3.44827586,11.0344828 C3.44827586,11.4153688 3.13950672,11.7241379 2.75862069,11.7241379 Z" id="Path"></path>
                </g>
                <polygon id="Path" fill="#F79539" points="13.7931034 20.6896552 8.96551724 26.2068966 11.7241379 26.2068966 11.7241379 34.4827586 15.862069 34.4827586 15.862069 26.2068966 18.6206897 26.2068966"></polygon>
            </g>
        </g>
    </g>
</svg>