<?xml version="1.0" encoding="UTF-8"?>
<svg width="40px" height="40px" viewBox="0 0 40 40" version="1.1" xmlns="http://www.w3.org/2000/svg" xmlns:xlink="http://www.w3.org/1999/xlink">
    <title>8a2934c3-5754-4855-9e60-9226f1963b5e@1.00x</title>
    <g id="⚛️-Symbols" stroke="none" stroke-width="1" fill="none" fill-rule="evenodd">
        <g id="Iconos-/-Widgets-/-Whatsapp" fill-rule="nonzero">
            <g id="whatsapp">
                <g id="Group" transform="translate(0.784311, 0.784311)">
                    <path d="M19.2824016,3.13724289 C28.1034463,3.13724289 35.252316,10.286419 35.252316,19.1074636 C35.252316,27.9285083 28.1034463,35.0773779 19.2824016,35.0773779 C16.5939928,35.0773779 13.9693092,34.4122456 11.6120879,33.1181329 L10.504249,32.5099858 L4.54961489,34.1193547 L6.17307683,28.3258719 L5.49783432,27.1754474 C4.05788885,24.7214127 3.31218096,21.9524282 3.31218096,19.1074636 C3.31218096,10.286419 10.461357,3.13724289 19.2824016,3.13724289 L19.2824016,3.13724289 Z M10.1025961,35.8681224 C12.8268504,37.3638275 15.9552085,38.2146208 19.2824016,38.2146208 C29.8350573,38.2146208 38.3895589,29.6601193 38.3895589,19.1074636 C38.3895589,8.55450151 29.8350573,2.22914514e-15 19.2824016,2.22914514e-15 C8.72943959,2.22914514e-15 0.174938075,8.55450151 0.174938075,19.1074636 C0.174938075,22.6301216 1.12928493,25.9297414 2.79226868,28.7633702 L0.0392155361,38.5880875 L10.1025961,35.8681224 Z" id="Shape" fill="#FFFFFF"></path>
                    <path d="M35.252316,19.1074636 C35.252316,10.286419 28.1034463,3.13724289 19.2824016,3.13724289 C10.461357,3.13724289 3.31218096,10.286419 3.31218096,19.1074636 C3.31218096,21.9524282 4.05788885,24.7214127 5.49814067,27.1754474 L6.17307683,28.3258719 L4.54961489,34.1193547 L10.504249,32.5099858 L11.6123943,33.1181329 C13.9693092,34.4122456 16.5939928,35.0773779 19.2824016,35.0773779 C28.1034463,35.0773779 35.252316,27.9285083 35.252316,19.1074636 L35.252316,19.1074636 Z M14.7260465,18.2928221 C15.4444874,19.5373026 16.6987718,20.935888 17.8580811,21.8335561 C19.2585047,22.9178044 21.4551875,24.3424313 22.1693391,23.7106935 C22.5063476,23.4125942 23.4337338,22.0688493 23.5572015,21.9729551 C23.6809755,21.8767545 24.0924323,21.1895635 25.0639359,21.6604563 C26.0351332,22.1316555 28.4585307,23.3338567 28.4585307,23.3338567 C28.4585307,23.3338567 28.9836513,23.5458657 28.9612861,24.3687792 C28.9392274,25.1913863 28.9033819,25.4021699 28.9033819,25.4021699 C28.9033819,25.4021699 28.5513612,28.2235438 24.7002731,28.3359821 C22.9570199,28.3868398 20.938339,27.6760582 19.1497428,26.7636842 C16.0967521,25.2070113 14.1898966,23.4864297 12.1506888,20.8102757 C10.7658901,18.993187 9.38262336,16.6056349 9.62710776,14.4834004 C10.0514321,10.8011229 12.3930285,10.4616634 12.3930285,10.4616634 C12.3930285,10.4616634 12.6050375,10.4362345 13.4282574,10.453085 C14.2511709,10.4699354 14.4377511,11.0045535 14.4377511,11.0045535 C14.4377511,11.0045535 15.5746953,13.6010508 15.9990196,14.5936941 C16.423344,15.5863373 15.9650124,16.0189338 15.8632971,16.1378058 C15.7615818,16.256678 15.1506773,16.9778762 14.8366466,17.3001788 C14.5226159,17.6224815 14.5973706,18.0694774 14.7260465,18.2928221 L14.7260465,18.2928221 Z" id="Shape" fill="#2BB140"></path>
                    <path d="M15.9987132,14.5933877 C15.5746953,13.6007445 14.4377511,11.0045535 14.4377511,11.0045535 C14.4377511,11.0045535 14.2511709,10.4699354 13.427951,10.453085 C12.6050375,10.4362345 12.3927221,10.4616634 12.3927221,10.4616634 C12.3927221,10.4616634 10.0511257,10.8011229 9.62680141,14.4834004 C9.38231701,16.6056349 10.7655838,18.9928807 12.1503824,20.8102757 C14.1898966,23.4864297 16.0967521,25.2070113 19.1494365,26.7636842 C20.938339,27.6757519 22.9570199,28.3868398 24.7002731,28.3359821 C28.5513612,28.2235438 28.9033819,25.4021699 28.9033819,25.4021699 C28.9033819,25.4021699 28.938921,25.1913863 28.9612861,24.3684729 C28.9836513,23.5458657 28.4585307,23.3338567 28.4585307,23.3338567 C28.4585307,23.3338567 26.0351332,22.1316555 25.0636295,21.6604563 C24.0924323,21.189257 23.6806692,21.8767545 23.5572015,21.9726487 C23.4337338,22.0688493 22.5060413,23.4125942 22.1690327,23.7106935 C21.4551875,24.3424313 19.2581983,22.9178044 17.8577747,21.8335561 C16.6987718,20.935888 15.4444874,19.5373026 14.7260465,18.2928221 C14.5970642,18.0694774 14.5223096,17.6224815 14.8363402,17.2998725 C15.1503709,16.9775698 15.7612754,16.2563715 15.8629907,16.1378058 C15.9650124,16.0189338 16.4230376,15.5863373 15.9987132,14.5933877 Z" id="Path" fill="#FFFFFF"></path>
                </g>
                <path d="M34.1322222,5.82595808 C30.37519,2.06923223 25.3798048,0 20.0667123,0 C15.8878068,0 11.8881285,1.28185784 8.5002738,3.7074 C8.14794676,3.95954366 8.06675828,4.44943151 8.31890195,4.80175855 C8.57135196,5.15408567 9.06123981,5.23496772 9.4132605,4.98282405 C12.5333466,2.74937676 16.217156,1.56862144 20.0667123,1.56862144 C30.1699212,1.56862144 38.3895589,9.78825906 38.3895589,19.8917743 C38.3895589,29.9949832 30.1699212,38.2146208 20.0667123,38.2146208 C16.9889055,38.2146208 13.9451059,37.4367438 11.2643564,35.9649358 C11.0863546,35.8675097 10.8777157,35.8426936 10.6822508,35.8953895 L1.95127927,38.2550618 L4.3317849,29.7593836 C4.38938272,29.5541147 4.36089012,29.3344465 4.2530474,29.15093 C2.61120325,26.3531466 1.74355952,23.1515658 1.74355952,19.8917743 C1.74355952,16.0419116 2.92431476,12.3581022 5.15776213,9.23832242 C5.40990571,8.88630173 5.32871732,8.39641396 4.97669663,8.1442703 C4.62436958,7.89212664 4.13448173,7.97300868 3.88233807,8.3253358 C1.45679591,11.7128841 0.174938075,15.7125624 0.174938075,19.8917743 C0.174938075,23.3179254 1.05820677,26.6852532 2.73252632,29.6533791 L0.0683208364,39.1606956 C-0.00796561655,39.432447 0.0680144846,39.7241126 0.266236706,39.9244794 C0.415745937,40.0749078 0.61703199,40.156709 0.823526258,40.156709 C0.891847094,40.156709 0.960474282,40.1478242 1.02818234,40.1294419 L10.7900935,37.491278 C13.6323007,38.9915786 16.8326562,39.7832422 20.066406,39.7832422 C25.3798048,39.7832422 30.37519,37.7143164 34.1319159,33.9569778 C37.8889481,30.200252 39.9581803,25.2048667 39.9581803,19.891468 C39.9581803,14.5783755 37.8892544,9.58329663 34.1322222,5.82595808 L34.1322222,5.82595808 Z" id="Path" fill="#000000"></path>
                <path d="M32.9229744,29.3990909 C33.2832671,29.6395924 33.7703977,29.5424727 34.0108992,29.1821799 C35.8491274,26.4279012 36.8209374,23.215291 36.8209374,19.891468 C36.8209374,15.4159949 35.078297,11.2082904 31.9140935,8.04408684 C28.7498899,4.87988327 24.5424918,3.13724289 20.0667123,3.13724289 C15.5909329,3.13724289 11.3832285,4.87988327 8.21902492,8.04408684 C5.05482135,11.2082904 3.31218096,15.4159949 3.31218096,19.8917743 C3.31218096,22.8727678 4.10537643,25.7998399 5.60598339,28.3568154 L6.11210898,29.2195572 L4.57872019,34.6919627 C4.50243374,34.9634077 4.57810749,35.2550733 4.77663614,35.4554402 C4.97516479,35.6558071 5.26621756,35.7342381 5.53858177,35.660709 L11.1880699,34.1337541 L12.0189491,34.5899411 C14.4693073,35.9352178 17.2520786,36.6459993 20.066406,36.6459993 C23.3905354,36.6459993 26.6031456,35.6741893 29.357118,33.8356547 C29.7174107,33.5954596 29.8145304,33.108329 29.5740289,32.7480363 C29.3335273,32.3877436 28.8467033,32.2906239 28.4864105,32.5311255 C25.9910157,34.1968666 23.0795685,35.0773779 20.066406,35.0773779 C17.5152515,35.0773779 14.9935088,34.4333853 12.7738482,33.2149464 L11.6660093,32.6064928 C11.4883138,32.5090667 11.2796749,32.4842506 11.0839036,32.5369465 L6.46137227,33.786329 L7.71259305,29.3215788 C7.76988444,29.1163101 7.74169827,28.8966418 7.63385555,28.7131253 L6.95861304,27.5627008 C5.59924326,25.2462268 4.88080241,22.5936634 4.88080241,19.891468 C4.88080241,11.5180319 11.6932763,4.70586433 20.0667123,4.70586433 C28.4401484,4.70586433 35.252316,11.5180319 35.252316,19.8917743 C35.252316,22.904324 34.3718047,25.8157713 32.7060635,28.3114724 C32.4655619,28.6717652 32.5626816,29.1585894 32.9229744,29.3990909 L32.9229744,29.3990909 Z" id="Path" fill="#000000"></path>
                <path d="M17.2003018,17.4824698 L17.2520786,17.4221146 C17.9545881,16.6335147 17.7771991,15.707354 17.5045286,15.0694889 C17.1016502,14.1273969 16.0477327,11.7193179 15.9478556,11.4913776 C15.7922189,11.0979967 15.2729195,10.4748374 14.2284994,10.453085 C13.4141643,10.4365409 13.1463958,10.4595188 13.0838959,10.467178 C13.0774622,10.4677908 13.0710284,10.4687099 13.0649009,10.469629 C12.9448034,10.4870922 10.1200593,10.9441982 9.63231605,15.1779443 C9.40805221,17.1243217 10.3093968,19.4429403 12.3112274,22.0700748 C14.5275179,24.9784582 16.5648875,26.7103757 19.5777437,28.2465217 C21.0780443,29.0115311 23.2695187,29.9070546 25.3096457,29.9070546 C25.375822,29.9070546 25.4419982,29.9061355 25.5075616,29.9039909 C27.7989131,29.8372019 29.0225604,28.8849997 29.6454134,28.0979316 C30.3065628,27.2624568 30.4447363,26.4392369 30.4646505,26.2964679 C30.4778245,26.205782 30.5096871,25.9196311 30.5299076,25.1742296 C30.5580938,24.1298096 29.9600569,23.5814048 29.5746416,23.4070795 C29.3568116,23.2989304 27.1111094,22.1855768 26.1904635,21.7391937 C25.5688359,21.4374179 24.6549301,21.2652371 23.8323229,22.157697 C23.8280338,22.1622925 23.8240509,22.1668881 23.8200681,22.170871 C23.7088552,22.2679907 23.598868,22.4129044 23.2646168,22.8602066 C23.0587352,23.1356345 22.6478912,23.6852647 22.4732595,23.8687811 C22.1043884,23.8948227 20.8709372,23.3516263 19.1224758,21.9977711 C18.020458,21.1442205 16.8436855,19.8154879 16.1926463,18.6898794 C16.1862125,18.6739481 16.1822297,18.6448428 16.1840679,18.630137 C16.4539811,18.3525645 16.8933177,17.8424562 17.2003018,17.4824698 L17.2003018,17.4824698 Z M18.1620015,23.2379625 C18.6846711,23.642679 19.7094833,24.396659 20.7002884,24.8994144 C21.1687302,25.1368523 22.5942762,25.8601951 23.4732557,25.0823181 C23.7159018,24.8675518 24.0605697,24.4150413 24.5207394,23.7992348 C24.6533982,23.6218459 24.8163878,23.4040158 24.8795003,23.3286484 C24.9205541,23.2912711 24.9545613,23.2545066 24.9855048,23.2208057 C25.126742,23.06762 25.19108,22.9977673 25.5057234,23.1503403 C26.4505727,23.6086719 28.8077941,24.777785 28.8923526,24.8194515 C28.9214579,24.8485568 28.9668008,24.9432256 28.9615925,25.131644 C28.9441293,25.781764 28.9187005,26.0167509 28.9134923,26.0608684 C28.9101221,26.077106 28.911654,26.0673021 28.9098157,26.0850717 C28.9006246,26.1383803 28.801973,26.6641136 28.369683,27.1803493 C27.760004,27.9089005 26.7817602,28.2976857 25.4619123,28.3359821 C23.6972132,28.3883717 21.6760812,27.5559607 20.2900571,26.8491619 C17.470215,25.4110547 15.6457734,23.8580581 13.5584653,21.119098 C11.8354326,18.8580773 11.016502,16.8654378 11.1902145,15.3571716 C11.5174191,12.5174153 13.0737857,12.0713386 13.2824246,12.0241574 C13.3559537,12.0195618 13.6047273,12.0091452 14.1960241,12.0214001 C14.3844425,12.0253829 14.4766602,12.0753214 14.5045401,12.1056521 C14.5434492,12.1944999 15.6491435,14.7202255 16.0618257,15.6859081 C16.2680137,16.168443 16.1414823,16.3105993 16.0805144,16.3789201 C16.069485,16.391175 16.0599875,16.4022043 16.0517155,16.4113955 L16.0066789,16.4643977 C15.5535557,16.9953393 15.2346231,17.3565512 15.0587659,17.5370039 C14.479724,18.1319771 14.5345644,18.9555034 14.8311319,19.4689818 C15.5854183,20.7759621 16.8930113,22.2551231 18.1620015,23.2379625 L18.1620015,23.2379625 Z" id="Shape" fill="#000000"></path>
                <path d="M6.55573474,7.16480095 C6.74415307,7.16480095 6.93318427,7.09739933 7.08330621,6.96075766 C7.4037707,6.66939846 7.42766763,6.17338326 7.13630844,5.85291876 C6.84464289,5.53245426 6.34893404,5.50886369 6.02816319,5.80022289 L6.02785684,5.80052924 C5.70739234,6.09188843 5.68410811,6.58759736 5.97546731,6.90836813 C6.13018484,7.07840426 6.34250026,7.16480095 6.55573474,7.16480095 Z" id="Path" fill="#000000"></path>
                <path d="M30.7789875,30.656439 L30.7786812,30.6570517 C30.487322,30.9775162 30.5112189,31.473225 30.8316834,31.7645842 C30.9818054,31.9012259 31.1705301,31.9686275 31.3589485,31.9686275 C31.572183,31.9686275 31.7848047,31.8819245 31.9395223,31.711582 C32.2311879,31.3911175 32.2072909,30.8951022 31.8868264,30.6037431 C31.5663619,30.3123839 31.0703467,30.3359745 30.7789875,30.656439 Z" id="Path" fill="#000000"></path>
            </g>
        </g>
    </g>
</svg>