<?xml version="1.0" encoding="UTF-8"?>
<svg width="14px" height="15px" viewBox="0 0 14 15" version="1.1" xmlns="http://www.w3.org/2000/svg" xmlns:xlink="http://www.w3.org/1999/xlink">
    <title>DF9E1278-526C-4C9B-B9DB-6D50D1159AFF</title>
    <g id="📌-Módulos---Mockups" stroke="none" stroke-width="1" fill="none" fill-rule="evenodd">
        <g id="Dashboard-/-00_Dashboard-/-01_Dashboard" transform="translate(-219.000000, -216.000000)" fill="#FFFFFF" fill-rule="nonzero">
            <g id="Body" transform="translate(96.000000, 39.000000)">
                <g id="Radar" transform="translate(0.000000, 1.000000)">
                    <g id="radar" transform="translate(16.000000, 16.000000)">
                        <g id="Boton-/-Principal" transform="translate(0.000000, 151.800000)">
                            <g id="Group" transform="translate(10.000000, 8.000000)">
                                <g id="Icons-/-Go" transform="translate(97.000000, 1.000000)">
                                    <path d="M9.09222467,3.89519538 C9.31268193,3.67937932 9.67011377,3.67937932 9.89057103,3.89519538 L9.89057103,3.89519538 L12.9013237,6.8425638 C13.121781,7.05837985 13.121781,7.40828681 12.9013237,7.62410287 L12.9013237,7.62410287 L9.89057103,10.5714713 C9.67011377,10.7872873 9.31268193,10.7872873 9.09222467,10.5714713 C8.87176741,10.3556552 8.87176741,10.0057483 9.09222467,9.78993222 L9.09222467,9.78993222 L10.805,8.11233333 L1.96451613,8.11251994 C1.68108554,8.11251994 1.44644104,7.84762455 1.4061208,7.50240264 L1.4,7.39661085 C1.4,7.00122517 1.65274248,6.68070175 1.96451613,6.68070175 L1.96451613,6.68070175 L11.138,6.68033333 L9.09222467,4.67673445 C8.89626266,4.48489796 8.8744891,4.18711309 9.026904,3.97173251 Z" id="Shape"></path>
                                </g>
                            </g>
                        </g>
                    </g>
                </g>
            </g>
        </g>
    </g>
</svg>