<?xml version="1.0" encoding="UTF-8"?>
<svg width="40px" height="40px" viewBox="0 0 40 40" version="1.1" xmlns="http://www.w3.org/2000/svg" xmlns:xlink="http://www.w3.org/1999/xlink">
    <title>FE08D432-5BD0-44CB-99C3-B3EFF059C1DF@1.00x</title>
    <g id="✅-Final" stroke="none" stroke-width="1" fill="none" fill-rule="evenodd">
        <g id="Prototype" transform="translate(-384.000000, -688.000000)">
            <g id="cumpleañeros" transform="translate(368.000000, 672.000000)">
                <g id="001-birthday-cake" transform="translate(16.000000, 16.000000)">
                    <g id="XMLID_1000_" transform="translate(17.187500, 5.156250)" fill="#98EAF9" fill-rule="nonzero">
                        <g id="XMLID_1001_">
                            <path d="M2.11765625,11.875 L2.11765625,3.46078125 L1.776875,3.46078125 C0.821171875,3.46078125 0.046484375,2.68609375 0.046484375,1.73039063 C0.046484375,0.7746875 0.821171875,0 1.776875,0 L3.84804687,0 C4.80375,0 5.5784375,0.7746875 5.5784375,1.73039063 L5.5784375,11.875 L2.11765625,11.875 Z" id="XMLID_1002_"></path>
                        </g>
                    </g>
                    <path d="M35.15625,39.21875 L4.84375,39.21875 C2.60007812,39.21875 0.78125,37.3999219 0.78125,35.15625 L39.21875,35.15625 C39.21875,37.3999219 37.3999219,39.21875 35.15625,39.21875 Z" id="XMLID_1809_" fill="#CBF4FB" fill-rule="nonzero"></path>
                    <g id="XMLID_1117_" transform="translate(2.343750, 17.031250)">
                        <path d="M32.0875781,0 L3.22492187,0 C1.44382812,0 -5.55111512e-16,1.44382812 -5.55111512e-16,3.22492187 L-5.55111512e-16,18.125 L35.3125,18.125 L35.3125,3.22492187 C35.3125,1.44382812 33.8686719,0 32.0875781,0 Z" id="XMLID_1881_" fill="#FFCD69" fill-rule="nonzero"></path>
                        <path d="M32.0875781,0 L3.22484375,0 C1.44382813,0 1.66533454e-15,1.44382812 1.66533454e-15,3.22484375 L1.66533454e-15,4.89203125 L2.08617188,4.89203125 C3.05828125,4.89203125 3.84632813,5.68 3.84632813,6.65210938 L3.84632813,11.246875 C3.84632813,12.34375 4.73546875,13.2328906 5.83234375,13.2328906 C6.92921875,13.2328906 7.81835938,12.34375 7.81835938,11.246875 L7.81835938,7.29296875 C7.81835938,6.23203125 8.67835938,5.37203125 9.73929688,5.37203125 C10.8002344,5.37203125 11.6602344,6.23203125 11.6602344,7.29296875 L11.6602344,9.3384375 C11.6602344,10.5664062 12.6651562,11.6009375 13.8928125,11.5777344 C15.0829687,11.5551563 16.0408594,10.5833594 16.0408594,9.3878125 L16.0408594,8.78 C16.0408594,7.68265625 16.8942187,6.74804688 17.9908594,6.70914063 C19.1421875,6.66828125 20.0883594,7.58945313 20.0883594,8.7315625 L20.0883594,10.1171875 C20.0883594,11.0715625 20.8305469,11.8844531 21.7842969,11.9183594 C22.785625,11.9539844 23.6085938,11.1527344 23.6085938,10.159375 L23.6085938,7.72921875 C23.6085938,6.70773438 24.4367188,5.87960938 25.4582031,5.87960938 C26.4796875,5.87960938 27.3078125,6.70773438 27.3078125,7.72921875 L27.3078125,9.49109375 C27.3078125,10.7189844 28.3127344,11.7535938 29.5403906,11.7303125 C30.7305469,11.7078125 31.6884375,10.7359375 31.6884375,9.54039063 L31.6884375,6.64023438 C31.6884375,5.6746875 32.4711719,4.89195313 33.4367969,4.89195313 L35.3125,4.89195313 L35.3125,3.22476563 C35.3125,1.44382813 33.8686719,0 32.0875781,0 L32.0875781,0 Z" id="XMLID_1004_" fill="#F89521"></path>
                    </g>
                    <path d="M21.2814062,4.62546875 C20.5736719,5.33320313 19.4263281,5.33320313 18.7185938,4.62546875 C18.0108594,3.91773438 18.0108594,2.77039063 18.7185938,2.06265625 L20,0.78125 L21.2814062,2.06265625 C21.9891406,2.77039063 21.9891406,3.91773438 21.2814062,4.62546875 Z" id="XMLID_1103_" fill="#F89521"></path>
                    <g id="XMLID_879_" fill="#000000" fill-rule="nonzero">
                        <path d="M39.21875,34.375 L38.4375,34.375 L38.4375,20.2560938 C38.4375,18.0471094 36.6403906,16.25 34.4314062,16.25 L33.125,16.25 C32.6935937,16.25 32.34375,16.5997656 32.34375,17.03125 C32.34375,17.4627344 32.6935937,17.8125 33.125,17.8125 L34.4314062,17.8125 C35.7788281,17.8125 36.875,18.9086719 36.875,20.2560938 L36.875,21.1420312 L35.7804687,21.1420312 C34.385625,21.1420312 33.2508594,22.2767188 33.2508594,23.6715625 L33.2508594,26.5717187 C33.2508594,27.3341406 32.6310937,27.9660937 31.869375,27.9805469 C31.4990625,27.9857813 31.1504687,27.844375 30.8785937,27.5775781 C30.5952344,27.2994531 30.4326562,26.9148437 30.4326562,26.5223438 L30.4326562,24.7604687 C30.4326562,23.3098437 29.2524219,22.1296094 27.8017969,22.1296094 C26.3511719,22.1296094 25.1709375,23.3097656 25.1709375,24.7604687 L25.1709375,27.190625 C25.1709375,27.4586719 25.0646875,27.7088281 24.8717187,27.8950781 C24.6788281,28.0811719 24.424375,28.1792187 24.1557031,28.1688281 C23.6360937,28.1503906 23.2132812,27.6925781 23.2132812,27.1485156 L23.2132812,25.7628906 C23.2132812,24.9947656 22.9089062,24.2778125 22.3560156,23.744375 C21.8034375,23.2110156 21.0750781,22.9334375 20.3067969,22.9596094 C18.7908594,23.0135156 17.6032812,24.2661719 17.6032812,25.8113281 L17.6032812,26.4191406 C17.6032812,27.1815625 16.9835156,27.8135156 16.2217187,27.8278906 C15.8560156,27.8355469 15.5029687,27.6917969 15.2310937,27.425 C14.9476562,27.146875 14.7850781,26.7623437 14.7850781,26.3697656 L14.7850781,24.3242187 C14.7850781,22.8342187 13.5728906,21.6220312 12.0828906,21.6220312 C10.5928906,21.6220312 9.38070312,22.8342187 9.38070312,24.3242187 L9.38070312,28.278125 C9.38070312,28.9424219 8.84023437,29.4828906 8.1759375,29.4828906 C7.5115625,29.4828906 6.97109375,28.9424219 6.97109375,28.278125 L6.97109375,23.6833594 C6.97109375,22.2820312 5.83101562,21.1420312 4.42976562,21.1420312 L3.125,21.1420312 L3.125,20.2560938 C3.125,18.9086719 4.22117187,17.8125 5.56859375,17.8125 L26.09375,17.8125 C26.5251562,17.8125 26.875,17.4627344 26.875,17.03125 C26.875,16.5997656 26.5251562,16.25 26.09375,16.25 L23.5471875,16.25 L23.5471875,6.88664063 C23.5471875,5.93203125 23.0117969,5.10023438 22.2255469,4.67539063 C22.8210937,3.67945313 22.6907812,2.36726563 21.8338281,1.51023438 L20.5524219,0.228828125 C20.2472656,-0.076171875 19.7527344,-0.076171875 19.4475,0.228828125 L18.1660937,1.51023438 C17.3091406,2.36726563 17.1788281,3.67953125 17.774375,4.67539063 C16.988125,5.10023438 16.4527344,5.93203125 16.4527344,6.88664063 C16.4527344,8.12132813 17.3482031,9.15078125 18.5239062,9.35953125 L18.5239062,16.25 L5.56859375,16.25 C3.35960937,16.25 1.5625,18.0471094 1.5625,20.2560938 L1.5625,34.375 L0.78125,34.375 C0.349765625,34.375 -1.38777878e-14,34.7248438 -1.38777878e-14,35.15625 C-1.38777878e-14,37.8270312 2.17289062,40 4.84375,40 L35.15625,40 C37.8270312,40 40,37.8270312 40,35.15625 C40,34.7248438 39.6501562,34.375 39.21875,34.375 L39.21875,34.375 Z M19.2710156,2.61515625 L20,1.88617187 L20.7289844,2.61515625 C21.1310156,3.01710937 21.1310156,3.67117187 20.7289844,4.07304687 C20.5342969,4.26773437 20.2753906,4.375 20,4.375 C19.7246094,4.375 19.4657031,4.26773437 19.2710156,4.07304687 C18.8689844,3.67109375 18.8689844,3.01703125 19.2710156,2.61515625 Z M19.3051562,7.83578125 L18.9644531,7.83578125 C18.4410938,7.83578125 18.0153125,7.41 18.0153125,6.88671875 C18.0153125,6.36335937 18.4410938,5.93757812 18.9644531,5.93757812 L21.035625,5.93757812 C21.5589062,5.93757812 21.9846875,6.36335937 21.9846875,6.88671875 L21.9846875,16.25 L20.0864063,16.25 L20.0864063,8.61703125 C20.0864063,8.18554687 19.7366406,7.83578125 19.3051563,7.83578125 L19.3051562,7.83578125 Z M3.125,22.7045313 L4.42992188,22.7045313 C4.9696875,22.7045313 5.40875,23.1435938 5.40875,23.6833594 L5.40875,28.278125 C5.40875,29.8039844 6.65023438,31.0453906 8.17609375,31.0453906 C9.70195313,31.0453906 10.9433594,29.8039844 10.9433594,28.278125 L10.9433594,24.3242188 C10.9433594,23.6957812 11.4546094,23.1845312 12.0830469,23.1845312 C12.7114844,23.1845312 13.2227344,23.6957812 13.2227344,24.3242188 L13.2227344,26.3697656 C13.2227344,27.1790625 13.5559375,27.9701563 14.136875,28.5402344 C14.710625,29.1032812 15.4592969,29.4039844 16.2514063,29.3900781 C17.8583594,29.3596875 19.1658594,28.0269531 19.1658594,26.4191406 L19.1658594,25.8113281 C19.1658594,25.1233594 19.7025781,24.5446094 20.3622656,24.5211719 C20.70375,24.5078125 21.02625,24.6323437 21.2710156,24.8685937 C21.5159375,25.1049219 21.6507813,25.4225781 21.6507813,25.7628125 L21.6507813,27.1484375 C21.6507813,28.5473437 22.7266406,29.6814844 24.1003125,29.7303906 C24.7963281,29.7535937 25.4561719,29.5025781 25.956875,29.0192969 C26.4577344,28.5359375 26.7335938,27.8864844 26.7335938,27.190625 L26.7335938,24.7604688 C26.7335938,24.1714062 27.2128906,23.6921094 27.8019531,23.6921094 C28.3910156,23.6921094 28.8703125,24.1714062 28.8703125,24.7604688 L28.8703125,26.5223438 C28.8703125,27.3316406 29.2035156,28.1227344 29.784375,28.6928125 C30.3582031,29.2557813 31.1066406,29.5585938 31.8989844,29.5427344 C33.5060156,29.5122656 34.8134375,28.1794531 34.8134375,26.5717188 L34.8134375,23.6715625 C34.8134375,23.1383594 35.2472656,22.7045313 35.7805469,22.7045313 L36.875,22.7045313 L36.875,34.375 L3.125,34.375 L3.125,22.7045313 Z M35.15625,38.4375 L4.84375,38.4375 C3.30359375,38.4375 2.0078125,37.3709375 1.65648438,35.9375 L38.3435156,35.9375 C37.9921875,37.3709375 36.6964062,38.4375 35.15625,38.4375 Z" id="XMLID_913_"></path>
                        <path d="M10,8.4375 C10.4314844,8.4375 10.78125,8.08765625 10.78125,7.65625 L10.78125,6.61460938 C10.78125,6.18320313 10.4314844,5.83335938 10,5.83335938 C9.56859375,5.83335938 9.21875,6.18320313 9.21875,6.61460938 L9.21875,7.65625 C9.21875,8.08765625 9.56859375,8.4375 10,8.4375 Z" id="XMLID_917_"></path>
                        <path d="M10,13.6458594 C10.4314844,13.6458594 10.78125,13.2960156 10.78125,12.8646094 L10.78125,11.8228906 C10.78125,11.3914844 10.4314844,11.0416406 10,11.0416406 C9.56859375,11.0416406 9.21875,11.3914844 9.21875,11.8228906 L9.21875,12.8646094 C9.21875,13.2960156 9.56859375,13.6458594 10,13.6458594 Z" id="XMLID_918_"></path>
                        <path d="M12.0833594,10.5208594 L13.125,10.5208594 C13.5564844,10.5208594 13.90625,10.1710156 13.90625,9.73960938 C13.90625,9.30820313 13.5564844,8.95835938 13.125,8.95835938 L12.0833594,8.95835938 C11.651875,8.95835938 11.3021094,9.30820313 11.3021094,9.73960938 C11.3021094,10.1710156 11.6519531,10.5208594 12.0833594,10.5208594 Z" id="XMLID_948_"></path>
                        <path d="M6.875,10.5208594 L7.91664062,10.5208594 C8.34804687,10.5208594 8.69789062,10.1710156 8.69789062,9.73960938 C8.69789062,9.30820313 8.34804687,8.95835938 7.91664062,8.95835938 L6.875,8.95835938 C6.44359375,8.95835938 6.09375,9.30820313 6.09375,9.73960938 C6.09375,10.1710156 6.44359375,10.5208594 6.875,10.5208594 Z" id="XMLID_950_"></path>
                        <path d="M30,2.60414062 C30.4314062,2.60414062 30.78125,2.25429687 30.78125,1.82289062 L30.78125,0.78125 C30.78125,0.349765625 30.4314062,-1.38777878e-16 30,-1.38777878e-16 C29.5685938,-1.38777878e-16 29.21875,0.349765625 29.21875,0.78125 L29.21875,1.82289062 C29.21875,2.25429687 29.5685938,2.60414062 30,2.60414062 Z" id="XMLID_958_"></path>
                        <path d="M30,7.8125 C30.4314062,7.8125 30.78125,7.46265625 30.78125,7.03125 L30.78125,5.98960938 C30.78125,5.55820313 30.4314062,5.20835938 30,5.20835938 C29.5685938,5.20835938 29.21875,5.55820313 29.21875,5.98960938 L29.21875,7.03125 C29.21875,7.46265625 29.5685938,7.8125 30,7.8125 Z" id="XMLID_960_"></path>
                        <path d="M32.0833594,4.6875 L33.125,4.6875 C33.5564063,4.6875 33.90625,4.33765625 33.90625,3.90625 C33.90625,3.47484375 33.5564063,3.125 33.125,3.125 L32.0833594,3.125 C31.6519531,3.125 31.3021094,3.47484375 31.3021094,3.90625 C31.3021094,4.33765625 31.6519531,4.6875 32.0833594,4.6875 Z" id="XMLID_991_"></path>
                        <path d="M26.875,4.6875 L27.9166406,4.6875 C28.3480469,4.6875 28.6978906,4.33765625 28.6978906,3.90625 C28.6978906,3.47484375 28.3480469,3.125 27.9166406,3.125 L26.875,3.125 C26.4435938,3.125 26.09375,3.47484375 26.09375,3.90625 C26.09375,4.33765625 26.4435938,4.6875 26.875,4.6875 Z" id="XMLID_1017_"></path>
                        <path d="M29.609375,17.8125 C29.8148437,17.8125 30.0164062,17.7289063 30.1616406,17.5835156 C30.3070313,17.4382812 30.390625,17.2367187 30.390625,17.03125 C30.390625,16.8257812 30.3070313,16.6242188 30.1616406,16.4789063 C30.0164063,16.3335937 29.8148437,16.25 29.609375,16.25 C29.4039062,16.25 29.2023438,16.3335156 29.0570313,16.4789063 C28.9117187,16.6242188 28.828125,16.8257812 28.828125,17.03125 C28.828125,17.2367187 28.9116406,17.4382812 29.0570313,17.5835156 C29.2023438,17.7289062 29.4039062,17.8125 29.609375,17.8125 Z" id="XMLID_1031_"></path>
                    </g>
                </g>
            </g>
        </g>
    </g>
</svg>