<?xml version="1.0" encoding="UTF-8"?>
<svg width="40px" height="40px" viewBox="0 0 40 40" version="1.1" xmlns="http://www.w3.org/2000/svg" xmlns:xlink="http://www.w3.org/1999/xlink">
    <title>Iconos / Files / PDF</title>
    <g id="📌-Módulos---Mockups" stroke="none" stroke-width="1" fill="none" fill-rule="evenodd">
        <g id="Dashboard-/-01_Drag&amp;Drop-/-03_Drag&amp;Drop" transform="translate(-492.000000, -735.000000)" fill-rule="nonzero">
            <g id="Probando-herramientas" transform="translate(281.000000, 96.000000)">
                <g id="Group-2" transform="translate(211.000000, 536.000000)">
                    <g id="001-pdf" transform="translate(0.000000, 103.000000)">
                        <polygon id="Path" fill="#EFEEEE" points="6.66666667 0 6.66666667 40 30 40 40 30 40 0"></polygon>
                        <polygon id="Path" fill="#ABABAB" points="30 30 30 40 40 30"></polygon>
                        <polygon id="Path" fill="#DEDEDD" points="20 40 30 40 30 30"></polygon>
                        <polygon id="Path" fill="#CB5641" points="0 10 0 21.6666667 26.6666667 21.6666667 26.6666667 10"></polygon>
                        <g id="Group" transform="translate(3.750000, 12.187500)" fill="#FFFFFF">
                            <path d="M2.60333333,0.0891666667 C2.97,0.0891666667 3.27666667,0.150833333 3.52833333,0.274166667 C3.78,0.3975 3.98,0.559166667 4.13333333,0.759166667 C4.28666667,0.959166667 4.39666667,1.1875 4.46333333,1.44416667 C4.52833333,1.69916667 4.56333333,1.9625 4.56333333,2.22916667 C4.56333333,2.59583333 4.50833333,2.91583333 4.39833333,3.18916667 C4.28833333,3.4625 4.135,3.68583333 3.93833333,3.8575 C3.74166667,4.03083333 3.50333333,4.1625 3.22333333,4.2475 C2.94333333,4.3325 2.63333333,4.37916667 2.29333333,4.37916667 L1.52333333,4.37916667 L1.52333333,7.22916667 L0.0833333333,7.22916667 L0.0833333333,0.0891666667 L2.60333333,0.0891666667 Z M2.16333333,3.3225 C2.45,3.3225 2.68333333,3.23416667 2.85833333,3.06083333 C3.035,2.8875 3.12333333,2.6175 3.12333333,2.25083333 C3.12333333,1.89083333 3.04666667,1.6175 2.89333333,1.43083333 C2.74,1.24583333 2.48333333,1.15083333 2.12333333,1.15083333 L1.52333333,1.15083333 L1.52333333,3.3225 L2.16333333,3.3225 L2.16333333,3.3225 Z" id="Shape"></path>
                            <path d="M8.70333333,0.0875 C9.205,0.0875 9.60666667,0.170833333 9.915,0.334166667 C10.2216667,0.4975 10.46,0.729166667 10.63,1.03416667 C10.8016667,1.3375 10.915,1.70083333 10.975,2.12916667 C11.035,2.55583333 11.065,3.0325 11.065,3.5575 C11.065,4.18416667 11.0283333,4.72916667 10.9516667,5.1925 C10.875,5.65416667 10.7433333,6.0375 10.5566667,6.3375 C10.37,6.63916667 10.12,6.86083333 9.80666667,7.0075 C9.49333333,7.15416667 9.09666667,7.2275 8.61666667,7.2275 L6.34333333,7.2275 L6.34333333,0.0875 L8.70333333,0.0875 L8.70333333,0.0875 Z M8.42333333,6.17083333 C8.67666667,6.17083333 8.88,6.1275 9.03333333,6.04083333 C9.18666667,5.95416667 9.30833333,5.81083333 9.39833333,5.61083333 C9.49,5.41083333 9.55,5.1475 9.57833333,4.81916667 C9.60833333,4.49416667 9.62333333,4.0875 9.62333333,3.60083333 C9.62333333,3.19416667 9.60833333,2.8375 9.58333333,2.52916667 C9.55666667,2.2225 9.50166667,1.9675 9.41833333,1.76416667 C9.33333333,1.56083333 9.21166667,1.4075 9.04666667,1.30583333 C8.88333333,1.2025 8.665,1.14916667 8.39166667,1.14916667 L7.78333333,1.14916667 L7.78333333,6.17083333 L8.42333333,6.17083333 Z" id="Shape"></path>
                            <polygon id="Path" points="17.0033333 0.0891666667 17.0033333 1.26916667 14.4533333 1.26916667 14.4533333 2.94916667 16.8533333 2.94916667 16.8533333 4.12916667 14.4533333 4.12916667 14.4533333 7.22916667 13.0133333 7.22916667 13.0133333 0.0891666667"></polygon>
                        </g>
                    </g>
                </g>
            </g>
        </g>
    </g>
</svg>