<?xml version="1.0" encoding="UTF-8"?>
<svg width="30px" height="30px" viewBox="0 0 30 30" version="1.1" xmlns="http://www.w3.org/2000/svg" xmlns:xlink="http://www.w3.org/1999/xlink">
    <title>4B9BCAF6-C407-487A-BAE0-603FD5CAC93E</title>
    <g id="📌-Módulos---Mockups" stroke="none" stroke-width="1" fill="none" fill-rule="evenodd">
        <g id="Dashboard-/-00_Dashboard-/-01_Dashboard" transform="translate(-412.000000, -226.000000)" fill="#9a9a9a" fill-rule="nonzero">
            <g id="Body" transform="translate(96.000000, 39.000000)">
                <g id="Buscador" transform="translate(296.000000, 18.000000)">
                    <g transform="translate(0.000000, 152.000000)" id="Group-2">
                        <g id="Icons-/-Search" transform="translate(20.000000, 17.000000)">
                            <path d="M27.84743,25.3744768 L20.5851058,18.1121526 C21.9625509,16.411611 22.7917035,14.2496911 22.7917035,11.8958762 C22.7917035,6.43931856 18.352385,2 12.8958274,2 C7.43926973,2 3,6.43931856 3,11.8958762 C3,17.3524338 7.43931856,21.7917524 12.8958762,21.7917524 C15.2496911,21.7917524 17.411611,20.9625509 19.1121526,19.5851546 L26.3744768,26.8474788 C26.5779442,27.0508485 26.9076326,27.0508485 27.1110999,26.8474788 L27.8474788,26.1110511 C28.0508485,25.9076326 28.0508485,25.5778465 27.84743,25.3744768 Z M12.8958762,19.7083972 C8.58780797,19.7083972 5.0833552,16.2039444 5.0833552,11.8958762 C5.0833552,7.58780797 8.58780797,4.0833552 12.8958762,4.0833552 C17.2039444,4.0833552 20.7083972,7.58780797 20.7083972,11.8958762 C20.7083972,16.2039444 17.2039444,19.7083972 12.8958762,19.7083972 Z" id="Shape"></path>
                        </g>
                    </g>
                </g>
            </g>
        </g>
    </g>
</svg>