<?xml version="1.0" encoding="UTF-8"?>
<svg width="80px" height="90px" viewBox="0 0 80 90" version="1.1" xmlns="http://www.w3.org/2000/svg" xmlns:xlink="http://www.w3.org/1999/xlink">
    <title>116e3333-632a-4687-a24d-1fcc976ebe89@1.00x</title>
    <g id="⚛️-Symbols" stroke="none" stroke-width="1" fill="none" fill-rule="evenodd">
        <g id="Machina" transform="translate(5.000000, 10.000000)">
            <path d="M35.8532879,3.40671175e-15 C36.6123874,0.892446478 37.1751363,1.96472795 37.4687445,3.15995785 C53.5688704,4.59313269 66.2350042,18.1492662 66.2350042,34.6157907 C66.2350042,40.536277 64.5950803,46.0787427 61.7501396,50.8192912 C62.5337063,51.7472153 63.0744347,52.8311188 63.3527508,53.9963762 C67.1011483,48.4618623 69.2934226,41.7896168 69.2934226,34.6157907 C69.2934226,15.9166208 54.4001486,0.638597754 35.8532879,3.40671175e-15" id="Fill-21" fill="#AA3933"></path>
            <path d="M59.927261,58.0717186 C60.0416459,57.8661929 60.1370685,57.6521036 60.2184225,57.4325092 C60.2324912,57.3945848 60.2459482,57.3566604 60.2594053,57.318736 C60.3340307,57.0991416 60.3945874,56.8746537 60.4361819,56.6446606 C60.4422987,56.6097946 60.4459688,56.5749287 60.451474,56.539451 C60.4893983,56.297836 60.5138657,56.0525508 60.5138657,55.8035956 C60.5138657,55.6188671 60.5004086,55.4359737 60.4789997,55.255527 C60.4734946,55.207204 60.464931,55.1601043 60.4582025,55.112393 C60.4374052,54.9723175 60.4111028,54.8340769 60.3774602,54.6970598 C60.3676733,54.6554653 60.3578864,54.6132591 60.3462644,54.5716647 C60.2997764,54.3997815 60.2459482,54.2309568 60.1798864,54.0658023 L60.1798864,54.0658023 C59.9468349,53.4828677 59.5987869,52.9476445 59.1418592,52.4907168 C58.5558663,51.9047238 57.840808,51.4979542 57.0627464,51.2863117 C57.0584646,51.2850883 57.0541828,51.2838649 57.0499011,51.2832532 C56.9245059,51.2496106 56.7984991,51.2196381 56.6700455,51.1963942 C56.6357912,51.1902773 56.6003136,51.1866072 56.5648359,51.1804904 C56.4639081,51.1651983 56.363592,51.1486828 56.2614408,51.1395076 C56.1183068,51.1260505 55.9739495,51.1180986 55.8283688,51.1180986 C54.576864,51.1180986 53.4005963,51.6056105 52.51549,52.4907168 L52.5014213,52.4907168 C47.924804,57.0618289 41.6103935,59.8927009 34.6469866,59.8927009 C32.3378807,59.8927009 30.1027886,59.5740137 27.9765761,58.9904675 C27.6144594,58.8607906 27.3092292,58.6167288 27.1141021,58.2796911 C26.8975661,57.9035056 26.8394562,57.4655401 26.9526176,57.0447017 C27.1844458,56.177946 28.0762806,55.6622966 28.9454831,55.8947364 L28.9491532,55.880056 C30.7683004,56.369403 32.6761418,56.6379321 34.6469866,56.6379321 C46.7901308,56.6379321 56.6694338,46.7592408 56.6694338,34.6160965 C56.6694338,22.4729523 46.7901308,12.5936493 34.6469866,12.5936493 C33.4676604,12.5936493 32.3115783,12.6915187 31.1824102,12.870742 L31.1817986,12.8676836 C30.5560462,12.9667763 29.9694415,13.1869824 29.446452,13.5111748 C29.4433936,13.5130098 29.4403351,13.5154566 29.436665,13.5179033 C29.3137166,13.5949755 29.1932149,13.6769411 29.076995,13.7650235 C29.0537511,13.7827623 29.0329538,13.8035596 29.0103215,13.8212984 C28.9148989,13.8965355 28.8206996,13.972996 28.7320054,14.0555733 C28.6855175,14.0983911 28.6433113,14.1461024 28.5992701,14.191367 C28.5368784,14.2537588 28.4726516,14.3149271 28.4133183,14.380989 C28.3117788,14.4959855 28.2151327,14.6158755 28.1239919,14.7412707 C28.0059369,14.9039785 27.9031741,15.0740266 27.8083631,15.2471331 C27.7863425,15.2875042 27.7655452,15.3278753 27.744748,15.3682464 C27.659724,15.5346244 27.5832635,15.7040608 27.5190367,15.8783906 C27.5159783,15.8851191 27.5123082,15.893071 27.5098615,15.9010229 C27.4370711,16.1016551 27.3795728,16.3065692 27.3349199,16.5151533 L27.3336966,16.5200468 C27.2896553,16.7298543 27.2602945,16.9421085 27.2450024,17.1568095 L27.2443908,17.1574212 C27.2199234,17.5109743 27.230322,17.869421 27.2872086,18.2284793 C27.5906037,20.1442725 29.0231669,21.6031381 30.7976612,22.042327 C30.8209052,22.0472204 30.8435375,22.0521139 30.8661698,22.0576191 C31.0117505,22.0912617 31.1585546,22.1181757 31.3078054,22.1377496 C31.3371662,22.1414197 31.3659153,22.1463132 31.3946645,22.1487599 C31.5659359,22.1683338 31.737819,22.1811792 31.9121489,22.1811792 C32.1549873,22.1811792 32.4002724,22.162217 32.646781,22.1230692 L32.6492277,22.1383613 C33.3018942,22.0337634 33.9655709,21.9646431 34.6469866,21.9646431 C41.6226272,21.9646431 47.2984399,27.6398443 47.2984399,34.6160965 C47.2984399,41.5923488 41.6226272,47.2675499 34.6469866,47.2675499 C33.7496466,47.2675499 33.019908,46.5378113 33.019908,45.6404714 C33.019908,44.7437431 33.7496466,44.0140045 34.6469866,44.0140045 C39.8291706,44.0140045 44.0442828,39.7982806 44.0442828,34.6160965 C44.0442828,29.4345241 39.8291706,25.2181886 34.6469866,25.2181886 C29.4648025,25.2181886 25.2496903,29.4345241 25.2496903,34.6160965 C25.2496903,37.2891542 26.3764116,39.6985762 28.1729266,41.4119021 C28.7368989,40.5512632 29.4654142,39.8092909 30.3150428,39.2312498 C29.0831119,38.074556 28.3081087,36.4358555 28.3081087,34.6160965 C28.3081087,31.1203243 31.1518261,28.276607 34.6469866,28.276607 C38.1421471,28.276607 40.9858645,31.1203243 40.9858645,34.6160965 C40.9858645,38.111257 38.1421471,40.9555861 34.6469866,40.9555861 C34.4579763,40.9555861 34.2726362,40.9702665 34.089131,40.9916754 C34.0346912,40.998404 33.9820864,41.0081909 33.9288699,41.0161428 C33.7955229,41.03694 33.6640109,41.0626308 33.5355573,41.0944383 C33.4829525,41.1072837 33.4303477,41.120129 33.3783546,41.1348094 C33.2303272,41.1764039 33.0853581,41.2253386 32.9428358,41.2810018 C32.9195919,41.2895654 32.8957362,41.2975173 32.8724922,41.3073042 C32.6981624,41.3782595 32.5299494,41.4602251 32.3672415,41.5507543 C32.3592896,41.5556478 32.3507261,41.5611529 32.3427742,41.5660464 C32.1910766,41.6522938 32.0454959,41.7477165 31.904197,41.849256 C31.8833997,41.8651597 31.8626025,41.8810635 31.8411936,41.897579 C31.7035647,42.0009535 31.5720527,42.1104449 31.4460459,42.2284998 C31.4393174,42.2346167 31.4319772,42.2407335 31.4252487,42.247462 C31.1475443,42.5110977 30.9034825,42.8077643 30.6967334,43.1313449 C30.2336889,43.8580251 29.9614896,44.7174407 29.9614896,45.6404714 C29.9614896,47.0363335 30.5786785,48.28845 31.5500321,49.1472538 C31.5702177,49.164381 31.5885682,49.1833432 31.6087538,49.2004703 C31.6815441,49.2634737 31.7580046,49.320972 31.8350767,49.379082 C31.8742245,49.4090545 31.9127605,49.439027 31.95252,49.4677761 C32.0216402,49.5167108 32.0925955,49.5619754 32.1641625,49.60724 C32.2161556,49.6396592 32.2687604,49.6720784 32.3219769,49.7026626 C32.3886504,49.7411987 32.4565473,49.777288 32.5256676,49.8127657 C32.5880593,49.8445732 32.6504511,49.8751574 32.7140662,49.9032949 C32.7795163,49.9332674 32.8455781,49.9626282 32.9122517,49.9895423 C32.9838187,50.0182914 33.0559973,50.0439821 33.1287877,50.0690611 C33.1924028,50.0904701 33.2560179,50.1124907 33.3208564,50.1320646 C33.4015986,50.1565319 33.4841759,50.1761058 33.5667532,50.1956797 C33.6273099,50.2097484 33.6866432,50.2256522 33.7478116,50.2372742 C33.8432342,50.2562363 33.9404919,50.2690817 34.0377496,50.2819271 C34.089131,50.2880439 34.1392891,50.2978308 34.1906705,50.303336 C34.3411447,50.3174047 34.4928423,50.3259683 34.6469866,50.3259683 C43.309039,50.3259683 50.3568583,43.278149 50.3568583,34.6160965 C50.3568583,25.9534324 43.309039,18.9062248 34.6469866,18.9062248 C33.8034748,18.9062248 32.9764784,18.975345 32.1696677,19.1044103 L32.169056,19.1019636 C31.281503,19.2432625 30.4483898,18.6352489 30.3077026,17.7501426 C30.2398057,17.3207407 30.3431802,16.8907271 30.5982523,16.539009 C30.8514894,16.1903493 31.2246164,15.9615796 31.6491249,15.8918476 C32.6259837,15.7358683 33.6266982,15.6520676 34.6469866,15.6520676 C45.1037189,15.6520676 53.6110154,24.1599758 53.6110154,34.6160965 C53.6110154,45.0728289 45.1037189,53.5795137 34.6469866,53.5795137 C32.9495644,53.5795137 31.304747,53.3519674 29.7382251,52.9323524 L29.7357784,52.9396926 C29.7308849,52.9384692 29.7253797,52.9384692 29.7198746,52.9372459 C29.508232,52.8815827 29.2947544,52.8448816 29.0806651,52.8191909 C29.0592562,52.8161325 29.0378473,52.809404 29.0164384,52.8075689 C28.9956411,52.8051222 28.9754556,52.8069573 28.95527,52.8045105 C28.787057,52.7886067 28.6194557,52.7812665 28.452466,52.7831016 C28.4475725,52.7831016 28.4420674,52.7831016 28.4365622,52.7831016 C28.0597651,52.7892184 27.6872497,52.8430466 27.3226863,52.9403043 C27.3214629,52.940916 27.3202395,52.940916 27.3190162,52.9415277 C27.1465214,52.9874039 26.977085,53.0442905 26.8094837,53.110964 L26.774006,53.1250328 C26.6131332,53.1904829 26.4553188,53.263885 26.3005629,53.3470739 C26.2938343,53.3513557 26.2864941,53.3544141 26.2791539,53.3586959 C26.2467347,53.3764348 26.2130921,53.3905035 26.1812845,53.408854 C25.7286386,53.6706546 25.333491,54.0021872 24.9989,54.3838778 C24.9940065,54.3893829 24.9878897,54.3936647 24.9836079,54.3997815 C24.9842196,54.3997815 24.9848313,54.3997815 24.9848313,54.4003932 C24.5254568,54.9294996 24.184749,55.557087 23.9981855,56.2531831 C23.8911409,56.6532242 23.8428179,57.0581588 23.8415945,57.4612583 L23.8415945,57.46187 C23.8403711,57.8600761 23.8899175,58.2558354 23.9908453,58.6418078 C23.9969621,58.6674985 24.0055257,58.6931892 24.0128659,58.7194916 C24.0556838,58.8730242 24.1064535,59.0247218 24.1657868,59.1745843 C24.1816906,59.2155671 24.1969827,59.2565499 24.2147215,59.2981444 C24.2887353,59.4712509 24.3700892,59.6425223 24.4655118,59.8089003 C24.4752988,59.8254157 24.4869208,59.8407078 24.4967077,59.8566116 C24.5627695,59.9685497 24.6318898,60.0774294 24.7059035,60.1820273 C24.7505564,60.2450307 24.7994911,60.302529 24.8459791,60.362474 C24.8894086,60.4169138 24.9303914,60.4731887 24.9750443,60.5251818 C25.0374361,60.5973605 25.1034979,60.6646457 25.1695597,60.7331543 C25.2032023,60.7667969 25.2350099,60.8028862 25.2692642,60.8359171 C25.346948,60.9117659 25.4295253,60.9821095 25.5121026,61.0518415 C25.5365699,61.072027 25.5604256,61.093436 25.584893,61.1142332 C25.6784806,61.1894703 25.7751266,61.2592022 25.8742193,61.3264874 C25.8895114,61.3381094 25.9054152,61.3485081 25.921319,61.3595184 C26.0289753,61.4310854 26.13969,61.4983706 26.2528515,61.5601506 C26.2608034,61.5650441 26.2687553,61.5693259 26.2767072,61.5742193 C26.3965972,61.6390578 26.5195456,61.6990028 26.6455524,61.7540543 C26.6473875,61.754666 26.6492225,61.7552777 26.6510576,61.7558894 C26.8645352,61.8488653 27.0829063,61.9314426 27.311676,61.9919993 L27.3165694,61.9730371 C29.6574828,62.6012362 32.1103344,62.9511193 34.6469866,62.9511193 C42.4575754,62.9511193 49.529862,59.7654707 54.6600529,54.6352798 L54.6777918,54.6530186 C55.2931455,54.0370531 56.363592,54.0376648 56.9789457,54.6536303 C57.2866226,54.9606955 57.4554473,55.3686885 57.4554473,55.8035956 C57.4554473,56.1467501 57.3465676,56.4709425 57.1514405,56.7443651 C51.4175178,62.5749338 43.4515613,66.2046647 34.6469866,66.2046647 C17.2286823,66.2046647 3.05841836,52.0337891 3.05841836,34.6154848 C3.05841836,18.843833 14.6804081,5.74890899 29.8085687,3.41288905 C30.6514688,3.33337017 31.426472,3.92242155 31.5610424,4.7708268 C31.6289393,5.20022874 31.5255648,5.63085404 31.2704927,5.98257216 C31.0148089,6.33367858 30.6380118,6.56489501 30.2092215,6.63218022 L30.2098332,6.63340358 C16.6867306,8.76940297 6.3125755,20.5027192 6.3125755,34.6160965 C6.3125755,34.8613817 6.33704284,35.0999383 6.37313218,35.3348248 C6.3798607,35.3758077 6.38475417,35.4167905 6.39209437,35.4577733 C6.43307718,35.6822612 6.49057545,35.9018556 6.56214243,36.1147215 C6.57437611,36.1501992 6.58844483,36.1856768 6.60129019,36.2205428 C6.76522141,36.6689069 6.99460279,37.0836285 7.27964738,37.4561438 C7.29188106,37.4714359 7.30227968,37.4873397 7.31451335,37.5020201 C7.46192912,37.6904187 7.62341361,37.8659719 7.79774345,38.0286797 C7.80691871,38.0372433 7.81548228,38.0451952 7.82404585,38.0531471 C8.66021743,38.8250919 9.77287003,39.3009818 10.9980724,39.3009818 C12.1896322,39.3009818 13.2753707,38.8507826 14.1023671,38.1155388 C14.1066488,38.1118687 14.1103189,38.1088103 14.1139891,38.1051402 C14.4277828,37.8243774 14.7042638,37.5038551 14.9336452,37.1484669 C14.9440438,37.1325632 14.9538307,37.1148243 14.9642294,37.0989206 C15.0608754,36.9441646 15.1483461,36.7839035 15.2272533,36.6187489 C15.2413221,36.5887764 15.2566142,36.5600272 15.2700712,36.5294431 C15.3520368,36.347773 15.4242155,36.1612095 15.4823254,35.9673058 C15.4902773,35.9428384 15.4945591,35.9171477 15.5018993,35.8920687 C15.5489989,35.7263024 15.5863117,35.5556427 15.6150608,35.3825362 C15.6230127,35.3305431 15.6315762,35.2791616 15.6383048,35.2265568 C15.6646072,35.0265363 15.6829577,34.8234573 15.6829577,34.6160965 C15.6829577,29.3537819 17.8428127,24.5906011 21.3165643,21.1517155 C21.955162,20.5877432 22.9301858,20.6048703 23.5394228,21.214719 C24.1737387,21.8490349 24.1737387,22.8821686 23.5394228,23.5164846 L23.5449279,23.5219898 C20.7012105,26.3650955 18.9365031,30.2865995 18.9365031,34.6160965 C18.9365031,38.9474286 20.7030456,42.8707677 23.548598,45.7150968 L23.5394228,45.7236603 C23.846488,46.0307255 24.0153127,46.4393302 24.0153127,46.8742373 C24.0153127,47.3091444 23.846488,47.7177491 23.5394228,48.0248143 C22.9546532,48.6101956 22.0328459,48.6493433 21.3936364,48.1526562 C20.1678224,46.9500861 19.0979876,45.5884782 18.2312318,44.0929117 L18.2202215,44.0990285 C17.5944691,43.0157367 16.5845794,42.2401218 15.3752808,41.9165412 C15.1936107,41.8682182 15.0101056,41.8339639 14.8272122,41.8070498 C14.7727724,41.7990979 14.7189442,41.7948161 14.665116,41.7886993 C14.5287106,41.7734072 14.3929168,41.7648436 14.2565113,41.7617852 C14.2228687,41.7605618 14.1892261,41.754445 14.1549719,41.754445 C14.135398,41.754445 14.1152124,41.7581151 14.0950269,41.7587268 C13.3041199,41.7691254 12.5242232,41.9783212 11.820787,42.3844792 C11.4605053,42.5930633 11.138148,42.846912 10.8512683,43.13318 L10.8512683,43.1325683 C10.8494333,43.1344034 10.8482099,43.1356267 10.8469866,43.1374618 C10.5686705,43.4157778 10.3276671,43.7265131 10.1282582,44.0653859 C10.1117428,44.0935233 10.0970624,44.1228842 10.0805469,44.1516333 C10.0065332,44.2843687 9.93863631,44.4213858 9.87746794,44.5614614 C9.85728238,44.606726 9.83648513,44.6519905 9.81813462,44.6984785 C9.75207279,44.8642448 9.69212779,45.0342928 9.64441646,45.2092344 C9.64258141,45.2159629 9.63952299,45.2226914 9.63707625,45.2300316 C9.59854018,45.3750006 9.567956,45.5199697 9.54287697,45.6661621 C9.53492508,45.7144851 9.53125498,45.7628081 9.52452646,45.8111311 C9.5116811,45.9059421 9.49883574,46.0013647 9.49149554,46.0961757 C9.48599039,46.1659076 9.4853787,46.2356396 9.48354365,46.3065949 C9.48109692,46.3781619 9.4780385,46.4491172 9.47926187,46.5206842 C9.48048523,46.6038731 9.48660207,46.6870621 9.49210722,46.7696394 C9.49638901,46.8259143 9.50005911,46.8821892 9.50556427,46.9378524 C9.5153512,47.0308283 9.52941993,47.1238043 9.54471202,47.2161685 C9.55205222,47.259598 9.56000411,47.3030276 9.56856768,47.3458454 C9.58875324,47.4473849 9.61199722,47.547701 9.63891131,47.6480172 C9.64686319,47.679213 9.65603845,47.7097972 9.6652137,47.7403814 C9.69640957,47.8498728 9.73127554,47.9581408 9.77103498,48.0651854 C9.7777635,48.0823126 9.7851037,48.0994397 9.79183222,48.1171785 C9.87991467,48.3453366 9.98084248,48.5692128 10.1056259,48.7845254 L10.1282582,48.7722918 C12.7254671,53.2534863 16.5026138,56.968853 21.0480352,59.4663574 C20.7317947,58.2919247 20.6999871,57.0606055 20.9599527,55.8494718 C17.5516513,53.6443522 14.7073222,50.6422087 12.6881544,47.1091239 C12.34867,46.3579763 12.6208692,45.4545195 13.3499961,45.0336812 C14.1262227,44.5859287 15.1232671,44.8520111 15.5716312,45.6282377 L15.5899818,45.6184507 C16.5570536,47.2865121 17.7357681,48.8157213 19.0912591,50.1712123 L19.0753553,50.1871161 C19.1622144,50.2745869 19.2539669,50.3534941 19.3463312,50.4324012 C19.3487779,50.434848 19.3512247,50.4379064 19.3542831,50.4403531 C19.3567298,50.4421882 19.3597882,50.4440232 19.362235,50.44647 C19.4429772,50.5149785 19.5267779,50.5792053 19.6118019,50.6415971 C19.6472795,50.6678995 19.6827572,50.6948135 19.7194582,50.7205043 C19.7922486,50.771274 19.866874,50.819597 19.9421111,50.8654733 C19.9977743,50.8991159 20.0534375,50.9321468 20.1097124,50.964566 C20.1721041,50.9988203 20.2344959,51.0324629 20.298111,51.0636588 C20.3757948,51.1028065 20.454702,51.1388959 20.5348326,51.1737619 C20.5819322,51.1939474 20.6290318,51.2147447 20.6767432,51.2330952 C20.7807294,51.2746897 20.8871624,51.310779 20.9948187,51.3444216 C21.0217328,51.3529852 21.0480352,51.3621604 21.0755609,51.370724 C21.2125781,51.4104834 21.3514303,51.4447377 21.4921175,51.4716518 C21.4927292,51.4722635 21.4927292,51.4722635 21.4933409,51.4722635 C21.785114,51.5291501 22.0842273,51.5597343 22.3882341,51.5597343 C22.4237117,51.5597343 22.4585777,51.5536174 22.4940554,51.5530057 C22.6439179,51.5493356 22.7937804,51.538937 22.9430312,51.5211982 C23.0139865,51.5126346 23.0837184,51.5028477 23.154062,51.490614 C23.3002544,51.4667583 23.4446118,51.4355625 23.5883574,51.3982498 C23.6268935,51.3878511 23.6654296,51.3811226 23.703354,51.3701123 C23.8893058,51.3156725 24.0709759,51.2471639 24.2501992,51.1700918 C24.2807834,51.1566347 24.3101442,51.1419543 24.3407284,51.1278856 C24.5107764,51.0502018 24.6771544,50.9621193 24.8386389,50.8630265 C24.8447557,50.8593564 24.8520959,50.856298 24.8588244,50.8520162 C24.8582128,50.8520162 24.8582128,50.8514046 24.8576011,50.8514046 C25.1573261,50.6660644 25.4423707,50.4470817 25.7017245,50.1871161 C26.2608034,49.6286489 26.6467758,48.961302 26.8633118,48.253584 C26.8645352,48.2541957 26.8657586,48.2554191 26.8669819,48.2560307 C26.870652,48.2444087 26.8718754,48.2315634 26.8749338,48.2205531 C26.9293737,48.038883 26.9691331,47.8541546 27.0009407,47.6682027 C27.011951,47.6021409 27.0211262,47.5354674 27.0296898,47.4694055 C27.0510987,47.2975224 27.0651674,47.1250276 27.0682259,46.9519211 C27.0682259,46.9256188 27.073731,46.9005397 27.073731,46.8742373 C27.073731,45.9530417 26.8076486,45.0740523 26.3152433,44.320458 C26.3097381,44.3112827 26.3054563,44.3027192 26.2999512,44.2947673 C26.2296075,44.1883343 26.1525354,44.0861831 26.0730165,43.9852553 C26.054666,43.9620114 26.0387622,43.9369323 26.0198,43.9136883 C25.9243774,43.7974685 25.8228379,43.6849187 25.7157933,43.577874 C25.7108998,43.5723689 25.706618,43.5668637 25.7017245,43.5613586 C25.7011129,43.5613586 25.7011129,43.5613586 25.7011129,43.5607469 L25.704783,43.5576885 C23.4140276,41.2669331 21.9949215,38.1039168 21.9949215,34.6160965 C21.9949215,31.1301113 23.4140276,27.9695418 25.7029479,25.6787864 C25.7072297,25.6745046 25.7102881,25.6702228 25.7145699,25.665941 C25.7151816,25.6653294 25.7157933,25.6647177 25.7164049,25.664106 C25.7170166,25.664106 25.7170166,25.6634943 25.7170166,25.6634943 C25.8595389,25.5197486 25.9867691,25.3674394 26.1066591,25.2108484 C26.1347966,25.1741474 26.1617107,25.136223 26.1886247,25.0989103 C26.2877175,24.9612815 26.3782467,24.8205942 26.460824,24.6750135 C26.4755044,24.6493228 26.4914082,24.6254671 26.5054769,24.5997764 C26.5990645,24.4260582 26.6810301,24.24867 26.7519854,24.0669999 C26.7611607,24.0413092 26.7691125,24.0162302 26.7782878,23.9905395 C26.8363977,23.8321134 26.8853324,23.6712406 26.9263152,23.507921 C26.9354905,23.4706083 26.9452774,23.4332956 26.953841,23.3959829 C27.0382534,23.0167391 27.0761777,22.6313783 27.0663908,22.2447943 C27.0651674,22.2142101 27.0633324,22.1842376 27.062109,22.1536534 C27.0541571,21.9799352 27.03703,21.8068288 27.0101159,21.634334 C27.0064458,21.6123133 27.0039991,21.5890694 27.000329,21.5670488 C26.9660747,21.3688632 26.9208101,21.1731245 26.8614768,20.9798324 C26.8614768,20.9798324 26.8614768,20.9798324 26.8614768,20.9792207 L26.8614768,20.9798324 C26.6443291,20.2745612 26.2589684,19.609661 25.7023362,19.0524172 C25.2790511,18.6297438 24.7927626,18.3086098 24.2752782,18.0816752 C24.2722198,18.0804518 24.2691614,18.0786168 24.266103,18.0773934 C24.0679174,17.991146 23.8660618,17.9171323 23.6599244,17.859634 C23.6587011,17.8590223 23.656866,17.8590223 23.655031,17.8584107 C23.4703025,17.8070292 23.2831273,17.7691048 23.0947287,17.7403557 C23.0531342,17.7348505 23.0121514,17.728122 22.9705569,17.7226169 C22.7368938,17.6938677 22.5020072,17.6822458 22.2677324,17.6883626 C22.1612994,17.6908093 22.0548665,17.6932561 21.9496569,17.7036547 C21.8530109,17.7128299 21.7581999,17.7293454 21.6627772,17.7434141 C21.6132309,17.751366 21.5636845,17.7562595 21.5147498,17.764823 C21.3930248,17.7886787 21.2731348,17.8186512 21.1532448,17.8510704 C21.1318358,17.8571873 21.1104269,17.8608574 21.089018,17.8663625 C20.9532242,17.906122 20.8186538,17.9519983 20.6865301,18.0039914 C20.6822483,18.0052147 20.6779665,18.0064381 20.6742964,18.0082732 C20.0919736,18.2364312 19.5457401,18.5826441 19.0765787,19.0524172 L19.0820838,19.0579223 C15.0957413,23.0454882 12.6245393,28.5463595 12.6245393,34.6160965 C12.6245393,35.5128248 11.8948007,36.2425634 10.9980724,36.2425634 C10.1007325,36.2425634 9.37099386,35.5128248 9.37099386,34.6160965 C9.37099386,22.0264232 18.6245444,11.5592922 30.6869465,9.65328587 L30.6869465,9.65389756 C30.6997918,9.6520625 30.7120255,9.6483924 30.7248709,9.64594567 L30.7248709,9.64594567 L30.7260942,9.64594567 C31.3353312,9.54379449 31.9078671,9.32848184 32.4192346,9.01285307 C32.4235164,9.00979465 32.4277982,9.00612455 32.4326917,9.00306613 C32.5550284,8.92660567 32.6743067,8.84525174 32.7899149,8.75839266 C32.8107122,8.7418772 32.8308977,8.72230332 32.851695,8.70578786 C32.9489527,8.6293274 33.044987,8.55164358 33.1361279,8.46661955 C33.176499,8.42930684 33.2132,8.38710067 33.2523478,8.3485646 C33.3202447,8.28066771 33.3905883,8.21338251 33.4548151,8.14059215 C33.5569663,8.0262073 33.6536123,7.90570562 33.7447531,7.77969878 C33.8310005,7.66164384 33.9099077,7.54053047 33.9833098,7.41635868 C34.0365263,7.32705287 34.0824025,7.23530032 34.1295022,7.14293608 C34.1454059,7.11112853 34.1631448,7.08115603 34.1784369,7.04934848 C34.2353234,6.93068185 34.2860932,6.8089568 34.3325812,6.68662006 C34.3338045,6.68294996 34.3356396,6.67989154 34.3368629,6.67683312 C34.3851859,6.54899124 34.4267804,6.4193143 34.4634815,6.28780231 L34.4640931,6.28657894 C34.6433165,5.64614614 34.6891927,4.96962399 34.5815364,4.29249017 C34.5111928,3.84718446 34.3766224,3.42818114 34.193729,3.03915033 C34.1943406,3.03915033 34.195564,3.03853864 34.1961757,3.03853864 C34.1925056,3.03181012 34.1876121,3.02569328 34.1845537,3.01835308 C34.0958596,2.83178956 33.9955434,2.65317793 33.884217,2.48251818 C33.8670899,2.45682747 33.8487394,2.43236012 33.8310005,2.40605772 C33.7319078,2.25986533 33.6248631,2.11978977 33.5098666,1.98644273 C33.4860109,1.95952864 33.4639903,1.93139119 33.4401347,1.90447711 C33.3067876,1.75706135 33.1661004,1.61698579 33.0162379,1.48730885 C32.9942173,1.46834666 32.971585,1.45244288 32.9495644,1.43348069 C32.8180524,1.32460099 32.6804236,1.2230615 32.5372896,1.12825053 C32.4993652,1.10255982 32.4614408,1.0768691 32.4229047,1.05301344 C32.2571385,0.950250585 32.0864787,0.854827932 31.9090904,0.77286232 C31.8889049,0.763687065 31.867496,0.756958544 31.8473104,0.747783289 C31.687661,0.676827983 31.523118,0.615659616 31.3561284,0.56305482 C31.3059703,0.547151045 31.2570356,0.532470637 31.2068776,0.518401912 C31.0172556,0.465185433 30.825187,0.419309157 30.6282248,0.390560025 C30.6263898,0.389948341 30.6245547,0.389948341 30.6227197,0.389948341 C30.4269809,0.361199208 30.2281837,0.350188902 30.0281631,0.3465188 C30.0018608,0.3465188 29.9773934,0.341013647 29.9517027,0.341013647 C29.9254003,0.341013647 29.8984862,0.3465188 29.8727955,0.347130484 C29.6574828,0.350800586 29.4403351,0.363645943 29.2219641,0.397900229 L29.2219641,0.397288545 C12.6857077,3.00856614 -4.42872527e-14,17.35683 -4.42872527e-14,34.6154848 C-4.42872527e-14,53.720201 15.5422704,69.2630831 34.6469866,69.2630831 C44.1978154,69.2630831 52.8464109,65.3672698 59.1198386,59.0950654 L59.1412475,59.1164743 C59.2562441,59.0020895 59.3639004,58.8809761 59.4654399,58.7568043 L59.4654399,58.7561927 C59.6238659,58.5622889 59.7614948,58.3555398 59.8850549,58.1414506 C59.8991236,58.1182066 59.9144157,58.0955743 59.927261,58.0717186" id="Fill-23" fill="#EF4136"></path>
            <path d="M59.9231016,34.61628 C59.9231016,39.5586841 58.4917618,44.1701673 56.029735,48.0696507 C57.1277072,48.0977882 58.1846966,48.3546953 59.1517685,48.8146814 C61.5819877,44.636882 62.98152,39.7880655 62.98152,34.61628 C62.98152,19.9774664 51.8225747,7.89610219 37.5642283,6.43173148 C37.3697129,7.48627413 36.9568264,8.49555219 36.3335208,9.40267907 C49.4865548,10.2743283 59.9231016,21.24671 59.9231016,34.61628" id="Fill-25" fill="#DF7A6F"></path>
        </g>
    </g>
</svg>