<?xml version="1.0" encoding="UTF-8"?>
<svg width="30px" height="30px" viewBox="0 0 30 30" version="1.1" xmlns="http://www.w3.org/2000/svg" xmlns:xlink="http://www.w3.org/1999/xlink">
    <title>8FE31F54-3B48-4C1E-BE1E-FD36737C999D@1.00x</title>
    <g id="📌-Módulos---Mockups" stroke="none" stroke-width="1" fill="none" fill-rule="evenodd">
        <g id="Dashboard-/-02_Probando-herramientas-/-02_Notificacion" transform="translate(-400.000000, -146.000000)" fill-rule="nonzero">
            <g id="Notificacion" transform="translate(376.000000, 128.000000)">
                <g id="icon-check" transform="translate(24.000000, 18.000000)">
                    <g id="Group" fill="#00A278">
                        <circle id="Oval" cx="15" cy="15" r="13.8380859"></circle>
                        <path d="M15,30 C6.72966797,30 0,23.2715039 0,15 C0,6.72966797 6.72966797,0 15,0 C23.2715039,0 30,6.72966797 30,15 C30,23.2715039 23.2715039,30 15,30 Z M15,2.32376953 C8.01005859,2.32376953 2.32376953,8.01005859 2.32376953,15 C2.32376953,21.9899414 8.01005859,27.6762305 15,27.6762305 C21.9899414,27.6762305 27.6762305,21.9887695 27.6762305,15 C27.6762305,8.01005859 21.9899414,2.32376953 15,2.32376953 Z" id="Shape"></path>
                    </g>
                    <path d="M13.1874609,20.5190039 C12.8760937,20.5190039 12.5786133,20.394668 12.3590039,20.1716016 L8.07164062,15.8145117 C7.62199219,15.3567188 7.62779297,14.6224219 8.08558594,14.1716016 C8.54337891,13.723125 9.27884766,13.7277539 9.72849609,14.1855469 L13.1537695,17.666543 L20.2401562,9.86214844 C20.6735156,9.38695313 21.4078711,9.35326172 21.8807227,9.78316406 C22.355918,10.2142383 22.3907812,10.9485352 21.959707,11.4249023 L14.0472656,20.1390234 C13.8323437,20.3760352 13.5302344,20.5131445 13.2107227,20.5201172 C13.2025781,20.5190039 13.1956055,20.5190039 13.1874609,20.5190039 Z" id="Path" fill="#FFFFFF"></path>
                </g>
            </g>
        </g>
    </g>
</svg>