<?xml version="1.0" encoding="UTF-8"?>
<svg width="40px" height="40px" viewBox="0 0 40 40" version="1.1" xmlns="http://www.w3.org/2000/svg" xmlns:xlink="http://www.w3.org/1999/xlink">
    <title>Iconos / Files / PDF</title>
    <defs>
        <linearGradient x1="25.1126736%" y1="20.1385417%" x2="116.862674%" y2="130.226042%" id="linearGradient-1">
            <stop stop-color="#EFEEEE" offset="0%"></stop>
            <stop stop-color="#DEDEDD" offset="100%"></stop>
        </linearGradient>
    </defs>
    <g id="📌-Módulos---Mockups" stroke="none" stroke-width="1" fill="none" fill-rule="evenodd">
        <g id="Dashboard-/-01_Drag&amp;Drop-/-03_Drag&amp;Drop" transform="translate(-492.000000, -632.000000)" fill-rule="nonzero">
            <g id="Probando-herramientas" transform="translate(281.000000, 96.000000)">
                <g id="003-jpg" transform="translate(211.000000, 536.000000)">
                    <polygon id="Path" fill="url(#linearGradient-1)" points="6.66666667 0 6.66666667 40 30 40 40 30 40 0"></polygon>
                    <polygon id="Path" fill="#ABABAB" points="30 30 30 40 40 30"></polygon>
                    <polygon id="Path" fill="#DEDEDD" points="20 40 30 40 30 30"></polygon>
                    <polygon id="Path" fill="#71A742" points="0 10 0 21.6666667 26.6666667 21.6666667 26.6666667 10"></polygon>
                    <g id="Group" transform="translate(3.437500, 12.083333)" fill="#FFFFFF">
                        <path d="M4.0875,5.33333333 C4.0875,6.09333333 3.91083333,6.635 3.5575,6.96 C3.20416667,7.28166667 2.66416667,7.445 1.9375,7.445 C1.55583333,7.445 1.24583333,7.39333333 1.00083333,7.28833333 C0.7575,7.185 0.564166667,7.04 0.420833333,6.84833333 C0.2775,6.65666667 0.179166667,6.43666667 0.1275,6.18333333 C0.0725,5.93166667 0.0458333333,5.66333333 0.0458333333,5.38333333 L0.0458333333,5.07166667 L1.36583333,5.07166667 L1.36583333,5.29333333 C1.36583333,5.67333333 1.4075,5.95333333 1.49083333,6.13833333 C1.57416667,6.32 1.74583333,6.41333333 2.0075,6.41333333 C2.26583333,6.41333333 2.43916667,6.32 2.5225,6.13833333 C2.60583333,5.955 2.6475,5.67333333 2.6475,5.29333333 L2.6475,0.191666667 L4.0875,0.191666667 L4.0875,5.33333333 Z" id="Path"></path>
                        <path d="M8.54583333,0.191666667 C8.9125,0.191666667 9.21916667,0.255 9.47083333,0.378333333 C9.7225,0.501666667 9.9225,0.663333333 10.0758333,0.863333333 C10.2291667,1.06333333 10.3391667,1.29166667 10.4058333,1.54833333 C10.4708333,1.80333333 10.5058333,2.06666667 10.5058333,2.33333333 C10.5058333,2.7 10.4508333,3.02 10.3408333,3.29333333 C10.2308333,3.56666667 10.0775,3.79 9.88083333,3.96166667 C9.68416667,4.135 9.44583333,4.26666667 9.16583333,4.35166667 C8.88583333,4.43833333 8.57583333,4.48166667 8.23416667,4.48166667 L7.46583333,4.48166667 L7.46583333,7.33166667 L6.02583333,7.33166667 L6.02583333,0.191666667 L8.54583333,0.191666667 L8.54583333,0.191666667 Z M8.10583333,3.42666667 C8.3925,3.42666667 8.62583333,3.33833333 8.80083333,3.165 C8.9775,2.99166667 9.06583333,2.72166667 9.06583333,2.355 C9.06583333,1.995 8.98916667,1.72166667 8.83583333,1.535 C8.6825,1.35 8.42583333,1.255 8.06583333,1.255 L7.46583333,1.255 L7.46583333,3.42666667 L8.10583333,3.42666667 L8.10583333,3.42666667 Z" id="Shape"></path>
                        <path d="M15.3408333,1.905 C15.3108333,1.765 15.2625,1.63666667 15.1958333,1.52 C15.1291667,1.405 15.0441667,1.30666667 14.9425,1.23 C14.8391667,1.15333333 14.7125,1.115 14.5658333,1.115 C14.2191667,1.115 13.9708333,1.30833333 13.8158333,1.69666667 C13.6625,2.08166667 13.5858333,2.72333333 13.5858333,3.615 C13.5858333,4.04333333 13.5991667,4.42833333 13.6258333,4.775 C13.6525,5.12166667 13.7008333,5.41666667 13.7708333,5.66 C13.8408333,5.90333333 13.9408333,6.09 14.0708333,6.22 C14.2008333,6.35 14.3691667,6.415 14.5758333,6.415 C14.6641667,6.415 14.7575,6.39 14.8625,6.345 C14.9658333,6.29833333 15.0608333,6.22833333 15.1525,6.135 C15.2425,6.04 15.3175,5.92333333 15.3775,5.78 C15.4375,5.63666667 15.4675,5.46666667 15.4675,5.27333333 L15.4675,4.54333333 L14.5191667,4.54333333 L14.5191667,3.48333333 L16.8475,3.48333333 L16.8475,7.33333333 L15.7875,7.33333333 L15.7875,6.67333333 L15.7675,6.67333333 C15.5941667,6.955 15.3858333,7.15166667 15.1425,7.26833333 C14.8991667,7.385 14.6075,7.44333333 14.2675,7.44333333 C13.8275,7.44333333 13.4691667,7.365 13.1908333,7.21166667 C12.9125,7.05833333 12.6975,6.82333333 12.5408333,6.50166667 C12.3841667,6.18 12.2791667,5.78666667 12.2275,5.31666667 C12.1741667,4.84666667 12.1458333,4.30166667 12.1458333,3.68166667 C12.1458333,3.08333333 12.1841667,2.555 12.2608333,2.10333333 C12.3375,1.65 12.4691667,1.27166667 12.6558333,0.966666667 C12.8408333,0.663333333 13.0891667,0.436666667 13.3941667,0.281666667 C13.7025,0.128333333 14.0841667,0.0516666667 14.5441667,0.0516666667 C15.3308333,0.0516666667 15.8975,0.246666667 16.2441667,0.638333333 C16.5908333,1.02666667 16.7641667,1.585 16.7641667,2.31333333 L15.3841667,2.31333333 C15.3858333,2.18166667 15.3708333,2.045 15.3408333,1.905 Z" id="Path"></path>
                    </g>
                </g>
            </g>
        </g>
    </g>
</svg>