<?xml version="1.0" encoding="UTF-8"?>
<svg width="25px" height="25px" viewBox="0 0 25 25" version="1.1" xmlns="http://www.w3.org/2000/svg" xmlns:xlink="http://www.w3.org/1999/xlink">
    <title>7944023E-F886-4B1F-AC25-355790C8F1C0@1.00x</title>
    <g id="✅-Final" stroke="none" stroke-width="1" fill="none" fill-rule="evenodd">
        <g id="Prototype" transform="translate(-1088.000000, -56.000000)" fill="#f89521">
            <g id="Header" transform="translate(1085.000000, 39.000000)">
                <g id="Iconos-/-Basicos-/-Apps" transform="translate(0.000000, 14.000000)">
                    <path d="M8.46875,17.0625 C11.4890572,17.0625 13.9375,19.5109428 13.9375,22.53125 C13.9375,25.5515572 11.4890572,28 8.46875,28 C5.44844277,28 3,25.5515572 3,22.53125 C3,19.5109428 5.44844277,17.0625 8.46875,17.0625 Z M22.53125,17.0625 C25.5515572,17.0625 28,19.5109428 28,22.53125 C28,25.5515572 25.5515572,28 22.53125,28 C19.5109428,28 17.0625,25.5515572 17.0625,22.53125 C17.0625,19.5109428 19.5109428,17.0625 22.53125,17.0625 Z M8.46875,3 C11.4890572,3 13.9375,5.44844277 13.9375,8.46875 C13.9375,11.4890572 11.4890572,13.9375 8.46875,13.9375 C5.44844277,13.9375 3,11.4890572 3,8.46875 C3,5.44844277 5.44844277,3 8.46875,3 Z M22.53125,3 C25.5515572,3 28,5.44844277 28,8.46875 C28,11.4890572 25.5515572,13.9375 22.53125,13.9375 C19.5109428,13.9375 17.0625,11.4890572 17.0625,8.46875 C17.0625,5.44844277 19.5109428,3 22.53125,3 Z" id="Combined-Shape"></path>
                </g>
            </g>
        </g>
    </g>
</svg>