<?xml version="1.0" encoding="UTF-8"?>
<svg width="40px" height="40px" viewBox="0 0 40 40" version="1.1" xmlns="http://www.w3.org/2000/svg" xmlns:xlink="http://www.w3.org/1999/xlink">
    <title>739A91DD-A2C0-4F76-82CB-F5356F3114D8</title>
    <g id="📌-Módulos---Mockups" stroke="none" stroke-width="1" fill="none" fill-rule="evenodd">
        <g id="Dashboard-/-00_Dashboard-/-01_Dashboard" transform="translate(-112.000000, -56.000000)" fill-rule="nonzero">
            <g id="Body" transform="translate(96.000000, 39.000000)">
                <g id="Radar" transform="translate(0.000000, 1.000000)">
                    <g id="002-radar" transform="translate(16.000000, 16.000000)">
                        <path d="M20,0.78125 C9.64453125,0.78125 0.78125,9.64453125 0.78125,20 C0.78125,30.3554688 9.64453125,39.21875 20,39.21875 C30.3554688,39.21875 39.21875,30.3554688 39.21875,20 C39.21875,9.64453125 30.3554688,0.78125 20,0.78125 Z" id="Path" fill="#85E374"></path>
                        <path d="M20,13.75 C16.5539062,13.75 13.75,16.5539062 13.75,20 C13.75,23.4460938 16.5539062,26.25 20,26.25 C23.4460938,26.25 26.25,23.4460938 26.25,20 C26.25,16.5539062 23.4460938,13.75 20,13.75 Z" id="Path" fill="#FED984"></path>
                        <g id="Group" transform="translate(9.296875, 9.296875)" fill="#E6EFFF">
                            <path d="M2.8015625,0.59609375 C3.34453125,1.21015625 3.321875,2.14765625 2.73515625,2.73515625 C2.14765625,3.321875 1.21015625,3.34453125 0.59609375,2.8015625 C0.571875,2.78046875 0.5484375,2.75859375 0.525,2.73515625 C-0.08515625,2.12421875 -0.08515625,1.13515625 0.525,0.525 C1.13515625,-0.08515625 2.12421875,-0.08515625 2.73515625,0.525 C2.75859375,0.5484375 2.78046875,0.571875 2.8015625,0.59609375 Z" id="Path"></path>
                            <path d="M2.73515625,18.6710937 C3.321875,19.2585937 3.34453125,20.1960937 2.8015625,20.8101562 C2.78046875,20.834375 2.75859375,20.8578125 2.73515625,20.88125 C2.12421875,21.4914063 1.13515625,21.4914063 0.525,20.88125 C-0.08515625,20.2710937 -0.08515625,19.2820313 0.525,18.6710937 C0.5484375,18.6476562 0.571875,18.6257812 0.59609375,18.6046875 C1.21015625,18.0617187 2.14765625,18.084375 2.73515625,18.6710937 Z" id="Path"></path>
                        </g>
                        <path d="M31.9539062,20 C31.9539062,20.4324219 32.301875,20.7802344 32.734375,20.7802344 C33.1667969,20.7802344 33.5148437,20.4324219 33.5148437,20 C33.5148437,19.5679687 33.1670313,19.2195312 32.734375,19.2195312 C32.3023437,19.2195312 31.9539062,19.5673437 31.9539062,20 Z" id="Path" fill="#000000"></path>
                        <path d="M20,40 C30.7735937,40 40,30.8052344 40,20 C40,9.22554688 30.8045313,0 20,0 C9.22640625,0 0,9.19476563 0,20 C0,30.7744531 9.19546875,40 20,40 Z M1.58109375,20.78125 L6.5071875,20.78125 C6.65234375,23.3453906 7.50492188,25.868125 8.90867187,27.8810156 C8.37828125,28.7799219 8.49851563,29.9595313 9.26945313,30.730625 C10.0357812,31.496875 11.2142188,31.6252344 12.1189844,31.0914844 C14.131875,32.4952344 16.6546094,33.3477344 19.21875,33.4929687 L19.21875,38.4190625 C9.82921875,38.0045312 1.99546875,30.1707812 1.58109375,20.78125 Z M11.48,10.3747656 C11.7819531,10.675625 11.7859375,11.1728906 11.4799219,11.4792969 C11.175,11.7838281 10.6791406,11.7845313 10.3746094,11.48 C10.0699219,11.1749219 10.0697656,10.6789063 10.3742969,10.374375 C10.6779687,10.0705469 11.1741406,10.0691406 11.48,10.3747656 Z M10.1127344,13.1246875 C10.9454687,13.4317187 11.9188281,13.2491406 12.5847656,12.5840625 C13.2485937,11.9194531 13.4323437,10.9459375 13.125,10.1125 C14.86125,8.933125 17.0178125,8.21117187 19.21875,8.07179688 L19.21875,13.0123437 C15.9646875,13.37375 13.3738281,15.9646094 13.0124219,19.2186719 L8.071875,19.2186719 C8.21125,17.0176562 8.93328125,14.8610156 10.1127344,13.1246875 Z M19.21875,20.78125 L19.21875,25.4120312 C16.8274219,25.0683594 14.9316406,23.1725 14.5879688,20.78125 L19.21875,20.78125 Z M14.5879688,19.21875 C14.9316406,16.8275 16.8275,14.9316406 19.21875,14.5879688 L19.21875,19.21875 L14.5879688,19.21875 Z M20.78125,20.7734375 L25.4120312,20.7734375 C25.0683594,23.1646875 23.1725,25.0683594 20.78125,25.4120312 L20.78125,20.7734375 Z M20.78125,19.21875 L20.78125,14.5879688 C23.1725781,14.9316406 25.0683594,16.8275 25.4120312,19.21875 L20.78125,19.21875 Z M13.0124219,20.78125 C13.3738281,24.0353125 15.9646875,26.6261719 19.21875,26.9875781 L19.21875,31.928125 C17.0175,31.78875 14.8607031,31.0666406 13.1242969,29.8869531 C13.4320312,29.0522656 13.2478125,28.0797656 12.5840625,27.4152344 C11.9200781,26.7520313 10.9475781,26.5680469 10.1130469,26.8757031 C8.93335937,25.1392969 8.21125,22.9825 8.071875,20.78125 L13.0124219,20.78125 L13.0124219,20.78125 Z M10.4103906,28.486875 C10.7204687,28.2126563 11.1901562,28.2314063 11.4792187,28.5200781 C11.7705469,28.8117969 11.7854687,29.2815625 11.5096875,29.5935156 C11.226875,29.9186719 10.6989062,29.9503125 10.374375,29.6257031 C10.0625781,29.3139063 10.0655469,28.7911719 10.4103906,28.486875 Z M38.4189062,19.21875 L35.859375,19.21875 C35.4278906,19.21875 35.078125,19.5685938 35.078125,20 C35.078125,20.4314062 35.4278906,20.7734375 35.859375,20.7734375 L38.4189062,20.7734375 C38.0045312,30.1629687 30.1707812,38.0045312 20.78125,38.4189062 L20.78125,33.4909375 C26.6077344,33.1300781 31.6878906,28.8432031 33.1038281,23.2939844 C33.2105469,22.8758594 32.9580469,22.4504687 32.54,22.3438281 C32.1217188,22.2370313 31.6964844,22.4895313 31.5898438,22.9076562 C30.3390625,27.8097656 25.7746094,31.5655469 20.78125,31.9246094 L20.78125,26.9875781 C24.0353125,26.6261719 26.6261719,24.0353125 26.9875781,20.78125 L29.375,20.78125 C29.8064844,20.78125 30.15625,20.4314062 30.15625,20 C30.15625,19.5685938 29.8064844,19.21875 29.375,19.21875 L26.9875781,19.21875 C26.6261719,15.9646875 24.0353125,13.3738281 20.78125,13.0124219 L20.78125,8.07539063 C25.7746094,8.43445313 30.3390625,12.1902344 31.5899219,17.0923437 C31.6970312,17.5121875 32.1239062,17.7625 32.5400781,17.6561719 C32.958125,17.5495313 33.210625,17.1240625 33.1039062,16.7060156 C31.6892188,11.1620313 26.6133594,6.87023437 20.78125,6.5090625 L20.78125,1.58109375 C30.1707812,1.99546875 38.0045312,9.82921875 38.4189062,19.21875 Z M19.21875,1.58109375 L19.21875,6.5071875 C16.6546094,6.65234375 14.131875,7.50492188 12.1189844,8.90867187 C11.22,8.37835938 10.0404688,8.49867187 9.26945313,9.26945313 C8.49851563,10.0403906 8.37820313,11.2199219 8.90867187,12.1189844 C7.50484375,14.1317969 6.65226563,16.6546094 6.50710938,19.21875 L1.58109375,19.21875 C1.99546875,9.82921875 9.82921875,1.99546875 19.21875,1.58109375 Z" id="Shape" fill="#000000"></path>
                    </g>
                </g>
            </g>
        </g>
    </g>
</svg>