<?xml version="1.0" encoding="UTF-8"?>
<svg width="30px" height="30px" viewBox="0 0 30 30" version="1.1" xmlns="http://www.w3.org/2000/svg" xmlns:xlink="http://www.w3.org/1999/xlink">
    <title>FE2FDBDD-4A0D-4C7E-972F-A20562AECF44</title>
    <g id="📌-Módulos---Mockups" stroke="none" stroke-width="1" fill="none" fill-rule="evenodd">
        <g id="Dashboard-/-00_Dashboard-/-01_Dashboard" transform="translate(-998.000000, -226.000000)" fill="#FFFFFF" fill-rule="nonzero">
            <g id="Body" transform="translate(96.000000, 39.000000)">
                <g id="Buscador" transform="translate(296.000000, 18.000000)">
                    <g transform="translate(0.000000, 152.000000)" id="Group-2">
                        <g id="Icons-/-Search" transform="translate(606.000000, 17.000000)">
                            <path d="M8.56245312,10.8125156 L8.56245312,13.9375219 C8.56245312,17.3837288 11.3662587,20.1875344 14.8124656,20.1875344 C18.2586725,20.1875344 21.0624781,17.3837288 21.0624781,13.9375219 L21.0624781,13.9375219 L21.0624781,10.8125156 L22.6250313,10.8125156 L22.6250313,13.9375219 C22.6250313,17.97753 19.5305251,21.2724865 15.5937672,21.6710373 L15.5937672,21.6710373 L15.5937672,28 L14.0312641,28 L14.0312641,21.6710373 C10.0945062,21.2725365 7,17.97758 7,13.9375219 L7,13.9375219 L7,10.8125156 L8.56245312,10.8125156 Z M14.8125156,3 C17.3973208,3 19.500025,5.10265421 19.500025,7.68745937 L19.500025,7.68745937 L19.500025,13.9374719 C19.500025,16.522327 17.3973708,18.6249812 14.8125156,18.6249812 C12.2276605,18.6249812 10.1250063,16.522327 10.1250063,13.9375219 L10.1250063,13.9375219 L10.1250063,7.68750938 C10.1250063,5.10265421 12.2277105,3 14.8125156,3 Z M14.8125156,4.56250313 C13.0890122,4.56250313 11.6875094,5.96400593 11.6875094,7.68750938 L11.6875094,7.68750938 L11.6875094,13.9375219 C11.6875094,15.6610253 13.0890122,17.0625281 14.8125156,17.0625281 C16.5360191,17.0625281 17.9375219,15.6610253 17.9375219,13.9375219 L17.9375219,13.9375219 L17.9375219,7.68750938 C17.9375219,5.96400593 16.5360191,4.56250313 14.8125156,4.56250313 Z" id="Combined-Shape"></path>
                        </g>
                    </g>
                </g>
            </g>
        </g>
    </g>
</svg>