<?xml version="1.0" encoding="UTF-8"?>
<svg width="40px" height="40px" viewBox="0 0 40 40" version="1.1" xmlns="http://www.w3.org/2000/svg" xmlns:xlink="http://www.w3.org/1999/xlink">
    <title>EEF4E6E3-03D7-4FD0-9616-1AA6E85C9B2D</title>
    <g id="📌-Módulos---Mockups" stroke="none" stroke-width="1" fill="none" fill-rule="evenodd">
        <g id="Dashboard-/-00_Dashboard-/-01_Dashboard" transform="translate(-112.000000, -832.000000)" fill-rule="nonzero">
            <g id="Body" transform="translate(96.000000, 39.000000)">
                <g id="herramientas-de-aprendizaje" transform="translate(0.000000, 777.000000)">
                    <g id="Iconos-/-Aprendizaje" transform="translate(16.000000, 16.000000)">
                        <g id="003-learn" transform="translate(0.000000, 2.000000)">
                            <path d="M25.3235937,29.84375 L39.21875,29.84375 L39.21875,29.84375 L39.21875,31.25 C39.21875,33.3210937 37.5398437,35 35.46875,35 L4.53125,35 C2.46015625,35 0.78125,33.3210937 0.78125,31.25 L0.78125,29.84375 L14.6755469,29.84375 L25.3235937,29.84375 Z" id="Path" fill="#D8D8E4"></path>
                            <path d="M37.4997656,7.61703125 L37.4997656,29.84375 L2.50023437,29.84375 L2.50023437,7.61703125 C2.50023437,6.603125 3.3221875,5.78125 4.33601562,5.78125 L35.6639062,5.78125 C36.6778125,5.78125 37.4997656,6.60320313 37.4997656,7.61703125 Z" id="Path" fill="#ADE5FF"></path>
                            <rect id="Rectangle" fill="#FFB954" x="6.25" y="25.909375" width="27.5" height="4.01875"></rect>
                            <g id="Group" transform="translate(6.250000, 0.781250)" fill="#FFFFFF">
                                <path d="M27.5,25.1478125 L27.5,0 L15.9010937,0 C14.713125,0 13.75,0.833359375 13.75,1.86132813 L13.75,1.86132813 L13.75,25.1478125 L27.5,25.1478125 L27.5,25.1478125 Z" id="Path"></path>
                                <path d="M0.070078125,25.2210938 L0.070078125,0 L11.6689844,0 C12.8570313,0 13.8200781,0.833359375 13.8200781,1.86132813 L13.8200781,1.86132813 L13.8200781,25.2210938 L0.070078125,25.2210938 Z" id="Path"></path>
                            </g>
                            <path d="M15.1425781,7.99703125 L12.4240625,9.73945312 C11.9525,10.0417187 11.3332813,9.70304687 11.3332813,9.14296875 L11.3332813,5.65804687 C11.3332813,5.09796875 11.9525,4.75929687 12.4240625,5.0615625 L15.1425781,6.80398437 C15.5775,7.0828125 15.5775,7.71828125 15.1425781,7.99703125 Z" id="Path" fill="#FF5D5D"></path>
                            <path d="M39.21875,29.0625 L38.2810156,29.0625 L38.2810156,20.4166406 C38.2810156,19.9852344 37.93125,19.6353906 37.4997656,19.6353906 C37.0682812,19.6353906 36.7185156,19.9852344 36.7185156,20.4166406 L36.7185156,29.0625 L36.328125,29.0625 L34.53125,29.0625 L34.53125,25.9096875 L34.53125,6.5625 L35.7030469,6.5625 C36.2629687,6.5625 36.7185938,7.01804687 36.7185938,7.57796875 L36.7185938,14.375 C36.7185938,14.8064062 37.0683594,15.15625 37.4998438,15.15625 C37.9313281,15.15625 38.2810938,14.8064062 38.2810938,14.375 L38.2810938,7.57796875 C38.2810938,6.15648437 37.1246094,5 35.7030469,5 L34.53125,5 L34.53125,0.78125 C34.53125,0.34984375 34.1814844,0 33.75,0 L23.125,0 C21.8485156,0 20.7132813,0.61546875 20,1.56523437 C19.2867187,0.61546875 18.1514844,0 16.875,0 L6.25,0 C5.81851562,0 5.46875,0.34984375 5.46875,0.78125 L5.46875,5 L4.29695312,5 C2.87546875,5 1.71890625,6.15648437 1.71890625,7.57796875 L1.71890625,29.0625 L0.78125,29.0625 C0.349765625,29.0625 0,29.4123438 0,29.84375 L0,31.25 C0,33.7485156 2.03273437,35.78125 4.53125,35.78125 L35.46875,35.78125 C37.9672656,35.78125 40,33.7485156 40,31.25 L40,29.84375 C40,29.4123438 39.6502344,29.0625 39.21875,29.0625 Z M20.7798438,29.0625 C20.7801563,29.0532031 20.78125,29.0440625 20.78125,29.0346875 C20.78125,27.7423437 21.8326563,26.6909375 23.125,26.6909375 L32.96875,26.6909375 L32.96875,29.0625 L20.7798438,29.0625 Z M7.03125,26.6909375 L16.875,26.6909375 C18.1673438,26.6909375 19.21875,27.7423438 19.21875,29.0346875 C19.21875,29.0440625 19.2198438,29.0532031 19.2201563,29.0625 L7.03125,29.0625 L7.03125,26.6909375 Z M23.125,1.5625 L32.96875,1.5625 L32.96875,25.1284375 L23.125,25.1284375 C22.2464062,25.1284375 21.4345313,25.4200781 20.78125,25.9114844 L20.78125,9.006875 L20.78125,3.90625 C20.78125,2.61390625 21.8326563,1.5625 23.125,1.5625 Z M7.03125,1.5625 L16.875,1.5625 C18.1673438,1.5625 19.21875,2.61390625 19.21875,3.90625 L19.21875,9.006875 L19.21875,25.9117969 C18.5653906,25.4202344 17.75375,25.1284375 16.875,25.1284375 L7.03125,25.1284375 L7.03125,1.5625 Z M3.28148437,7.57796875 C3.28148437,7.01804688 3.73703125,6.5625 4.29703125,6.5625 L5.46875,6.5625 L5.46875,25.9096875 L5.46875,29.0625 L3.28148437,29.0625 L3.28148437,7.57796875 Z M38.4375,31.25 C38.4375,32.8869531 37.1057031,34.21875 35.46875,34.21875 L4.53125,34.21875 C2.89429687,34.21875 1.5625,32.8869531 1.5625,31.25 L1.5625,30.625 L38.4375,30.625 L38.4375,31.25 Z" id="Shape" fill="#000000"></path>
                            <path d="M21.7447656,31.640625 L18.2942187,31.640625 C17.8627344,31.640625 17.5129687,31.9904688 17.5129687,32.421875 C17.5129687,32.8532813 17.8627344,33.203125 18.2942187,33.203125 L21.7447656,33.203125 C22.17625,33.203125 22.5260156,32.8532813 22.5260156,32.421875 C22.5260156,31.9904688 22.17625,31.640625 21.7447656,31.640625 Z" id="Path" fill="#000000"></path>
                            <path d="M37.5,16.715625 C37.29375,16.715625 37.0929688,16.7992187 36.9476563,16.9445313 C36.8023437,17.0898438 36.71875,17.290625 36.71875,17.496875 C36.71875,17.7023438 36.8023437,17.9039063 36.9476563,18.0492188 C37.0929688,18.1944531 37.29375,18.278125 37.5,18.278125 C37.7054688,18.278125 37.9070312,18.1945313 38.0523437,18.0492188 C38.1976563,17.9039063 38.28125,17.7023438 38.28125,17.496875 C38.28125,17.2905469 38.1976563,17.0898438 38.0523437,16.9445313 C37.9070312,16.7992187 37.7054688,16.715625 37.5,16.715625 Z" id="Path" fill="#000000"></path>
                            <path d="M24.5426563,6.56085937 L29.2301563,6.56085937 C29.6616406,6.56085937 30.0114063,6.21101562 30.0114063,5.77960937 C30.0114063,5.34820312 29.6616406,4.99835937 29.2301563,4.99835937 L24.5426563,4.99835937 C24.1111719,4.99835937 23.7614063,5.34820312 23.7614063,5.77960937 C23.7614063,6.21101562 24.1111719,6.56085937 24.5426563,6.56085937 Z" id="Path" fill="#000000"></path>
                            <path d="M24.5426563,10.3108594 L29.2301563,10.3108594 C29.6616406,10.3108594 30.0114063,9.96101562 30.0114063,9.52960937 C30.0114063,9.09820313 29.6616406,8.74835937 29.2301563,8.74835937 L24.5426563,8.74835937 C24.1111719,8.74835937 23.7614063,9.09820313 23.7614063,9.52960937 C23.7614063,9.96101562 24.1111719,10.3108594 24.5426563,10.3108594 Z" id="Path" fill="#000000"></path>
                            <path d="M24.5426563,14.0608594 L29.2301563,14.0608594 C29.6616406,14.0608594 30.0114063,13.7110156 30.0114063,13.2796094 C30.0114063,12.8482031 29.6616406,12.4983594 29.2301563,12.4983594 L24.5426563,12.4983594 C24.1111719,12.4983594 23.7614063,12.8482031 23.7614063,13.2796094 C23.7614063,13.7110156 24.1111719,14.0608594 24.5426563,14.0608594 Z" id="Path" fill="#000000"></path>
                            <path d="M24.5426563,17.8108594 L29.2301563,17.8108594 C29.6616406,17.8108594 30.0114063,17.4610156 30.0114063,17.0296094 C30.0114063,16.5982031 29.6616406,16.2483594 29.2301563,16.2483594 L24.5426563,16.2483594 C24.1111719,16.2483594 23.7614063,16.5982031 23.7614063,17.0296094 C23.7614063,17.4610156 24.1111719,17.8108594 24.5426563,17.8108594 Z" id="Path" fill="#000000"></path>
                            <path d="M24.5426563,21.5608594 L29.2301563,21.5608594 C29.6616406,21.5608594 30.0114063,21.2110156 30.0114063,20.7796094 C30.0114063,20.3482031 29.6616406,19.9983594 29.2301563,19.9983594 L24.5426563,19.9983594 C24.1111719,19.9983594 23.7614063,20.3482031 23.7614063,20.7796094 C23.7614063,21.2110156 24.1111719,21.5608594 24.5426563,21.5608594 Z" id="Path" fill="#000000"></path>
                            <path d="M15.4801563,12.4885156 L10.7926563,12.4885156 C10.3611719,12.4885156 10.0114063,12.8383594 10.0114063,13.2697656 C10.0114063,13.7011719 10.3611719,14.0510156 10.7926563,14.0510156 L15.4801563,14.0510156 C15.9116406,14.0510156 16.2614063,13.7011719 16.2614063,13.2697656 C16.2614063,12.8383594 15.9116406,12.4885156 15.4801563,12.4885156 Z" id="Path" fill="#000000"></path>
                            <path d="M15.4801563,16.2483594 L10.7926563,16.2483594 C10.3611719,16.2483594 10.0114063,16.5982031 10.0114063,17.0296094 C10.0114063,17.4610156 10.3611719,17.8108594 10.7926563,17.8108594 L15.4801563,17.8108594 C15.9116406,17.8108594 16.2614063,17.4610156 16.2614063,17.0296094 C16.2614063,16.5982031 15.9116406,16.2483594 15.4801563,16.2483594 Z" id="Path" fill="#000000"></path>
                            <path d="M15.4801563,20.0082812 L13.6458594,20.0082812 C13.214375,20.0082812 12.8646094,20.358125 12.8646094,20.7895312 C12.8646094,21.2209375 13.214375,21.5707812 13.6458594,21.5707812 L15.4801563,21.5707812 C15.9116406,21.5707812 16.2614063,21.2209375 16.2614063,20.7895312 C16.2614063,20.358125 15.9116406,20.0082812 15.4801563,20.0082812 Z" id="Path" fill="#000000"></path>
                            <path d="M10.7929688,20.0085156 C10.5867188,20.0085156 10.3859375,20.0914062 10.2398437,20.2367188 C10.0945312,20.3827344 10.0117188,20.5835156 10.0117188,20.7897656 C10.0117188,20.9953125 10.0945312,21.1967969 10.2398437,21.3421094 C10.3859375,21.4874219 10.5867187,21.5710156 10.7929688,21.5710156 C10.9984375,21.5710156 11.2,21.4875 11.3453125,21.3421094 C11.490625,21.1967188 11.5742188,20.9953125 11.5742188,20.7897656 C11.5742188,20.5842969 11.490625,20.3827344 11.3453125,20.2367188 C11.2,20.0914063 10.9984375,20.0085156 10.7929688,20.0085156 Z" id="Path" fill="#000000"></path>
                            <path d="M11.3271094,10.4501562 C11.5503906,10.5722656 11.7963281,10.6328125 12.0417969,10.6328125 C12.3217969,10.6328125 12.6013281,10.5539063 12.8457031,10.3971875 L15.5641406,8.6546875 C15.9935937,8.37953125 16.2499219,7.91070313 16.25,7.400625 C16.25,6.89054688 15.9936719,6.42164063 15.5641406,6.14625 L12.8457031,4.40390625 C12.386875,4.10984375 11.805,4.08960938 11.3271094,4.3509375 C10.8490625,4.61234375 10.5521094,5.11320313 10.5521094,5.65804688 L10.5521094,9.14289062 C10.5520312,9.68789062 10.8490625,10.1886719 11.3271094,10.4501562 Z M12.1145312,5.79117187 L14.6253906,7.40054688 L12.1145312,9.00992187 L12.1145312,5.79117187 L12.1145312,5.79117187 Z" id="Shape" fill="#000000"></path>
                        </g>
                    </g>
                </g>
            </g>
        </g>
    </g>
</svg>