<?xml version="1.0" encoding="UTF-8"?>
<svg width="40px" height="40px" viewBox="0 0 40 40" version="1.1" xmlns="http://www.w3.org/2000/svg" xmlns:xlink="http://www.w3.org/1999/xlink">
    <title>8203B3C8-A8BC-437D-9C9B-D47C2CE857D5@1.00x</title>
    <g id="📌-Módulos---Mockups" stroke="none" stroke-width="1" fill="none" fill-rule="evenodd">
        <g id="Dashboard-/-00_Dashboard-/-01_Dashboard" transform="translate(-1104.000000, -688.000000)" fill-rule="nonzero">
            <g id="Body" transform="translate(96.000000, 39.000000)">
                <g id="OKRS" transform="translate(992.000000, 633.000000)">
                    <g id="006-target" transform="translate(16.000000, 16.000000)">
                        <circle id="Oval" fill="#FAE196" cx="17.969375" cy="22.0335937" r="17.1850781"></circle>
                        <circle id="Oval" fill="#FF5A5A" cx="17.969375" cy="22.0335938" r="13.123125"></circle>
                        <circle id="Oval" fill="#FAE196" cx="17.969375" cy="22.0335938" r="8.74875"></circle>
                        <circle id="Oval" fill="#FF5A5A" cx="17.969375" cy="22.0335938" r="4.686875"></circle>
                        <polygon id="Path" fill="#C8F5FF" points="32.3298437 13.6632813 26.3339844 13.6632813 26.3339844 7.66742188 33.2201562 0.781171875 33.2201562 6.77703125 39.2160937 6.77703125"></polygon>
                        <path d="M27.7173437,31.9488281 C28.075,31.601875 28.0141406,31.109375 27.7485156,30.83375 C27.4830469,30.558125 26.9932031,30.4790625 26.633125,30.8235937 C26.630625,30.8260156 26.6280469,30.8285156 26.6254687,30.8310156 C26.2701562,31.1804687 26.334375,31.6724219 26.6017969,31.94625 C26.7438281,32.0917187 26.94875,32.1813281 27.1633594,32.1813281 C27.3528125,32.1813281 27.5496875,32.1115625 27.7173437,31.9488281 Z" id="Path" fill="#000000"></path>
                        <path d="M33.8179688,15.3325781 C33.4134375,15.4824219 33.2069531,15.9317969 33.3567969,16.3364062 C34.0311719,18.1570313 34.3730469,20.0739063 34.3730469,22.0338281 C34.3730469,31.0789844 27.0142188,38.4377344 17.9691406,38.4377344 C14.6127344,38.4377344 11.38625,37.4313281 8.63820312,35.5272656 C8.28375,35.2815625 7.79695312,35.3697656 7.55125,35.7244531 C7.30546875,36.0790625 7.39375,36.5657031 7.7484375,36.8114063 C10.7589844,38.8974219 14.2932812,40 17.9691406,40 C22.768125,40 27.2797656,38.1311719 30.6732031,34.7378125 C34.0665625,31.3444531 35.9353906,26.8327344 35.9353906,22.0338281 C35.9353906,19.888125 35.5607812,17.7886719 34.8219531,15.7938281 C34.6719531,15.3892188 34.2226563,15.1828906 33.8179688,15.3325781 Z" id="Path" fill="#000000"></path>
                        <path d="M1.56507813,22.03375 C1.56507813,12.9885937 8.92390625,5.62984375 17.9689844,5.62984375 C19.8657031,5.62984375 21.7241406,5.95046875 23.4928125,6.58289062 C23.8989844,6.72820312 24.3461719,6.51664062 24.4913281,6.11039062 C24.6365625,5.70421875 24.425,5.2571875 24.0188281,5.111875 C22.0807812,4.41890625 20.0453906,4.06757812 17.9689844,4.06757812 C13.17,4.06757812 8.65835937,5.93640625 5.26492187,9.32976562 C1.87164063,12.723125 0.0028125,17.2348437 0.0028125,22.03375 C0.0028125,25.7552344 1.130625,29.3257031 3.26453125,32.3591406 C3.4165625,32.5753906 3.65835937,32.6909375 3.90414063,32.6909375 C4.059375,32.6909375 4.21617187,32.6447656 4.3528125,32.5485937 C4.70570313,32.3003125 4.79054688,31.8130469 4.54234375,31.4602344 C2.5946875,28.6914062 1.56507813,25.4317969 1.56507813,22.03375 Z" id="Path" fill="#000000"></path>
                        <path d="M39.9377344,6.478125 C39.8167969,6.18625 39.5320313,5.9959375 39.2160156,5.9959375 L35.1115625,5.9959375 L35.5529688,5.55453125 C35.8579688,5.24953125 35.8579688,4.75484375 35.5529688,4.44976562 C35.2478906,4.14476562 34.7533594,4.14476562 34.4482031,4.44976562 L34.0011719,4.89679687 L34.0011719,0.781171875 C34.0011719,0.4653125 33.8107813,0.180390625 33.5189844,0.059453125 C33.2271094,-0.061484375 32.8910156,0.005390625 32.6677344,0.22875 L25.7814844,7.115 C25.635,7.26148437 25.5526563,7.46015625 25.5526563,7.66734375 L25.5526563,10.3771094 C23.2994531,8.90320312 20.701875,8.12945312 17.9689062,8.12945312 C10.3021094,8.12945312 4.06460937,14.3669531 4.06460937,22.03375 C4.06460937,29.7005469 10.3021094,35.9380469 17.9689062,35.9380469 C20.5135938,35.9380469 23.003125,35.2440625 25.1683594,33.93125 C25.5372656,33.7075781 25.6549219,33.2271875 25.4313281,32.8582812 C25.2077344,32.4894531 24.7273437,32.3715625 24.3584375,32.5953125 C22.4374219,33.7600781 20.2279688,34.3757031 17.9689844,34.3757031 C11.1635938,34.3757031 5.62695312,28.8391406 5.62695312,22.0336719 C5.62695312,15.2282031 11.1635938,9.69164062 17.9689844,9.69164062 C20.7478906,9.69164062 23.3688281,10.5923437 25.5527344,12.2963281 L25.5527344,13.3451562 L24.1292188,14.7686719 C22.4667969,13.356875 20.3158594,12.5036719 17.9689844,12.5036719 C12.7141406,12.5036719 8.4390625,16.77875 8.4390625,22.0335937 C8.4390625,27.2884375 12.7141406,31.5635156 17.9689844,31.5635156 C23.2238281,31.5635156 27.4989063,27.2884375 27.4989063,22.0335937 C27.4989063,19.6867969 26.6457813,17.5358594 25.2339063,15.8733594 L26.6630469,14.4442187 L27.7022656,14.4442187 C29.38625,16.6024219 30.3109375,19.2871875 30.3109375,22.0335937 C30.3109375,24.3364844 29.6727344,26.5826562 28.4653906,28.5291406 C28.2379688,28.8957031 28.3508594,29.3772656 28.7175781,29.6046875 C28.8457813,29.6842187 28.9880469,29.7221094 29.1285156,29.7221094 C29.3899219,29.7221094 29.6452344,29.5909375 29.793125,29.3526562 C31.1540625,27.1586719 31.8732813,24.6278125 31.8732813,22.0335937 C31.8732813,19.3353906 31.0807031,16.6898437 29.6194531,14.4442187 L32.3296875,14.4442187 C32.536875,14.4442187 32.7354687,14.361875 32.8820312,14.2153906 L39.7682813,7.32914062 C39.9917969,7.10601562 40.0585938,6.77 39.9377344,6.478125 Z M32.4390625,2.66703125 L32.4390625,6.4590625 L27.1151562,11.7829687 L27.1151562,7.9909375 L32.4390625,2.66703125 Z M25.9367188,22.03375 C25.9367188,26.4271094 22.3624219,30.0014062 17.9690625,30.0014062 C13.5757031,30.0014062 10.0014063,26.4271094 10.0014063,22.03375 C10.0014063,17.6403906 13.5757031,14.0660937 17.9690625,14.0660937 C19.8850781,14.0660937 21.6450781,14.7460156 23.0210156,15.8771094 L21.2419531,17.6561719 C20.3289063,16.9717187 19.1955469,16.5657812 17.9691406,16.5657812 C14.9540625,16.5657812 12.5011719,19.01875 12.5011719,22.03375 C12.5011719,25.04875 14.9541406,27.5017187 17.9691406,27.5017187 C20.9841406,27.5017187 23.4371094,25.04875 23.4371094,22.03375 C23.4371094,20.8073437 23.0311719,19.6739844 22.3467188,18.7608594 L24.1257813,16.9817969 C25.2567969,18.3576562 25.9367188,20.1177344 25.9367188,22.03375 Z M21.8747656,22.03375 C21.8747656,24.1873437 20.1226563,25.9394531 17.9690625,25.9394531 C15.8154688,25.9394531 14.0633594,24.1873437 14.0633594,22.03375 C14.0633594,19.8801563 15.8154688,18.1280469 17.9690625,18.1280469 C18.7639844,18.1280469 19.5036719,18.3673437 20.1213281,18.7767969 L17.4167188,21.4814062 C17.1117188,21.7864062 17.1117188,22.2810937 17.4167188,22.5861719 C17.5692969,22.73875 17.7691406,22.815 17.9690625,22.815 C18.1689844,22.815 18.3688281,22.73875 18.5214063,22.5861719 L21.2260156,19.8815625 C21.6354688,20.4991406 21.8747656,21.2388281 21.8747656,22.03375 Z M32.00625,12.8821094 L28.2254688,12.8821094 L33.549375,7.55820312 L37.3301563,7.55820312 L32.00625,12.8821094 Z" id="Shape" fill="#000000"></path>
                        <path d="M5.80203125,33.3882031 C5.59570312,33.3882031 5.39421875,33.4717969 5.24976563,33.6171094 C5.10367187,33.7624219 5.02085937,33.9639063 5.02085937,34.169375 C5.02085937,34.3748437 5.10367187,34.5763281 5.24976563,34.7216406 C5.395,34.8669531 5.59578125,34.9505469 5.80203125,34.9505469 C6.0075,34.9505469 6.20898438,34.8669531 6.35421875,34.7216406 C6.49953125,34.5763281 6.58320312,34.3748437 6.58320312,34.169375 C6.58320312,33.9639063 6.49960938,33.7632031 6.35421875,33.6171094 C6.20898437,33.471875 6.00742187,33.3882031 5.80203125,33.3882031 Z" id="Path" fill="#000000"></path>
                    </g>
                </g>
            </g>
        </g>
    </g>
</svg>