<?xml version="1.0" encoding="UTF-8"?>
<svg width="360px" height="114px" viewBox="0 0 360 114" version="1.1" xmlns="http://www.w3.org/2000/svg" xmlns:xlink="http://www.w3.org/1999/xlink">
    <title>C2BB50C2-40C2-4BE1-92D0-D4B9BCB333C4</title>
    <g id="📌-Módulos---Mockups" stroke="none" stroke-width="1" fill="none" fill-rule="evenodd">
        <g id="Dashboard-/-00_Dashboard-/-01_Dashboard" transform="translate(-540.000000, -57.000000)">
            <g id="Body" transform="translate(96.000000, 39.000000)">
                <g id="Buscador" transform="translate(296.000000, 18.000000)">
                    <g id="Logos-/-Prototype" transform="translate(148.000000, 0.000000)">
                        <g id="Prototype" transform="translate(10.000000, 10.000000)">
                            <path d="M33.0757471,73.7591571 L3.87547893,57.1890421 L9.82873563,53.5604215 C10.1413793,53.3715326 10.2390805,52.9611877 10.0501916,52.6491954 C9.86130268,52.3359004 9.45095785,52.2381992 9.13896552,52.4270881 L3.25019157,56.0166284 L3.25019157,20.426705 L32.410728,3.88264368 L32.410728,10.8845594 C32.410728,11.248659 32.7109962,11.5482759 33.0757471,11.5482759 C33.4404981,11.5482759 33.7401149,11.248659 33.7401149,10.8845594 L33.7401149,3.88264368 L62.9013027,20.426705 L62.9013027,56.0166284 L57.0125287,52.4270881 C56.6998851,52.2316858 56.2895402,52.3359004 56.1006513,52.6491954 C55.9117625,52.9611877 56.0094636,53.3715326 56.3221073,53.5604215 L62.275364,57.1890421 L33.0757471,73.7591571 Z M65.3308046,18.0616858 L33.88341,0.214942529 C33.3883908,-0.0716475096 32.7761303,-0.0716475096 32.2745977,0.214942529 L0.827203065,18.0616858 C0.319157088,18.3489272 9.25611227e-15,18.8895402 9.25611227e-15,19.4757471 L9.25611227e-15,57.7817625 C9.25611227e-15,58.367318 0.312643678,58.907931 0.827203065,59.1951724 L32.2745977,77.0419157 C32.5221073,77.1852107 32.8021839,77.2568582 33.0757471,77.2568582 C33.3493103,77.2568582 33.629387,77.1852107 33.8768966,77.0419157 L65.3236398,59.1951724 C65.8323372,58.907931 66.1508429,58.367318 66.1508429,57.7817625 L66.1508429,19.4757471 C66.1508429,18.8895402 65.8381992,18.3489272 65.3308046,18.0616858 L65.3308046,18.0616858 Z" id="Fill-1" fill="#EF4237"></path>
                            <path d="M33.7397893,64.5099847 L33.7397893,57.1368046 C33.7397893,56.7720536 33.4401724,56.4724368 33.0754215,56.4724368 C32.7106705,56.4724368 32.4110536,56.7720536 32.4110536,57.1368046 L32.4110536,64.5099847 L10.7865326,52.238069 L10.7865326,25.8392184 L17.0003257,29.6235096 C17.1110536,29.6886437 17.228295,29.7212107 17.3455364,29.7212107 C17.5669923,29.7212107 17.7884483,29.6104828 17.9122031,29.402705 C18.101092,29.08941 18.0033908,28.6790651 17.6907471,28.4901762 L11.4183333,24.6668046 L33.0754215,12.376 L54.7325096,24.6668046 L48.4607471,28.4901762 C48.1481034,28.6790651 48.0504023,29.08941 48.2392912,29.402705 C48.363046,29.6104828 48.5845019,29.7212107 48.8053065,29.7212107 C48.9231992,29.7212107 49.0404406,29.6886437 49.1511686,29.6235096 L55.3649617,25.8392184 L55.3649617,52.238069 L33.7397893,64.5099847 Z M57.3059579,23.1361533 L33.720249,9.75109579 C33.322931,9.52312644 32.8344253,9.52312644 32.4371073,9.75109579 L8.85204981,23.1361533 C8.44170498,23.370636 8.1941954,23.8005211 8.1941954,24.2694866 L8.1941954,53.0007893 C8.1941954,53.4697548 8.44821839,53.8996398 8.85204981,54.1334713 L32.4371073,67.5191801 C32.639023,67.629908 32.8604789,67.6885287 33.0819349,67.6885287 C33.3033908,67.6885287 33.5248467,67.629908 33.7267625,67.5191801 L57.3124713,54.1334713 C57.7228161,53.8996398 57.9703257,53.4697548 57.9703257,53.0007893 L57.9703257,24.2694866 C57.9638123,23.8005211 57.7163027,23.3641226 57.3059579,23.1361533 Z" id="Fill-3" fill="#F15B2B"></path>
                            <polygon id="Fill-5" fill="#F89521" points="17.3519847 29.0570383 33.0760077 20.1336667 33.0760077 39.283092 17.3519847 48.2064636"></polygon>
                            <polygon id="Fill-7" fill="#F89521" points="33.0754215 57.1302261 48.7994444 48.2068544 33.0754215 39.2834828 17.3520498 48.2068544"></polygon>
                            <polygon id="Fill-9" fill="#F89521" points="48.7991839 29.0570383 33.0758123 20.1336667 33.0758123 39.283092 48.7991839 48.2064636"></polygon>
                            <path d="M33.0757471,56.3809234 L18.667433,48.2065939 L33.0757471,40.031613 L47.48341,48.2065939 L33.0757471,56.3809234 Z M32.4244061,21.24759 L32.4244061,38.9054444 L18.0030651,47.0928008 L18.0030651,29.4349464 L32.4244061,21.24759 Z M48.1477778,47.085636 L42.5006513,43.8816897 L33.7205747,38.898931 L33.7205747,21.24759 L48.1412644,29.4277816 L48.1412644,47.085636 L48.1477778,47.085636 Z M49.3853257,48.4801571 C49.3983525,48.44759 49.4178927,48.415023 49.4244061,48.3824559 C49.437433,48.3303487 49.4439464,48.271728 49.4439464,48.2131073 L49.4439464,29.0571686 C49.4439464,28.8220345 49.3201916,28.607092 49.1117625,28.4905019 L33.3883908,19.5664789 C33.3558238,19.5469387 33.3232567,19.5404253 33.2906897,19.5273985 C33.2711494,19.5208851 33.2516092,19.5085096 33.232069,19.5013448 C33.1995019,19.4948314 33.1669349,19.488318 33.1343678,19.488318 C33.1083142,19.488318 33.0887739,19.4824559 33.0627203,19.4824559 C33.0366667,19.4824559 33.0171264,19.488318 32.9910728,19.488318 C32.9585057,19.4948314 32.9259387,19.4948314 32.8933716,19.5013448 C32.8738314,19.5085096 32.8542912,19.5143716 32.834751,19.5273985 C32.8021839,19.5404253 32.7696169,19.5469387 32.7370498,19.5664789 L17.0130268,28.4905019 C16.8111111,28.607092 16.6814943,28.8220345 16.6814943,29.0571686 L16.6814943,48.2131073 C16.6814943,48.271728 16.6873563,48.3303487 16.7003831,48.3824559 C16.7075479,48.415023 16.7264368,48.44759 16.7394636,48.4801571 C16.7466284,48.4996973 16.7524904,48.5192375 16.7655172,48.5322644 C16.7850575,48.5648314 16.8111111,48.5908851 16.8313027,48.6234521 C16.8443295,48.6364789 16.8501916,48.6560192 16.8632184,48.669046 C16.88341,48.6885862 16.9153257,48.7081264 16.9413793,48.7276667 C16.9609195,48.7406935 16.9811111,48.7602337 17,48.7732605 L17.0071648,48.7732605 L32.7305364,57.6972835 C32.8282375,57.7552529 32.9389655,57.7813065 33.0496935,57.7813065 C33.1604215,57.7813065 33.2711494,57.7552529 33.3688506,57.6972835 L49.0922222,48.7732605 L49.0987356,48.7732605 C49.1182759,48.7602337 49.1378161,48.7413448 49.1573563,48.7276667 C49.18341,48.7081264 49.2094636,48.6885862 49.2355172,48.669046 C49.2485441,48.6560192 49.2615709,48.6364789 49.2680843,48.6234521 C49.2941379,48.5973985 49.3136782,48.5648314 49.3332184,48.5322644 C49.3722989,48.5192375 49.3788123,48.4996973 49.3853257,48.4801571 L49.3853257,48.4801571 Z" id="Fill-11" fill="#EF4237"></path>
                            <path d="M336.385969,45.9099004 C334.422176,45.9099004 332.824437,47.5076398 332.824437,49.4720843 C332.824437,51.4358774 334.422176,53.0342682 336.385969,53.0342682 C338.350414,53.0342682 339.948153,51.4358774 339.948153,49.4720843 C339.948153,47.5076398 338.350414,45.9099004 336.385969,45.9099004" id="Fill-13" fill="#EF4237"></path>
                            <path d="M253.227766,23.929682 L253.227766,38.9724023 C253.227766,41.6787241 252.716464,43.7174215 251.708188,45.0305249 C250.384663,46.7376897 248.656655,47.5681494 246.427766,47.5681494 C243.987843,47.5681494 242.167996,46.5976513 240.862709,44.6012912 C240.043322,43.3455057 239.628418,41.3504483 239.628418,38.6727854 L239.628418,27.6507931 C239.628418,26.4542797 238.848111,25.3971533 237.705008,25.0434751 L234.101789,23.9290307 L234.101789,40.0197586 C234.101789,43.8359655 235.126349,46.9089923 237.148111,49.1554674 C239.477307,51.729567 242.599184,53.0342031 246.427766,53.0342031 C248.86769,53.0342031 251.107651,52.4558123 253.085123,51.3146628 C253.133973,51.2866552 253.178916,51.2527854 253.227766,51.2241264 L253.227766,58.779682 C253.227766,59.9768467 254.007421,61.0339732 255.151176,61.3876513 L258.753743,62.5014444 L258.753743,40.1396054 L258.753743,23.929682 L258.753743,23.9290307 L253.227766,23.9290307 L253.227766,23.929682 Z" id="Fill-15" fill="#231F20"></path>
                            <path d="M320.196563,35.9737586 L314.150816,39.9293525 C313.89549,41.7023027 313.126257,43.2472835 311.800126,44.6170536 C310.177636,46.3124943 308.228172,47.137092 305.842962,47.137092 C303.47208,47.137092 301.511544,46.3281264 299.845414,44.6626475 C298.105031,42.9405019 297.25959,40.90441 297.25959,38.4377816 C297.25959,35.9926475 298.104379,33.9767471 299.845414,32.2708851 C301.510241,30.6249464 303.415414,29.825751 305.670356,29.825751 C307.686257,29.825751 309.39733,30.4008851 310.870663,31.5791609 L301.047138,38.1564023 C301.042579,38.2638736 301.036716,38.3700421 301.036716,38.4820728 C301.036716,40.3533755 302.125107,41.9660958 303.700701,42.7346782 L316.959398,34.0594674 C318.299207,33.1834138 318.639207,31.3609617 317.696065,30.0680498 C317.249897,29.4564406 316.749015,28.8682797 316.19277,28.3042184 C313.369207,25.4011916 309.92687,23.9291609 305.959552,23.9291609 C301.904303,23.9291609 298.378594,25.3373602 295.48208,28.1153295 C294.11687,29.4193142 293.038249,31.0053295 292.277483,32.8277816 C291.517368,34.6476284 291.132425,36.5547548 291.132425,38.495751 C291.132425,42.4604636 292.573192,45.9112682 295.415644,48.7537203 C298.275682,51.593567 301.784456,53.033682 305.842962,53.033682 C309.883881,53.033682 313.354877,51.6020345 316.1589,48.7791226 C318.979858,45.9386245 320.410854,42.4884713 320.410854,38.5250613 C320.410854,37.6483563 320.33595,36.7990077 320.196563,35.9737586" id="Fill-17" fill="#231F20"></path>
                            <path d="M155.188506,47.1374828 C150.407663,47.1374828 146.532184,43.2626552 146.532184,38.4818123 C146.532184,33.700318 150.407663,29.8254904 155.188506,29.8254904 C159.969349,29.8254904 163.844828,33.700318 163.844828,38.4818123 C163.844828,43.2626552 159.969349,47.1374828 155.188506,47.1374828 M155.188506,23.9289004 C147.151609,23.9289004 140.636245,30.4442644 140.636245,38.4818123 C140.636245,46.5187088 147.151609,53.0340728 155.188506,53.0340728 C163.225402,53.0340728 169.740766,46.5187088 169.740766,38.4818123 C169.740766,30.4442644 163.225402,23.9289004 155.188506,23.9289004" id="Fill-19" fill="#231F20"></path>
                            <path d="M201.921571,47.1374828 C197.140728,47.1374828 193.265249,43.2626552 193.265249,38.4818123 C193.265249,33.700318 197.140728,29.8254904 201.921571,29.8254904 C206.701762,29.8254904 210.577893,33.700318 210.577893,38.4818123 C210.577893,43.2626552 206.701762,47.1374828 201.921571,47.1374828 M201.921571,23.9289004 C193.884674,23.9289004 187.368659,30.4442644 187.368659,38.4818123 C187.368659,46.5187088 193.884674,53.0340728 201.921571,53.0340728 C209.958467,53.0340728 216.473831,46.5187088 216.473831,38.4818123 C216.473831,30.4442644 209.958467,23.9289004 201.921571,23.9289004" id="Fill-21" fill="#231F20"></path>
                            <path d="M179.111609,47.0472069 C178.403602,46.7326092 177.928774,46.2011149 177.646743,45.3914981 C177.390115,44.7583946 177.259847,43.7403487 177.259847,42.3647165 L177.259847,29.3059808 L182.207433,29.3059808 L182.207433,23.9291609 L177.259847,23.9291609 L177.259847,18.3693142 C177.259847,17.1402337 176.46,16.055751 175.286284,15.6923027 L171.305939,14.4619195 L171.305939,42.5373218 C171.305939,45.4286245 171.772299,47.6822644 172.691992,49.2350613 C173.639693,50.8354061 175.202261,51.9413831 177.338659,52.521728 C178.615287,52.8662874 180.339387,53.033682 182.610613,53.033682 L185.804138,53.033682 L185.804138,47.5708851 L182.870498,47.5708851 C181.15682,47.5708851 179.891916,47.395023 179.111609,47.0472069" id="Fill-23" fill="#231F20"></path>
                            <path d="M225.844674,47.0472069 C225.136667,46.7326092 224.661839,46.2011149 224.379808,45.3914981 C224.12318,44.7583946 223.992912,43.7403487 223.992912,42.3647165 L223.992912,29.3059808 L228.939847,29.3059808 L228.939847,23.9291609 L223.992912,23.9291609 L223.992912,18.3693142 C223.992912,17.1402337 223.192414,16.055751 222.018697,15.6923027 L218.039004,14.4619195 L218.039004,42.5373218 C218.039004,45.4286245 218.505364,47.6822644 219.425057,49.2350613 C220.372107,50.8354061 221.935326,51.9413831 224.071724,52.521728 C225.348352,52.8662874 227.072452,53.033682 229.343027,53.033682 L232.536552,53.033682 L232.536552,47.5708851 L229.602912,47.5708851 C227.889885,47.5708851 226.624981,47.395023 225.844674,47.0472069" id="Fill-25" fill="#231F20"></path>
                            <path d="M129.986234,26.0401571 C125.361713,28.9034521 123.018188,33.453069 123.018188,39.5639502 L123.018188,53.033682 L126.998533,51.8032989 C128.172249,51.4405019 128.972096,50.3553678 128.972096,49.1262874 L128.972096,40.5455211 C128.972096,37.1917663 129.689222,34.6476284 131.103935,32.9828008 C132.901636,30.8574751 135.049107,29.825751 137.671406,29.825751 C138.156655,29.825751 138.619759,29.8706935 139.071138,29.940387 L139.071138,23.9982031 C138.575467,23.9539119 138.07133,23.9291609 137.556119,23.9291609 C134.834816,23.9291609 132.288073,24.6397739 129.986234,26.0401571" id="Fill-27" fill="#231F20"></path>
                            <path d="M106.742479,23.9290307 C104.021176,23.9290307 101.474433,24.6396437 99.1725939,26.0400268 C94.5480728,28.9039732 92.2045479,33.4529387 92.2045479,39.5638199 L92.2045479,62.5014444 L96.1855441,61.27041 C97.3586092,60.907613 98.1584559,59.8224789 98.1584559,58.5947011 L98.1584559,40.5453908 C98.1584559,37.191636 98.8755824,34.6474981 100.290295,32.9826705 C102.087996,30.8579962 104.236119,29.826272 106.857766,29.826272 C109.315927,29.826272 111.328571,30.7133985 113.009682,32.5397586 C114.549452,34.2071916 115.297843,36.1455824 115.297843,38.4663103 C115.297843,40.9922107 114.488877,43.028954 112.824701,44.6937816 C111.179414,46.3384176 109.209107,47.137613 106.800448,47.137613 C105.21313,47.137613 103.681828,46.6927471 102.248226,45.8153908 C102.134241,45.7443946 102.012441,45.6636284 101.887383,45.577 L101.887383,51.8142414 C103.572402,52.6238582 105.360333,53.0342031 107.232939,53.0342031 C109.080142,53.0342031 110.91041,52.6531686 112.67359,51.9008697 C114.433513,51.1505249 115.996732,50.0907931 117.318954,48.7483793 C120.061751,45.9860421 121.453015,42.574318 121.453015,38.6115594 C121.453015,34.6943946 120.12428,31.2872299 117.503284,28.4851609 C114.659529,25.4622874 111.039375,23.9290307 106.742479,23.9290307" id="Fill-29" fill="#231F20"></path>
                            <path d="M274.856521,23.9290307 C272.135218,23.9290307 269.588475,24.6396437 267.286636,26.0400268 C262.662115,28.9039732 260.31859,33.4529387 260.31859,39.5638199 L260.31859,62.5014444 L264.298935,61.27041 C265.472651,60.907613 266.272498,59.8224789 266.272498,58.5947011 L266.272498,40.5453908 C266.272498,37.191636 266.989625,34.6474981 268.404337,32.9826705 C270.202038,30.8579962 272.350161,29.826272 274.971808,29.826272 C277.429969,29.826272 279.442613,30.7133985 281.123073,32.5397586 C282.663494,34.2071916 283.411234,36.1455824 283.411234,38.4663103 C283.411234,40.9922107 282.602268,43.028954 280.938092,44.6937816 C279.293456,46.3384176 277.323149,47.137613 274.91449,47.137613 C273.327172,47.137613 271.79587,46.6927471 270.362268,45.8153908 C270.248284,45.7443946 270.126483,45.6636284 270.001425,45.577 L270.001425,51.8142414 C271.685793,52.6238582 273.474375,53.0342031 275.346981,53.0342031 C277.194184,53.0342031 279.024452,52.6531686 280.787632,51.9008697 C282.547556,51.1505249 284.110774,50.0907931 285.432996,48.7483793 C288.175793,45.9860421 289.567057,42.574318 289.567057,38.6115594 C289.567057,34.6943946 288.238322,31.2872299 285.617326,28.4851609 C282.773571,25.4622874 279.153418,23.9290307 274.856521,23.9290307" id="Fill-31" fill="#231F20"></path>
                            <path d="M182.091299,88.7171379 C182.508157,88.7171379 182.870954,88.8715057 183.186854,89.1808927 C183.49559,89.4837663 183.650609,89.8530766 183.650609,90.2966398 C183.650609,90.7402031 183.49559,91.1173295 183.186854,91.4189004 C182.877467,91.7282874 182.500992,91.8826552 182.071107,91.8826552 C181.647736,91.8826552 181.271261,91.7282874 180.948847,91.4189004 C180.63946,91.1173295 180.485092,90.7467165 180.485092,90.2966398 C180.485092,89.8465632 180.63946,89.4700881 180.948847,89.1808927 C181.264096,88.8715057 181.647736,88.7171379 182.091299,88.7171379" id="Fill-33" fill="#888685"></path>
                            <path d="M127.36882,84.2880843 L124.680736,86.0493103 C124.5661,86.8354789 124.223494,87.5278544 123.632077,88.1322989 C122.905831,88.8859004 122.038897,89.2552107 120.977211,89.2552107 C119.922038,89.2552107 119.04859,88.8917625 118.309318,88.1531418 C117.536176,87.3865134 117.159701,86.4791954 117.159701,85.3842912 C117.159701,84.295249 117.536176,83.4009579 118.309318,82.6414943 C119.04859,81.909387 119.895333,81.5531034 120.903609,81.5531034 C121.804414,81.5531034 122.563877,81.8077778 123.215218,82.3321073 L118.840161,85.2624904 C118.840161,85.309387 118.833648,85.3569349 118.833648,85.4109962 C118.833648,86.2440613 119.316943,86.9631418 120.015831,87.3057471 L125.916981,83.441341 C126.508398,83.0583525 126.677096,82.2585057 126.260238,81.6872797 C126.058322,81.4045977 125.829701,81.1362452 125.574375,80.8809195 C124.317287,79.5899617 122.785333,78.9314559 121.017594,78.9314559 C119.209471,78.9314559 117.643648,79.5567433 116.353341,80.7936398 C115.748245,81.370728 115.26495,82.0767816 114.928207,82.8903065 C114.592115,83.7038314 114.417556,84.5499234 114.417556,85.4109962 C114.417556,87.1780843 115.05587,88.7106897 116.325985,89.9736398 C117.596751,91.2378927 119.162575,91.8762069 120.970697,91.8762069 C122.771655,91.8762069 124.310774,91.2378927 125.561349,89.9808046 C126.817785,88.7172031 127.4561,87.1780843 127.4561,85.4168582 C127.469778,85.0345211 127.436559,84.6573946 127.36882,84.2880843" id="Fill-35" fill="#888685"></path>
                            <path d="M173.555475,81.3240268 L173.555475,78.9316513 L171.351337,78.9316513 L171.351337,76.4578582 C171.351337,75.9139885 170.995054,75.4300421 170.470724,75.2685096 L168.696471,74.7174751 L168.696471,87.2186628 C168.696471,88.5024559 168.904249,89.5100805 169.314594,90.2031073 C169.737966,90.9156743 170.430341,91.4061341 171.384556,91.6679732 C171.955782,91.822341 172.72241,91.8959425 173.730686,91.8959425 L175.155169,91.8959425 L175.155169,89.4631839 L173.851184,89.4631839 C173.09172,89.4631839 172.527008,89.3824176 172.177889,89.2280498 C171.861989,89.0873602 171.653559,88.8522261 171.525897,88.4887778 C171.411261,88.2060958 171.351337,87.7560192 171.351337,87.1378966 L171.351337,81.3240268 L173.555475,81.3240268 Z" id="Fill-37" fill="#888685"></path>
                            <path d="M113.859877,81.6064483 L113.859877,78.9587471 C113.63777,78.9379042 113.416314,78.9248774 113.187693,78.9248774 C111.978153,78.9248774 110.842215,79.2407778 109.820261,79.8660651 C107.763977,81.1426935 106.715318,83.16641 106.715318,85.8877126 L106.715318,91.8826552 L108.489571,91.332272 C109.0139,91.1707395 109.370184,90.6861418 109.370184,90.1416207 L109.370184,86.3247625 C109.370184,84.8325402 109.686084,83.6966015 110.317885,82.9573295 C111.117732,82.0096284 112.071946,81.5530383 113.241755,81.5530383 C113.450184,81.5530383 113.657962,81.5725785 113.859877,81.6064483" id="Fill-39" fill="#888685"></path>
                            <path d="M152.303912,80.4640613 L152.565751,82.5203448 L150.966057,82.8160536 C151.705981,83.6295785 152.109161,84.7590038 151.927437,85.9822222 C151.685789,87.6353257 150.334908,88.9790421 148.681153,89.2148276 C146.114218,89.5776245 143.936134,87.406705 144.306096,84.8397701 C144.487169,83.5553257 145.354755,82.453908 146.530425,81.909387 C147.464448,81.4788506 148.338548,81.4723372 149.13123,81.6872797 L150.966057,81.3511877 L150.72441,79.475977 C149.669238,79.0122222 148.472724,78.8174713 147.209123,78.9920307 C144.433759,79.3750192 142.168395,81.5726437 141.724831,84.3349808 C141.012916,88.7640996 144.810234,92.5347126 149.245866,91.7889272 C151.93395,91.3381992 154.084678,89.1614176 154.50805,86.472682 C154.89169,84.0731418 153.950502,81.8618391 152.303912,80.4640613" id="Fill-41" fill="#888685"></path>
                            <path d="M160.382364,79.0188659 C157.57313,79.4826207 155.361828,81.8215862 155.045927,84.6510115 C154.82382,86.6135019 155.475812,88.4216245 156.665812,89.7392874 L158.453743,89.396682 L158.171061,87.3729655 C157.674088,86.5399004 157.472172,85.4977548 157.754203,84.4087126 C158.103973,83.0382912 159.232747,81.949249 160.617498,81.6470268 C163.286042,81.068636 165.618494,83.246069 165.308456,85.8742299 C165.12087,87.4804368 163.890487,88.831318 162.304471,89.1745747 C161.410831,89.3628123 160.564088,89.2351494 159.845008,88.8918927 L160.080142,90.5593257 L158.110487,90.9351494 C159.327192,91.6809349 160.805736,92.0372184 162.378724,91.8294406 C165.154088,91.4594789 167.425966,89.2683678 167.876042,86.5060307 C168.595123,82.0703985 164.818648,78.293272 160.382364,79.0188659" id="Fill-43" fill="#888685"></path>
                            <path d="M139.22492,80.8406015 C138.633502,80.2420192 137.941126,79.771751 137.154958,79.435659 C136.368138,79.099567 135.555264,78.9315211 134.735226,78.9315211 C133.902161,78.9315211 133.108828,79.1132452 132.355877,79.4760421 L132.355877,82.2520575 C132.409939,82.211023 132.463349,82.1778046 132.51741,82.1445862 C133.155724,81.754433 133.834421,81.5531686 134.546989,81.5531686 C135.622352,81.5531686 136.496452,81.9094521 137.228559,82.6415594 C137.967831,83.3808314 138.330628,84.2881494 138.330628,85.4110613 C138.330628,86.4453908 137.994536,87.3058123 137.309326,88.0515977 C136.56354,88.8651226 135.662736,89.2617893 134.573693,89.2617893 C133.404536,89.2617893 132.450322,88.8051992 131.650475,87.8568467 C131.018674,87.1182261 130.702774,85.9822874 130.702774,84.4900651 L130.702774,76.457728 C130.702774,75.9138582 130.34649,75.4299119 129.822161,75.2683793 L128.047908,74.7179962 L128.047908,84.9264636 C128.047908,87.6484176 129.089402,89.6721341 131.152851,90.9487625 C132.174153,91.5740498 133.310092,91.8899502 134.520284,91.8899502 C136.435226,91.8899502 138.042084,91.2040881 139.312199,89.8603716 C140.481356,88.6097969 141.072774,87.0973831 141.072774,85.3504866 C141.066261,83.5827471 140.441625,82.0703333 139.22492,80.8406015" id="Fill-45" fill="#888685"></path>
                            <path d="M95.7603487,88.8582835 C95.6997739,88.6505057 95.6124943,88.4622682 95.4978582,88.3007356 C95.3773602,88.1392031 95.2295057,88.0043755 95.0412682,87.9105824 C94.8530307,87.8167893 94.6374368,87.762728 94.3892759,87.762728 C94.1267854,87.762728 93.9053295,87.8167893 93.7236054,87.9177471 C93.5425326,88.018705 93.3946782,88.1528812 93.2800421,88.3209272 C93.1660575,88.4889732 93.0787778,88.6772107 93.0318812,88.8856398 C92.9778199,89.1005824 92.9576284,89.3155249 92.9576284,89.5304674 C92.9576284,89.7590881 92.9843333,89.9811954 93.0383946,90.1961379 C93.0918046,90.4110805 93.1797356,90.599318 93.3002337,90.7608506 C93.4213831,90.9217318 93.5692375,91.055908 93.7574751,91.1568659 C93.9457126,91.2578238 94.173682,91.3047203 94.4361724,91.3047203 C94.7051762,91.3047203 94.9266322,91.2513103 95.1018429,91.1503525 C95.2829157,91.0493946 95.4242567,90.9080536 95.531728,90.740659 C95.6391992,90.572613 95.7199655,90.3772107 95.7668621,90.1557548 C95.81441,89.9401609 95.8411149,89.7121916 95.8411149,89.4835709 C95.8476284,89.2751418 95.81441,89.0667126 95.7603487,88.8582835 L95.7603487,88.8582835 Z M92.9843333,85.3977088 L92.9843333,87.8233027 L93.0045249,87.8233027 C93.1321877,87.5614636 93.3341034,87.3732261 93.6024559,87.25859 C93.8779732,87.1374406 94.173682,87.0840307 94.5032605,87.0840307 C94.8660575,87.0840307 95.1819579,87.1511188 95.4509617,87.2859464 C95.7199655,87.4201226 95.9414215,87.6011954 96.1231456,87.8233027 C96.3042184,88.0519234 96.439046,88.3137625 96.5263257,88.6094713 C96.6136054,88.9051801 96.6605019,89.2217318 96.6605019,89.5571724 C96.6605019,89.8932644 96.6136054,90.2026513 96.5263257,90.5048736 C96.439046,90.8005824 96.3042184,91.0630728 96.129659,91.2851801 C95.9485862,91.5059847 95.7264789,91.6811954 95.4581264,91.8088582 C95.1891226,91.9371724 94.8732222,91.9970958 94.5169387,91.9970958 C94.402954,91.9970958 94.2746398,91.984069 94.1332989,91.9638774 C93.9926092,91.9371724 93.8512682,91.8961379 93.7105785,91.842728 C93.5692375,91.7886667 93.4415747,91.7150651 93.3139119,91.6206207 C93.1927625,91.5268276 93.0852912,91.4128429 92.9980115,91.2715019 L92.9778199,91.2715019 L92.9778199,91.8961379 L92.2046782,91.8961379 L92.2046782,85.4107356 L92.9843333,85.4107356 L92.9843333,85.3977088 Z" id="Fill-47" fill="#888685"></path>
                            <path d="M99.4164559,92.5144559 C99.3220115,92.743728 99.2347318,92.9378276 99.1474521,93.0993602 C99.0601724,93.2543793 98.9592146,93.3885556 98.858908,93.4823487 C98.7514368,93.5833065 98.6368008,93.6575594 98.5026245,93.6972912 C98.3743103,93.7448391 98.2199425,93.7650307 98.0518966,93.7650307 C97.9581034,93.7650307 97.8701724,93.7578659 97.7763793,93.7448391 C97.6819349,93.7311609 97.5953065,93.7109693 97.5145402,93.6770996 L97.5145402,92.9716973 C97.5816284,92.9984023 97.6552299,93.0251073 97.7431609,93.0524636 C97.8297893,93.0720038 97.9040421,93.0863333 97.9646169,93.0863333 C98.1189847,93.0863333 98.2538123,93.0452989 98.3612835,92.9716973 C98.4687548,92.8980958 98.5495211,92.7906245 98.602931,92.6492835 L98.9188314,91.8559502 L97.0572989,87.1845326 L97.9307471,87.1845326 L99.3018199,91.0293985 L99.3220115,91.0293985 L100.639674,87.1845326 L101.459713,87.1845326 L99.4164559,92.5144559 Z" id="Fill-49" fill="#888685"></path>
                        </g>
                    </g>
                </g>
            </g>
        </g>
    </g>
</svg>