<?xml version="1.0" encoding="UTF-8"?>
<svg width="58px" height="58px" viewBox="0 0 58 58" version="1.1" xmlns="http://www.w3.org/2000/svg" xmlns:xlink="http://www.w3.org/1999/xlink">
    <title>9df000f0-55be-4cba-94b1-0f2ee1bc5efa@1.00x</title>
    <defs>
        <ellipse id="path-1" cx="29.12525" cy="29.1333333" rx="26.9916486" ry="27"></ellipse>
    </defs>
    <g id="⚛️-Symbols" stroke="none" stroke-width="1" fill="none" fill-rule="evenodd">
        <g id="Ilustraciones-/-Logros-/-Logros-/-Logro-bloqueado">
            <mask id="mask-2" fill="white">
                <use xlink:href="#path-1"></use>
            </mask>
            <ellipse stroke="#FFFFFF" stroke-width="2" cx="29.12525" cy="29.1333333" rx="27.9916486" ry="28"></ellipse>
            <g id="Group-2" mask="url(#mask-2)" fill="#FFFFFF">
                <path d="M28.938781,-6.10540425e-15 C44.9212284,-6.10540425e-15 57.877562,12.9563336 57.877562,28.938781 C57.877562,44.9212284 44.9212284,57.877562 28.938781,57.877562 C12.9563336,57.877562 -7.93702552e-14,44.9212284 -7.93702552e-14,28.938781 C-7.93702552e-14,12.9563336 12.9563336,-6.10540425e-15 28.938781,-6.10540425e-15 Z M28.938781,4.17515583 C15.2622085,4.17515583 4.17515583,15.2622085 4.17515583,28.938781 C4.17515583,42.6153535 15.2622085,53.7024062 28.938781,53.7024062 C42.6153535,53.7024062 53.7024062,42.6153535 53.7024062,28.938781 C53.7024062,15.2622085 42.6153535,4.17515583 28.938781,4.17515583 Z" id="Combined-Shape" fill-opacity="0.2"></path>
                <path d="M28.938781,4.2044678 C42.599165,4.2044678 53.6730942,15.278397 53.6730942,28.938781 C53.6730942,42.599165 42.599165,53.6730942 28.938781,53.6730942 C15.278397,53.6730942 4.2044678,42.599165 4.2044678,28.938781 C4.2044678,15.278397 15.278397,4.2044678 28.938781,4.2044678 Z M28.938781,8.5255273 C17.6648523,8.5255273 8.5255273,17.6648523 8.5255273,28.938781 C8.5255273,40.2127097 17.6648523,49.3520347 28.938781,49.3520347 C40.2127097,49.3520347 49.3520347,40.2127097 49.3520347,28.938781 C49.3520347,17.6648523 40.2127097,8.5255273 28.938781,8.5255273 Z" id="Combined-Shape" fill-opacity="0.4"></path>
                <path d="M28.938781,8.53365157 C40.2082228,8.53365157 49.3439104,17.6693392 49.3439104,28.938781 C49.3439104,40.2082228 40.2082228,49.3439104 28.938781,49.3439104 C17.6693392,49.3439104 8.53365157,40.2082228 8.53365157,28.938781 C8.53365157,17.6693392 17.6693392,8.53365157 28.938781,8.53365157 Z M28.938781,12.7482092 C19.9969751,12.7482092 12.7482092,19.9969751 12.7482092,28.938781 C12.7482092,37.8805869 19.9969751,45.1293528 28.938781,45.1293528 C37.8805869,45.1293528 45.1293528,37.8805869 45.1293528,28.938781 C45.1293528,19.9969751 37.8805869,12.7482092 28.938781,12.7482092 Z" id="Combined-Shape" fill-opacity="0.6"></path>
                <polygon id="Fill-1321" points="35.1123804 7.39420145 36.1465036 9.28508551 38.0375978 10.3194188 36.1465036 11.3537522 35.1123804 13.2446362 34.0780471 11.3537522 32.187163 10.3194188 34.0780471 9.28508551"></polygon>
                <polygon id="Fill-1323" points="8.87608043 25.1290884 9.41489203 26.114458 10.4004717 26.6534797 9.41489203 27.1922913 8.87608043 28.177871 8.33726884 27.1922913 7.35189928 26.6534797 8.33726884 26.114458"></polygon>
                <polygon id="Fill-1323" points="47.3896786 11.4411299 47.9284902 12.4264995 48.9140699 12.9655212 47.9284902 13.5043328 47.3896786 14.4899125 46.850867 13.5043328 45.8654974 12.9655212 46.850867 12.4264995"></polygon>
            </g>
            <path d="M30.736,32.776 L30.736,31.964 C30.736,31.6466667 30.8106667,31.3293333 30.96,31.012 C31.1093333,30.6946667 31.3986667,30.368 31.828,30.032 C32.5,29.5093333 33.0553333,29.0286667 33.494,28.59 C33.9326667,28.1513333 34.2873333,27.7173333 34.558,27.288 C34.8286667,26.8586667 35.02,26.4246667 35.132,25.986 C35.244,25.5473333 35.3,25.0573333 35.3,24.516 C35.3,23.62 35.132,22.8266667 34.796,22.136 C34.46,21.4453333 34.0026667,20.8666667 33.424,20.4 C32.8453333,19.9333333 32.178,19.5833333 31.422,19.35 C30.666,19.1166667 29.8586667,19 29,19 C27.04,19 25.4346667,19.518 24.184,20.554 C22.9333333,21.59 22.2053333,23.0973333 22,25.076 L22,25.076 L26.312,25.356 C26.368,24.6653333 26.6246667,24.0773333 27.082,23.592 C27.5393333,23.1066667 28.2066667,22.864 29.084,22.864 C29.6626667,22.864 30.1433333,23.0366667 30.526,23.382 C30.9086667,23.7273333 31.1,24.208 31.1,24.824 C31.1,25.1413333 31.0113333,25.4446667 30.834,25.734 C30.6566667,26.0233333 30.4093333,26.3313333 30.092,26.658 C29.7746667,26.9846667 29.3966667,27.3346667 28.958,27.708 C28.5193333,28.0813333 28.0386667,28.52 27.516,29.024 C27.1613333,29.36 26.9093333,29.724 26.76,30.116 C26.6106667,30.508 26.536,30.984 26.536,31.544 L26.536,31.544 L26.536,32.776 L30.736,32.776 Z M28.636,39.496 C28.9906667,39.496 29.3266667,39.4306667 29.644,39.3 C29.9613333,39.1693333 30.2366667,38.9873333 30.47,38.754 C30.7033333,38.5206667 30.8853333,38.2453333 31.016,37.928 C31.1466667,37.6106667 31.212,37.2746667 31.212,36.92 C31.212,36.5653333 31.1466667,36.2293333 31.016,35.912 C30.8853333,35.5946667 30.7033333,35.3193333 30.47,35.086 C30.2366667,34.8526667 29.9613333,34.6706667 29.644,34.54 C29.3266667,34.4093333 28.9906667,34.344 28.636,34.344 C28.2813333,34.344 27.9453333,34.4093333 27.628,34.54 C27.3106667,34.6706667 27.0353333,34.8526667 26.802,35.086 C26.5686667,35.3193333 26.3866667,35.5946667 26.256,35.912 C26.1253333,36.2293333 26.06,36.5653333 26.06,36.92 C26.06,37.2746667 26.1253333,37.6106667 26.256,37.928 C26.3866667,38.2453333 26.5686667,38.5206667 26.802,38.754 C27.0353333,38.9873333 27.3106667,39.1693333 27.628,39.3 C27.9453333,39.4306667 28.2813333,39.496 28.636,39.496 Z" id="?" fill="#949396" mask="url(#mask-2)"></path>
        </g>
    </g>
</svg>