<?xml version="1.0" encoding="UTF-8"?>
<svg width="80px" height="77px" viewBox="0 0 80 77" version="1.1" xmlns="http://www.w3.org/2000/svg" xmlns:xlink="http://www.w3.org/1999/xlink">
    <title>68c7ceca-7af1-4443-8c1e-b5dac1ec1314@1.00x</title>
    <g id="⚛️-Symbols" stroke="none" stroke-width="1" fill="none" fill-rule="evenodd">
        <g id="Ilustraciones-/-Logros-/-Categoria-/-OKRS" fill-rule="nonzero">
            <g id="011-target" transform="translate(7.000000, 3.000000)">
                <path d="M15.2413971,69.4155844 L22.04493,55.9288704 L16.5751934,53.1696008 L9.34608642,67.5001564 C8.63266049,68.914463 9.66068313,70.5843621 11.2446955,70.5843621 L13.3427881,70.5843621 C14.1455473,70.5843621 14.879928,70.1323189 15.2413971,69.4155844 L15.2413971,69.4155844 Z" id="Path" fill="#7BA0B0"></path>
                <path d="M51.317037,67.5001564 L44.08793,53.1697387 L38.6181934,55.9290082 L45.4217263,69.4157222 C45.7833333,70.1324568 46.5175761,70.5845 47.3203354,70.5845 L49.418428,70.5845 C51.0025782,70.5845 52.0306008,68.914463 51.317037,67.5001564 Z" id="Path" fill="#7BA0B0"></path>
                <g id="Group">
                    <g transform="translate(0.000000, 6.341564)">
                        <path d="M55.2437058,30.3325267 C55.2437058,15.0853395 44.0099012,2.46411111 29.3680576,0.288816872 C28.7533395,0.197415638 28.1289712,0.178253086 27.5101173,0.235465021 C12.1380288,1.65859465 0.102154321,14.5889053 0.102154321,30.3325267 C0.102154321,46.0761481 12.1380288,59.0064588 27.5099794,60.4295885 C28.1288333,60.4869383 28.7532016,60.4676379 29.3679198,60.3762366 C44.0099012,58.2009424 55.2437058,45.579714 55.2437058,30.3325267 Z" id="Path" fill="#FC8086"></path>
                        <path d="M30.3315617,0.103119342 C29.357856,0.103119342 28.3955926,0.15095679 27.4454609,0.240979424 C42.7866687,1.69430041 54.7887675,14.610963 54.7887675,30.3325267 C54.7887675,46.0540905 42.7866687,58.9707531 27.4454609,60.4240741 C28.3955926,60.5140967 29.3579938,60.5619342 30.3315617,60.5619342 C47.0268313,60.5619342 60.5609691,47.0277963 60.5609691,30.3325267 C60.5609691,13.6372572 47.0268313,0.103119342 30.3315617,0.103119342 Z" id="Path" fill="#FB636F"></path>
                        <circle id="Oval" fill="#F9F6F6" cx="30.3315617" cy="30.3325267" r="23.1260288"></circle>
                        <circle id="Oval" fill="#FB636F" cx="30.3315617" cy="30.3325267" r="15.2666255"></circle>
                        <circle id="Oval" fill="#F7F0F0" cx="30.3315617" cy="30.3325267" r="7.47339506"></circle>
                    </g>
                    <g transform="translate(28.537037, 0.000000)" id="Path">
                        <path d="M24.6824691,15.3605082 L30.9244979,17.6185185 C31.2929979,17.7518292 31.7053374,17.6600144 31.9824362,17.3829156 L38.0646852,11.3006667 C38.5877263,10.7776255 38.3896214,9.88815226 37.6939794,9.63655761 L32.3423889,7.70072634 L24.6824691,15.3605082 Z" fill="#FA9801"></path>
                        <path d="M20.7422901,7.4363107 L23.0003004,13.6783395 L30.6602202,6.01841975 L28.724251,0.666829218 C28.4726564,-0.0288127572 27.5831831,-0.226917695 27.060142,0.296123457 L20.977893,6.37837243 C20.7007942,6.65560905 20.6089794,7.0678107 20.7422901,7.4363107 Z" fill="#FA9801"></path>
                        <path d="M0.675376543,37.6852942 C-0.191349794,36.8185679 -0.191349794,35.4133601 0.675376543,34.5466337 L30.9265658,4.2955823 C31.7932922,3.42885597 33.1985,3.42885597 34.0652263,4.2955823 C34.9319527,5.16230864 34.9319527,6.56751646 34.0652263,7.4342428 L3.81403704,37.6852942 C2.9473107,38.5520206 1.54210288,38.5520206 0.675376543,37.6852942 Z" fill="#FBBE66"></path>
                    </g>
                </g>
            </g>
        </g>
    </g>
</svg>