<?xml version="1.0" encoding="UTF-8"?>
<svg width="80px" height="77px" viewBox="0 0 80 77" version="1.1" xmlns="http://www.w3.org/2000/svg" xmlns:xlink="http://www.w3.org/1999/xlink">
    <title>510ab66c-ffc9-43fc-a2a0-a3fabbd33939@1.00x</title>
    <g id="⚛️-Symbols" stroke="none" stroke-width="1" fill="none" fill-rule="evenodd">
        <g id="Ilustraciones-/-Logros-/-Categoria-/-Trabajo-Productividad" fill-rule="nonzero">
            <g id="010-fast-time" transform="translate(3.000000, 11.000000)">
                <g id="Group" transform="translate(0.000000, 1.162234)" fill="#78C2A4">
                    <path d="M39.0490299,2.30006117 L16.3924395,2.30006117 C15.7816855,2.30006117 15.2867191,1.80509475 15.2867191,1.19434076 C15.2867191,0.583586769 15.7818308,0.0886203457 16.3924395,0.0886203457 L39.0490299,0.0886203457 C39.6597839,0.0886203457 40.1548956,0.583586769 40.1548956,1.19434076 C40.1548956,1.80509475 39.6599292,2.30006117 39.0490299,2.30006117 Z" id="Path"></path>
                    <path d="M17.3932683,10.4053361 L5.73112134,10.4053361 C5.12036735,10.4053361 4.62540093,9.91036968 4.62540093,9.29961569 C4.62540093,8.6888617 5.12051263,8.19389528 5.73112134,8.19389528 L17.3932683,8.19389528 C18.0040223,8.19389528 18.4989887,8.6888617 18.4989887,9.29961569 C18.4989887,9.91036968 18.0040223,10.4053361 17.3932683,10.4053361 Z" id="Path"></path>
                    <path d="M16.9934598,17.94039 L12.3866546,17.94039 C11.7759006,17.94039 11.2809342,17.4454235 11.2809342,16.8346695 C11.2809342,16.2239156 11.7760459,15.7289491 12.3866546,15.7289491 L16.9936051,15.7289491 C17.604359,15.7289491 18.0993255,16.2239156 18.0993255,16.8346695 C18.0993255,17.4454235 17.6042138,17.94039 16.9934598,17.94039 Z" id="Path"></path>
                    <path d="M12.3866546,23.3972241 L1.10572041,23.3972241 C0.494966423,23.3972241 -1.41937289e-15,22.9022576 -1.41937289e-15,22.2915037 C-1.41937289e-15,21.6807497 0.495111702,21.1857832 1.10572041,21.1857832 L12.3865093,21.1857832 C12.9972633,21.1857832 13.4922297,21.6807497 13.4922297,22.2915037 C13.4922297,22.9022576 12.9972633,23.3972241 12.3866546,23.3972241 Z" id="Path"></path>
                    <path d="M40.5234691,52.2120568 L16.3924395,52.2120568 C15.7816855,52.2120568 15.2867191,51.7170904 15.2867191,51.1061912 C15.2867191,50.4952919 15.7818308,50.0004707 16.3924395,50.0004707 L40.5234691,50.0004707 C41.1342231,50.0004707 41.6291895,50.4954372 41.6291895,51.1061912 C41.6291895,51.7169451 41.1342231,52.2120568 40.5234691,52.2120568 Z" id="Path"></path>
                    <path d="M17.3932683,44.1067819 L5.73112134,44.1067819 C5.12036735,44.1067819 4.62540093,43.6118155 4.62540093,43.0010615 C4.62540093,42.3903075 5.12051263,41.8951958 5.73112134,41.8951958 L17.3932683,41.8951958 C18.0040223,41.8951958 18.4989887,42.3901622 18.4989887,43.0010615 C18.4989887,43.6119608 18.0040223,44.1067819 17.3932683,44.1067819 Z" id="Path"></path>
                    <path d="M16.9934598,36.5717281 L12.3866546,36.5717281 C11.7759006,36.5717281 11.2809342,36.0767616 11.2809342,35.4658624 C11.2809342,34.8549631 11.7760459,34.360142 12.3866546,34.360142 L16.9936051,34.360142 C17.604359,34.360142 18.0993255,34.8551084 18.0993255,35.4658624 C18.0993255,36.0766164 17.6042138,36.5717281 16.9934598,36.5717281 Z" id="Path"></path>
                    <path d="M12.3866546,31.1150392 L1.10572041,31.1150392 C0.494966423,31.1150392 -1.41937289e-15,30.6200728 -1.41937289e-15,30.0093188 C-1.41937289e-15,29.3985648 0.495111702,28.9034531 1.10572041,28.9034531 L12.3865093,28.9034531 C12.9972633,28.9034531 13.4922297,29.3984195 13.4922297,30.0093188 C13.4922297,30.6202181 12.9972633,31.1150392 12.3866546,31.1150392 Z" id="Path"></path>
                </g>
                <circle id="Oval" fill="#95D6A4" cx="47.1108664" cy="27.3125" r="27.2719671"></circle>
                <path d="M47.1108664,0.0405329122 C46.4204993,0.0405329122 45.7363793,0.0666831782 45.0589422,0.11709508 C59.1623617,1.16630186 70.278985,12.9408949 70.278985,27.3125 C70.278985,41.6841051 59.1623617,53.4586981 45.0589422,54.5079049 C45.7363793,54.5583168 46.4204993,54.5844671 47.1108664,54.5844671 C62.1728384,54.5844671 74.3829787,42.3744721 74.3829787,27.3125 C74.3829787,12.2505279 62.1728384,0.0405329122 47.1108664,0.0405329122 Z" id="Path" fill="#78C2A4"></path>
                <circle id="Oval" fill="#F4FBFF" cx="47.1108664" cy="27.3125" r="20.941133"></circle>
                <path d="M47.1108664,6.37122174 C46.4736715,6.37122174 45.8437407,6.40129455 45.2210738,6.45708178 C55.9008424,7.41258344 64.2724142,16.3841586 64.2724142,27.3125 C64.2724142,38.2408414 55.9008424,47.2122713 45.2210738,48.1677729 C45.8437407,48.2234149 46.4736715,48.2534877 47.1108664,48.2534877 C58.6764026,48.2534877 68.0519993,38.877891 68.0519993,27.3123547 C68.0519993,15.7469638 58.6764026,6.37122174 47.1108664,6.37122174 L47.1108664,6.37122174 Z" id="Path" fill="#DAF1F4"></path>
                <g id="Group" transform="translate(29.782247, 10.024269)" fill="#365E7D">
                    <path d="M17.3287643,3.99372673 C16.7180103,3.99372673 16.2228986,3.49876031 16.2228986,2.88800632 L16.2228986,1.20000665 C16.2228986,0.58925266 16.717865,0.0942862367 17.3287643,0.0942862367 C17.9396636,0.0942862367 18.4344847,0.58925266 18.4344847,1.20000665 L18.4344847,2.88786104 C18.4344847,3.49861503 17.9395183,3.99372673 17.3287643,3.99372673 Z" id="Path"></path>
                    <path d="M27.511242,8.21132879 C27.2283833,8.21132879 26.945234,8.1033863 26.7292038,7.88750133 C26.2974338,7.4555861 26.2974338,6.75548537 26.7292038,6.32357015 L27.9226729,5.13010106 C28.3545881,4.6984764 29.0546888,4.6984764 29.4866041,5.13010106 C29.918374,5.56201629 29.918374,6.26211702 29.4866041,6.69403225 L28.293135,7.88750133 C28.07725,8.1033863 27.794246,8.21132879 27.511242,8.21132879 L27.511242,8.21132879 Z" id="Path"></path>
                    <path d="M33.4168437,18.3940971 L31.7291346,18.3940971 C31.1183807,18.3940971 30.6232689,17.8991307 30.6232689,17.2882314 C30.6232689,16.6773321 31.1182354,16.182511 31.7291346,16.182511 L33.4168437,16.182511 C34.0275977,16.182511 34.5227094,16.6774774 34.5227094,17.2882314 C34.5227094,17.8989854 34.0275977,18.3940971 33.4168437,18.3940971 Z" id="Path"></path>
                    <path d="M28.7047111,29.7700439 C28.4218524,29.7700439 28.1387031,29.6621014 27.9226729,29.4462164 L26.7292038,28.2527473 C26.2974338,27.8208321 26.2974338,27.1207314 26.7292038,26.6888162 C27.161119,26.2571915 27.8612197,26.2571915 28.293135,26.6888162 L29.4866041,27.8822852 C29.918374,28.3142005 29.918374,29.0143012 29.4866041,29.4462164 C29.2707191,29.6621014 28.9877151,29.7700439 28.7047111,29.7700439 Z" id="Path"></path>
                    <path d="M17.3287643,34.4821765 C16.7180103,34.4821765 16.2228986,33.9872101 16.2228986,33.3763108 L16.2228986,31.6886017 C16.2228986,31.0778477 16.717865,30.5828813 17.3287643,30.5828813 C17.9396636,30.5828813 18.4344847,31.0778477 18.4344847,31.6886017 L18.4344847,33.3763108 C18.4344847,33.9872101 17.9395183,34.4821765 17.3287643,34.4821765 Z" id="Path"></path>
                    <path d="M5.95267221,29.7700439 C5.66966822,29.7700439 5.38666423,29.6621014 5.17077926,29.4462164 C4.73886403,29.0143012 4.73886403,28.3142005 5.17077926,27.8822852 L6.36424834,26.6888162 C6.79601828,26.2571915 7.4962643,26.2571915 7.92803424,26.6888162 C8.35994947,27.1207314 8.35994947,27.8208321 7.92803424,28.2527473 L6.73456516,29.4462164 C6.51868019,29.6621014 6.2356762,29.7700439 5.95267221,29.7700439 L5.95267221,29.7700439 Z" id="Path"></path>
                    <path d="M2.92839395,18.3940971 L1.24053956,18.3940971 C0.629785572,18.3940971 0.134819149,17.8991307 0.134819149,17.2882314 C0.134819149,16.6773321 0.629930851,16.182511 1.24053956,16.182511 L2.92839395,16.182511 C3.53914794,16.182511 4.03411436,16.6774774 4.03411436,17.2882314 C4.03411436,17.8989854 3.53900266,18.3940971 2.92839395,18.3940971 Z" id="Path"></path>
                    <path d="M7.14614129,8.21132879 C6.8631373,8.21132879 6.58013331,8.1033863 6.36424834,7.88750133 L5.17077926,6.69403225 C4.73886403,6.26211702 4.73886403,5.56201629 5.17077926,5.13010106 C5.6025492,4.6984764 6.30279521,4.6984764 6.73456516,5.13010106 L7.92803424,6.32357015 C8.35994947,6.75548537 8.35994947,7.4555861 7.92803424,7.88750133 C7.71214927,8.1033863 7.42914528,8.21132879 7.14614129,8.21132879 L7.14614129,8.21132879 Z" id="Path"></path>
                </g>
                <path d="M51.9514259,28.4183657 L47.1110116,28.4183657 C46.5002576,28.4183657 46.0051459,27.9233993 46.0051459,27.3125 L46.0051459,17.9967583 C46.0051459,17.3860043 46.5001124,16.8910379 47.1110116,16.8910379 C47.7219109,16.8910379 48.216732,17.3860043 48.216732,17.9967583 L48.216732,26.2066343 L51.9514259,26.2066343 C52.5621799,26.2066343 53.0572916,26.7016007 53.0572916,27.3123547 C53.0572916,27.9231087 52.5621799,28.4183657 51.9514259,28.4183657 Z" id="Path" fill="#2B4D66"></path>
            </g>
        </g>
    </g>
</svg>