<?xml version="1.0" encoding="UTF-8"?>
<svg width="80px" height="77px" viewBox="0 0 80 77" version="1.1" xmlns="http://www.w3.org/2000/svg" xmlns:xlink="http://www.w3.org/1999/xlink">
    <title>e474a869-47a3-448a-9041-85bca6525d17@1.00x</title>
    <g id="⚛️-Symbols" stroke="none" stroke-width="1" fill="none" fill-rule="evenodd">
        <g id="Ilustraciones-/-Logros-/-Categoria-/-Proyectos" fill-rule="nonzero">
            <g id="004-folders" transform="translate(3.000000, 5.000000)">
                <path d="M57.9503593,4.5017619 L55.998513,0.696829004 C55.7938874,0.298019481 55.3833312,0.0471320346 54.9350693,0.0471320346 L41.5582727,0.0471320346 C40.8981342,0.0471320346 40.3631494,0.582261905 40.3631494,1.24225541 L40.3631494,20.2277641 L40.3631494,24.5724675 C40.3631494,25.2326061 40.8982792,25.7675909 41.5582727,25.7675909 L73.0558139,25.7675909 C73.7159524,25.7675909 74.2509372,25.232461 74.2509372,24.5724675 L74.2509372,5.6970303 C74.2509372,5.03689177 73.7158074,4.50190693 73.0558139,4.50190693 L57.9503593,4.5017619 L57.9503593,4.5017619 Z" id="Path" fill="#F9B767"></path>
                <path d="M74.2503571,22.9754892 L74.2503571,24.5720325 C74.2503571,25.232171 73.7152273,25.7671558 73.0552338,25.7671558 L41.5575476,25.7671558 C40.8974091,25.7671558 40.3624242,25.232026 40.3624242,24.5720325 L40.3624242,22.9754892 L74.2503571,22.9754892 Z" id="Path" fill="#EF9D45"></path>
                <path d="M57.9503593,45.6868939 L55.998513,41.881961 C55.7938874,41.4831515 55.3833312,41.2322641 54.9350693,41.2322641 L41.5582727,41.2322641 C40.8981342,41.2322641 40.3631494,41.7673939 40.3631494,42.4273874 L40.3631494,61.4128961 L40.3631494,65.7575996 C40.3631494,66.4177381 40.8982792,66.9527229 41.5582727,66.9527229 L73.0558139,66.9527229 C73.7159524,66.9527229 74.2509372,66.4175931 74.2509372,65.7575996 L74.2509372,46.8820173 C74.2509372,46.2218788 73.7158074,45.6868939 73.0558139,45.6868939 L57.9503593,45.6868939 Z" id="Path" fill="#F9B767"></path>
                <path d="M74.2503571,64.1609113 L74.2503571,65.7574545 C74.2503571,66.4175931 73.7152273,66.9525779 73.0552338,66.9525779 L41.5575476,66.9525779 C40.8974091,66.9525779 40.3624242,66.4174481 40.3624242,65.7574545 L40.3624242,64.1609113 L74.2503571,64.1609113 Z" id="Path" fill="#EF9D45"></path>
                <g id="Group" transform="translate(44.231602, 16.822511)" fill="#DCF9F7">
                    <path d="M2.94916017,43.4354329 L1.16089827,43.4354329 C0.542090909,43.4354329 0.040461039,42.933803 0.040461039,42.3149957 C0.040461039,41.6961883 0.542090909,41.1945584 1.16089827,41.1945584 L2.94916017,41.1945584 C3.56796753,41.1945584 4.0695974,41.6961883 4.0695974,42.3149957 C4.0695974,42.933803 3.56796753,43.4354329 2.94916017,43.4354329 Z" id="Path"></path>
                    <path d="M7.12172294,46.5712359 L1.16089827,46.5712359 C0.542090909,46.5712359 0.040461039,46.0696061 0.040461039,45.4507987 C0.040461039,44.8319913 0.542090909,44.3303615 1.16089827,44.3303615 L7.12172294,44.3303615 C7.7405303,44.3303615 8.24216017,44.8319913 8.24216017,45.4507987 C8.24216017,46.0696061 7.7405303,46.5712359 7.12172294,46.5712359 Z" id="Path"></path>
                    <path d="M2.94916017,2.25044589 L1.16089827,2.25044589 C0.542090909,2.25044589 0.040461039,1.74881602 0.040461039,1.13000866 C0.040461039,0.511201299 0.542090909,0.00957142857 1.16089827,0.00957142857 L2.94916017,0.00957142857 C3.56796753,0.00957142857 4.0695974,0.511201299 4.0695974,1.13000866 C4.0695974,1.74881602 3.56796753,2.25044589 2.94916017,2.25044589 Z" id="Path"></path>
                    <path d="M7.12172294,5.3861039 L1.16089827,5.3861039 C0.542090909,5.3861039 0.040461039,4.88447403 0.040461039,4.26566667 C0.040461039,3.64685931 0.542090909,3.14522944 1.16089827,3.14522944 L7.12172294,3.14522944 C7.7405303,3.14522944 8.24216017,3.64685931 8.24216017,4.26566667 C8.24216017,4.88447403 7.7405303,5.3861039 7.12172294,5.3861039 Z" id="Path"></path>
                </g>
                <path d="M17.58721,23.5990823 L15.6353636,19.7941494 C15.4307381,19.3953398 15.0201818,19.1444524 14.5719199,19.1444524 L1.19512338,19.1444524 C0.534984848,19.1444524 0,19.6795823 0,20.3395758 L0,39.3250844 L0,43.6697879 C0,44.3299264 0.53512987,44.8649113 1.19512338,44.8649113 L32.6926645,44.8649113 C33.352803,44.8649113 33.8877879,44.3297814 33.8877879,43.6697879 L33.8877879,24.7943506 C33.8877879,24.1342121 33.352658,23.5992273 32.6926645,23.5992273 L17.58721,23.5992273 L17.58721,23.5990823 Z" id="Path" fill="#5089DD"></path>
                <path d="M33.888658,42.0726645 L33.888658,43.6692078 C33.888658,44.3293463 33.3535281,44.8643312 32.6935346,44.8643312 L1.19599351,44.8643312 C0.535854978,44.8643312 0.00087012987,44.3292013 0.00087012987,43.6692078 L0.00087012987,42.0726645 L33.888658,42.0726645 Z" id="Path" fill="#2358C1"></path>
                <g id="Group" transform="translate(3.770563, 35.820346)" fill="#DCF9F7">
                    <path d="M3.04704978,2.34993074 L1.25878788,2.34993074 C0.639980519,2.34993074 0.138350649,1.84830087 0.138350649,1.22949351 C0.138350649,0.610686147 0.639980519,0.109056277 1.25878788,0.109056277 L3.04704978,0.109056277 C3.66585714,0.109056277 4.16748701,0.610686147 4.16748701,1.22949351 C4.16748701,1.84830087 3.66585714,2.34993074 3.04704978,2.34993074 Z" id="Path"></path>
                    <path d="M7.21961255,5.48558874 L1.25878788,5.48558874 C0.639980519,5.48558874 0.138350649,4.98395887 0.138350649,4.36515152 C0.138350649,3.74634416 0.639980519,3.24471429 1.25878788,3.24471429 L7.21961255,3.24471429 C7.83841991,3.24471429 8.34004978,3.74634416 8.34004978,4.36515152 C8.34004978,4.98395887 7.83841991,5.48558874 7.21961255,5.48558874 Z" id="Path"></path>
                </g>
                <g id="Group" transform="translate(21.898268, 10.296537)" fill="#F9B767">
                    <path d="M1.21180087,8.00751515 C0.592993506,8.00751515 0.0913636364,7.50588528 0.0913636364,6.88707792 L0.0913636364,1.24196537 C0.0913636364,0.623012987 0.592993506,0.121528139 1.21180087,0.121528139 L11.9896645,0.121528139 C12.6084719,0.121528139 13.1101017,0.623158009 13.1101017,1.24196537 C13.1101017,1.86091775 12.6084719,2.3624026 11.9896645,2.3624026 L2.3322381,2.3624026 L2.3322381,6.8869329 C2.3322381,7.5060303 1.83060823,8.00751515 1.21180087,8.00751515 Z" id="Path"></path>
                    <path d="M11.9896645,46.2853983 L1.21180087,46.2853983 C0.592993506,46.2853983 0.0913636364,45.7837684 0.0913636364,45.164961 L0.0913636364,39.5198485 C0.0913636364,38.9008961 0.592993506,38.3994113 1.21180087,38.3994113 C1.83060823,38.3994113 2.3322381,38.9010411 2.3322381,39.5198485 L2.3322381,44.0443788 L11.9896645,44.0443788 C12.6084719,44.0443788 13.1101017,44.5460087 13.1101017,45.164816 C13.1101017,45.7836234 12.6084719,46.2853983 11.9896645,46.2853983 Z" id="Path"></path>
                </g>
            </g>
        </g>
    </g>
</svg>