<?xml version="1.0" encoding="UTF-8"?>
<svg width="97px" height="97px" viewBox="0 0 97 97" version="1.1" xmlns="http://www.w3.org/2000/svg" xmlns:xlink="http://www.w3.org/1999/xlink">
    <title>2B083E02-D876-4848-BD18-C1464E38EB15@1.00x</title>
    <defs>
        <linearGradient x1="50%" y1="0%" x2="50%" y2="100%" id="linearGradient-1">
            <stop stop-color="#FF8400" offset="0%"></stop>
            <stop stop-color="#EC1401" offset="100%"></stop>
        </linearGradient>
    </defs>
    <g id="✅-Final" stroke="none" stroke-width="1" fill="none" fill-rule="evenodd">
        <g id="Prototype" transform="translate(-1231.000000, -295.000000)">
            <g id="Proyecto" transform="translate(1088.000000, 112.000000)">
                <g id="whatsapp" transform="translate(16.000000, 177.000000)">
                    <g id="QR" transform="translate(123.000000, 2.000000)">
                        <path d="M54.7142335,96.9305914 L54.7142335,100.768297 L50.8757487,100.768297 L50.8757487,96.9305914 L54.7142335,96.9305914 Z M73.9047683,96.9305914 L73.9047683,100.768297 L66.2287433,100.768297 L66.2287433,96.9305914 L73.9047683,96.9305914 Z M31.6852139,73.9020212 L31.6852139,100.768297 L4.81818182,100.768297 L4.81818182,81.578835 L8.6561943,81.578835 L8.6561943,96.9305914 L27.8467291,96.9305914 L27.8467291,77.7401942 L8.6561943,77.7401942 L8.6561943,81.5783672 L4.81818182,81.5783672 L4.81818182,73.902489 L31.6852139,73.9020212 Z M89.2577629,96.9305914 L89.2577629,93.0924184 L85.4192781,93.0924184 L85.4192781,96.9305914 L77.7432531,96.9305914 L77.7432531,93.0924184 L81.5812656,93.0924184 L81.5812656,89.2547132 L93.0957754,89.2547132 L93.0957754,85.4165402 L100.7718,85.4165402 L100.7718,100.768297 L96.9337879,100.768297 L96.9337879,96.9305914 L89.2577629,96.9305914 Z M66.2287433,39.3608032 L66.2287433,43.1985084 L70.0667558,43.1985084 L70.0667558,47.0366814 L66.2287433,47.0366814 L66.2287433,54.7125596 L73.9047683,54.7125596 L73.9047683,58.5502648 L77.7432531,58.5502648 L77.7432531,62.3884378 L73.9047683,62.3884378 L73.9047683,66.226143 L77.7432531,66.226143 L77.7432531,62.3884378 L81.5812656,62.3884378 L81.5812656,54.7125596 L85.4192781,54.7125596 L85.4192781,58.5502648 L93.0957754,58.5502648 L93.0957754,54.7125596 L96.9337879,54.7125596 L96.9337879,58.5502648 L100.7718,58.5502648 L100.7718,66.226143 L96.9337879,66.226143 L96.9337879,62.3884378 L93.0957754,62.3884378 L93.0957754,66.226143 L96.9337879,66.226143 L96.9337879,73.9020212 L89.2577629,73.9020212 L89.2577629,66.226143 L85.4192781,66.226143 L85.4192781,62.3884378 L81.5812656,62.3884378 L81.5812656,66.226143 L85.4192781,66.226143 L85.4192781,85.4160724 L77.7432531,85.4165402 L77.7432531,89.2547132 L73.9047683,89.2547132 L73.9047683,85.4165402 L62.3902585,85.4165402 L62.3902585,89.2547132 L58.552246,89.2547132 L58.552246,93.0924184 L54.7142335,93.0924184 L54.7142335,89.2547132 L50.8757487,89.2547132 L50.8757487,96.9305914 L47.0377362,96.9305914 L47.0377362,100.768297 L35.5236988,100.768297 L35.5232264,93.0924184 L39.3612389,93.0924184 L39.3617112,96.9305914 L43.1997237,96.9305914 L43.1997237,93.0924184 L47.0377362,93.0924184 L47.0377362,89.2547132 L50.8757487,89.2547132 L50.8757487,85.4165402 L43.1997237,85.4160724 L43.1997237,81.5783672 L47.0377362,81.5783672 L47.0377362,77.7401942 L50.8757487,77.7401942 L50.8757487,81.5783672 L54.7142335,81.5783672 L54.7142335,85.4165402 L58.552246,85.4165402 L58.552246,81.5783672 L62.3902585,81.5783672 L62.3902585,77.7401942 L66.2287433,77.7401942 L66.2287433,70.064316 L62.3902585,70.064316 L62.3902585,66.226143 L66.2287433,66.226143 L66.2287433,62.3884378 L70.0667558,62.3884378 L70.0667558,58.5502648 L66.2287433,58.5502648 L66.2287433,62.3884378 L62.3902585,62.3884378 L62.3902585,66.226143 L58.552246,66.226143 L58.552246,50.8743866 L62.3902585,50.8743866 L62.3902585,43.1985084 L54.7142335,43.1985084 L54.7142335,47.0366814 L50.8757487,47.0366814 L50.8757487,43.1985084 L54.7142335,43.1985084 L54.7142335,39.3608032 L66.2287433,39.3608032 Z M89.2577629,96.9305914 L89.2577629,100.768297 L85.4192781,100.768297 L85.4192781,96.9305914 L89.2577629,96.9305914 Z M66.2287433,89.2547132 L66.2287433,96.9305914 L58.552246,96.9305914 L58.552246,93.0924184 L62.3902585,93.0924184 L62.3902585,89.2547132 L66.2287433,89.2547132 Z M39.3612389,81.5783672 L39.3612389,85.4165402 L43.1997237,85.4165402 L43.1997237,93.0924184 L39.3612389,93.0924184 L39.3612389,89.2547132 L35.5232264,89.2547132 L35.5232264,81.5783672 L39.3612389,81.5783672 Z M24.0087166,81.5783672 L24.0087166,93.0924184 L12.4942068,93.0924184 L12.4942068,81.5783672 L24.0087166,81.5783672 Z M73.9047683,89.2547132 L73.9047683,93.0924184 L70.0667558,93.0924184 L70.0667558,89.2547132 L73.9047683,89.2547132 Z M100.7718,73.902489 L100.7718,81.5783672 L96.9337879,81.5783672 L96.9337879,73.902489 L100.7718,73.902489 Z M81.5812656,70.064316 L70.0667558,70.064316 L70.0667558,81.5783672 L81.5812656,81.5783672 L81.5812656,70.064316 Z M58.552246,77.7401942 L58.552246,81.5783672 L54.7142335,81.5783672 L54.7142335,77.7401942 L58.552246,77.7401942 Z M62.3902585,73.9020212 L62.3902585,77.7401942 L58.552246,77.7401942 L58.552246,73.9020212 L62.3902585,73.9020212 Z M54.7142335,73.9020212 L54.7142335,77.7401942 L50.8757487,77.7401942 L50.8757487,73.9020212 L54.7142335,73.9020212 Z M47.0377362,73.9020212 L47.0377362,77.7401942 L43.1997237,77.7401942 L43.1997237,73.9020212 L47.0377362,73.9020212 Z M77.7432531,73.9020212 L77.7432531,77.7401942 L73.9047683,77.7401942 L73.9047683,73.9020212 L77.7432531,73.9020212 Z M54.7142335,62.3884378 L54.7142335,66.226143 L58.552246,66.226143 L58.552246,70.064316 L50.8757487,70.064316 L50.8757487,73.9020212 L47.0377362,73.9020212 L47.0377362,70.064316 L43.1997237,70.064316 L43.1997237,73.9020212 L35.5232264,73.9020212 L35.5232264,70.064316 L43.1997237,70.064316 L43.1997237,66.226143 L50.8757487,66.226143 L50.8757487,62.3884378 L54.7142335,62.3884378 Z M24.0087166,66.226143 L24.0087166,70.064316 L12.4942068,70.064316 L12.4942068,66.226143 L24.0087166,66.226143 Z M8.6561943,54.7125596 L8.6561943,58.5502648 L12.4942068,58.5502648 L12.4942068,62.3884378 L8.6561943,62.3884378 L8.6561943,70.064316 L4.81818182,70.064316 L4.81818182,54.7125596 L8.6561943,54.7125596 Z M35.5232264,39.3608032 L35.5232264,43.1985084 L43.1997237,43.1985084 L43.1997237,47.0366814 L39.3612389,47.0366814 L39.3612389,50.8743866 L47.0377362,50.8743866 L47.0377362,58.5502648 L43.1997237,58.5502648 L43.1997237,54.7125596 L35.5232264,54.7125596 L35.5232264,70.064316 L27.8467291,70.064316 L27.8467291,66.226143 L31.6852139,66.226143 L31.6852139,62.3884378 L27.8467291,62.3884378 L27.8467291,66.226143 L24.0087166,66.226143 L24.0087166,62.3884378 L16.3326916,62.3884378 L16.3326916,58.5502648 L12.4942068,58.5502648 L12.4942068,50.8743866 L20.1707041,50.8743866 L20.1707041,58.5502648 L24.0087166,58.5502648 L24.0087166,54.7125596 L27.8467291,54.7125596 L27.8467291,58.5502648 L31.6852139,58.5502648 L31.6852139,54.7125596 L35.5232264,54.7125596 L35.5232264,50.8743866 L31.6852139,50.8743866 L31.6852139,54.7125596 L27.8467291,54.7125596 L27.8467291,50.8743866 L31.6852139,50.8743866 L31.6852139,47.0366814 L27.8467291,47.0366814 L27.8467291,43.1985084 L31.6852139,43.1985084 L31.6852139,39.3608032 L35.5232264,39.3608032 Z M43.1997237,58.5502648 L43.1997237,66.226143 L39.3612389,66.226143 L39.3612389,58.5502648 L43.1997237,58.5502648 Z M54.7142335,54.7125596 L54.7142335,58.5502648 L50.8757487,58.5502648 L50.8757487,54.7125596 L54.7142335,54.7125596 Z M96.9337879,39.3608032 L96.9337879,43.1985084 L89.2577629,43.1985084 L89.2577629,47.0366814 L96.9337879,47.0366814 L96.9337879,43.1985084 L100.7718,43.1985084 L100.7718,54.7120918 L96.9337879,54.7120918 L96.9337879,50.8743866 L85.4192781,50.8743866 L85.4192781,43.1985084 L81.5812656,43.1985084 L81.5812656,50.8743866 L77.7432531,50.8743866 L77.7432531,47.0366814 L73.9047683,47.0366814 L73.9047683,43.1985084 L77.7432531,43.1985084 L77.7432531,39.3608032 L96.9337879,39.3608032 Z M77.7432531,50.8743866 L77.7432531,54.7125596 L73.9047683,54.7125596 L73.9047683,50.8743866 L77.7432531,50.8743866 Z M12.4942068,35.5221624 L12.4942068,39.3603354 L8.6561943,39.3603354 L8.6561943,39.3608032 L16.3326916,39.3608032 L16.3326916,47.0366814 L12.4942068,47.0366814 L12.4942068,43.1985084 L8.6561943,43.1985084 L8.6561943,47.0366814 L12.4942068,47.0366814 L12.4942068,50.8743866 L4.81818182,50.8743866 L4.81818182,35.5226302 L12.4942068,35.5221624 Z M27.8467291,39.3608032 L27.8467291,43.1985084 L24.0087166,43.1985084 L24.0087166,47.0366814 L20.1707041,47.0366814 L20.1707041,39.3608032 L27.8467291,39.3608032 Z M73.9047683,39.3608032 L73.9047683,43.1985084 L70.0667558,43.1985084 L70.0667558,39.3608032 L73.9047683,39.3608032 Z M47.0377362,39.3608032 L47.0377362,43.1985084 L43.1997237,43.1985084 L43.1997237,39.3608032 L47.0377362,39.3608032 Z M24.0087166,35.5221624 L24.0087166,39.3603354 L16.3326916,39.3603354 L16.3326916,35.5221624 L24.0087166,35.5221624 Z M100.7718,35.5226302 L100.7718,39.3603354 L96.9337879,39.3603354 L96.9337879,35.5226302 L100.7718,35.5226302 Z M66.2287433,35.5221624 L66.2287433,39.3603354 L58.552246,39.3603354 L58.552246,35.5221624 L66.2287433,35.5221624 Z M77.7432531,35.5221624 L77.7432531,39.3603354 L73.9047683,39.3603354 L73.9047683,35.5221624 L77.7432531,35.5221624 Z M54.7142335,27.8462842 L54.7142335,31.6839894 L58.552246,31.6839894 L58.552246,35.5221624 L54.7142335,35.5221624 L54.7142335,39.3603354 L50.8757487,39.3603354 L50.8757487,27.8462842 L54.7142335,27.8462842 Z M31.6852139,35.5221624 L31.6852139,39.3603354 L27.8467291,39.3603354 L27.8467291,35.5221624 L31.6852139,35.5221624 Z M39.3612389,27.8462842 L39.3612389,31.6839894 L43.1997237,31.6839894 L43.1997237,39.3603354 L39.3612389,39.3603354 L39.3612389,35.5221624 L35.5232264,35.5221624 L35.5232264,27.8462842 L39.3612389,27.8462842 Z M70.0667558,8.65635481 L70.0667558,31.6839894 L66.2287433,31.6839894 L66.2287433,20.170406 L62.3902585,20.170406 L62.3902585,31.6839894 L58.552246,31.6839894 L58.552246,20.170406 L62.3902585,20.170406 L62.3902585,12.4945278 L66.2287433,12.4945278 L66.2287433,8.65635481 L70.0667558,8.65635481 Z M100.7718,4.8186496 L100.7718,20.170406 L96.9337879,20.170406 L96.9337879,8.65635481 L77.7432531,8.65635481 L77.7432531,27.8462842 L96.9337879,27.8462842 L96.9337879,20.1708738 L100.7718,20.1708738 L100.7718,31.6839894 L73.9047683,31.6839894 L73.9047683,4.8186496 L100.7718,4.8186496 Z M31.6852139,4.8186496 L31.6852139,31.6839894 L4.81818182,31.6839894 L4.81818182,20.1708738 L8.6561943,20.1708738 L8.6561943,27.8462842 L27.8467291,27.8462842 L27.8467291,8.65635481 L8.6561943,8.65635481 L8.6561943,20.170406 L4.81818182,20.170406 L4.81818182,4.8186496 L31.6852139,4.8186496 Z M47.0377362,27.8462842 L47.0377362,31.6839894 L43.1997237,31.6839894 L43.1997237,27.8462842 L47.0377362,27.8462842 Z M50.8757487,4.8186496 L50.8757487,8.65635481 L62.3902585,8.65635481 L62.3902585,12.4945278 L58.552246,12.4945278 L58.552246,20.170406 L54.7142335,20.170406 L54.7142335,12.4945278 L50.8757487,12.4945278 L50.8757487,20.170406 L54.7142335,20.170406 L54.7142335,24.0081112 L50.8757487,24.0081112 L50.8757487,27.8462842 L47.0377362,27.8462842 L47.0377362,24.0081112 L43.1997237,24.0081112 L43.1997237,27.8462842 L39.3612389,27.8462842 L39.3612389,24.0081112 L43.1997237,24.0081112 L43.1997237,16.332233 L47.0377362,16.332233 L47.0377362,8.65635481 L35.5236988,8.65635481 L35.5236988,4.8186496 L50.8757487,4.8186496 Z M24.0087166,12.4945278 L24.0087166,24.0081112 L12.4942068,24.0081112 L12.4942068,12.4945278 L24.0087166,12.4945278 Z M93.0957754,12.4945278 L93.0957754,24.0081112 L81.5812656,24.0081112 L81.5812656,12.4945278 L93.0957754,12.4945278 Z M43.1997237,12.4945278 L43.1997237,16.332233 L39.3612389,16.332233 L39.3612389,12.4945278 L43.1997237,12.4945278 Z" fill="url(#linearGradient-1)"></path>
                        <rect id="Rectangle" fill="#FFFFFF" x="37.5818182" y="37.5818182" width="30.8363636" height="30.8363636"></rect>
                        <g id="Group" transform="translate(39.509091, 37.581818)">
                            <g id="Prototype" transform="translate(1.686364, 1.686364)">
                                <path d="M11.8046617,26.0822555 L1.38314994,20.2228343 L3.50785421,18.9397039 C3.61943606,18.8729102 3.65430538,18.7278066 3.58689135,18.6174818 C3.51947732,18.5066964 3.37302615,18.4721479 3.26167677,18.5389416 L1.15998625,19.8082526 L1.15998625,7.22316469 L11.5673178,1.37295637 L11.5673178,3.84893036 C11.5673178,3.97768101 11.6744829,4.08362966 11.8046617,4.08362966 C11.9348405,4.08362966 12.0417731,3.97768101 12.0417731,3.84893036 L12.0417731,1.37295637 L22.4493371,7.22316469 L22.4493371,19.8082526 L20.3476466,18.5389416 C20.2360648,18.4698447 20.0896136,18.5066964 20.0221996,18.6174818 C19.9547855,18.7278066 19.9896549,18.8729102 20.1012367,18.9397039 L22.225941,20.2228343 L11.8046617,26.0822555 Z M23.316421,6.38686129 L12.0929148,0.0760066435 C11.9162435,-0.0253355478 11.6977291,-0.0253355478 11.5187332,0.0760066435 L0.295226962,6.38686129 C0.113906466,6.4884338 0,6.67960203 0,6.88689287 L0,20.4324284 C0,20.6394889 0.111581844,20.8306571 0.295226962,20.9322296 L11.5187332,27.2430843 C11.6070688,27.2937554 11.7070276,27.3190909 11.8046617,27.3190909 C11.9022958,27.3190909 12.0022545,27.2937554 12.0905902,27.2430843 L23.3138639,20.9322296 C23.4954169,20.8306571 23.6090909,20.6394889 23.6090909,20.4324284 L23.6090909,6.88689287 C23.6090909,6.67960203 23.4975091,6.4884338 23.316421,6.38686129 L23.316421,6.38686129 Z" id="Fill-1" fill="#EF4237"></path>
                                <path d="M12.0408102,23.0003279 L12.0408102,20.3892529 C12.0408102,20.2600831 11.9331512,20.1539793 11.802088,20.1539793 C11.6710249,20.1539793 11.5633658,20.2600831 11.5633658,20.3892529 L11.5633658,23.0003279 L3.79319261,18.6544564 L3.79319261,9.3057927 L6.0259472,10.6459293 C6.06573424,10.6689953 6.10786168,10.6805283 6.14998913,10.6805283 C6.22956319,10.6805283 6.30913725,10.6413161 6.35360511,10.5677354 C6.42147711,10.4567878 6.3863709,10.3114718 6.27403105,10.2445803 L4.02021273,8.89060408 L11.802088,4.53804341 L19.5839633,8.89060408 L17.330379,10.2445803 C17.2180392,10.3114718 17.182933,10.4567878 17.250805,10.5677354 C17.2952728,10.6413161 17.3748469,10.6805283 17.4541869,10.6805283 C17.4965484,10.6805283 17.5386758,10.6689953 17.5784629,10.6459293 L19.8112175,9.3057927 L19.8112175,18.6544564 L12.0408102,23.0003279 Z M20.5086607,8.34855228 L12.033789,3.60848222 C11.8910237,3.5277511 11.7154927,3.5277511 11.5727275,3.60848222 L3.09808976,8.34855228 C2.95064371,8.43159 2.86170799,8.58382583 2.86170799,8.74990127 L2.86170799,18.9245597 C2.86170799,19.0906351 2.95298412,19.2428709 3.09808976,19.325678 L11.5727275,24.0659787 C11.6452803,24.105191 11.7248544,24.1259504 11.8044284,24.1259504 C11.8840025,24.1259504 11.9635766,24.105191 12.0361294,24.0659787 L20.5110011,19.325678 C20.6584472,19.2428709 20.7473829,19.0906351 20.7473829,18.9245597 L20.7473829,8.74990127 C20.7450425,8.58382583 20.6561068,8.4292834 20.5086607,8.34855228 Z" id="Fill-3" fill="#F15B2B"></path>
                                <polygon id="Fill-5" fill="#F89521" points="6.08112948 10.2536112 11.8045455 7.09586777 11.8045455 13.8723392 6.08112948 17.0300826"></polygon>
                                <polygon id="Fill-7" fill="#F89521" points="11.9832874 20.2232231 17.5279614 17.0300826 11.9832874 13.8369421 6.43884298 17.0300826"></polygon>
                                <polygon id="Fill-9" fill="#F89521" points="17.5279614 10.2536112 11.8045455 7.09586777 11.8045455 13.8723392 17.5279614 17.0300826"></polygon>
                                <path d="M11.9880959,20.0850468 L6.79667737,17.2074793 L11.9880959,14.3296826 L17.1792797,17.2074793 L11.9880959,20.0850468 Z M11.753413,7.71723891 L11.753413,13.9332432 L6.5573009,16.8153964 L6.5573009,10.5993921 L11.753413,7.71723891 Z M17.4186561,16.8128743 L15.3839562,15.6850054 L12.2204318,13.9309503 L12.2204318,7.71723891 L17.4163093,10.59687 L17.4163093,16.8128743 L17.4186561,16.8128743 Z M17.8645535,17.3037804 C17.8692471,17.292316 17.8762876,17.2808516 17.8786344,17.2693872 C17.8833281,17.2510441 17.8856749,17.2304082 17.8856749,17.2097722 L17.8856749,10.466405 C17.8856749,10.3836319 17.8410852,10.3079668 17.7659867,10.2669242 L12.1007436,7.12544595 C12.0890095,7.1185673 12.0772753,7.11627442 12.0655412,7.11168866 C12.0585007,7.10939578 12.0514602,7.1050393 12.0444197,7.10251713 C12.0326856,7.10022425 12.0209515,7.09793136 12.0092173,7.09793136 C11.99983,7.09793136 11.9927895,7.09586777 11.9834022,7.09586777 C11.9740149,7.09586777 11.9669744,7.09793136 11.9575871,7.09793136 C11.945853,7.10022425 11.9341188,7.10022425 11.9223847,7.10251713 C11.9153442,7.1050393 11.9083037,7.10710289 11.9012632,7.11168866 C11.8895291,7.11627442 11.8777949,7.1185673 11.8660608,7.12544595 L6.20058303,10.2669242 C6.12783136,10.3079668 6.08112948,10.3836319 6.08112948,10.466405 L6.08112948,17.2097722 C6.08112948,17.2304082 6.08324162,17.2510441 6.08793528,17.2693872 C6.09051679,17.2808516 6.09732259,17.292316 6.10201625,17.3037804 C6.10459776,17.310659 6.1067099,17.3175377 6.11140356,17.3221235 C6.11844404,17.3335879 6.12783136,17.3427594 6.13510652,17.3542238 C6.13980018,17.3588096 6.14191232,17.3656882 6.14660598,17.370274 C6.15388115,17.3771526 6.16538061,17.3840313 6.17476792,17.3909099 C6.1818084,17.3954957 6.18908357,17.4023743 6.19588937,17.4069601 L6.19847088,17.4069601 L11.863714,20.5484383 C11.8989164,20.568845 11.9388125,20.5780165 11.9787085,20.5780165 C12.0186046,20.5780165 12.0585007,20.568845 12.0937031,20.5484383 L17.7589462,17.4069601 L17.761293,17.4069601 C17.7683335,17.4023743 17.775374,17.395725 17.7824145,17.3909099 C17.7918018,17.3840313 17.8011891,17.3771526 17.8105764,17.370274 C17.8152701,17.3656882 17.8199637,17.3588096 17.8223106,17.3542238 C17.8316979,17.3450523 17.8387384,17.3335879 17.8457789,17.3221235 C17.8598598,17.3175377 17.8622066,17.310659 17.8645535,17.3037804 L17.8645535,17.3037804 Z" id="Fill-11" fill="#EF4237"></path>
                            </g>
                        </g>
                    </g>
                </g>
            </g>
        </g>
    </g>
</svg>